<svg width="111" height="35" viewBox="0 0 111 35" xmlns="http://www.w3.org/2000/svg" xmlns:xlink="http://www.w3.org/1999/xlink"><title>Energia_logo</title><defs><path id="a" d="M.021 21V.277h71.873v20.721z"/></defs><g fill="none" fill-rule="evenodd"><path d="M108 3.5a1.5 1.5 0 1 1-3 0 1.5 1.5 0 0 1 3 0M25 34.493L23.683 35l-4.833-7.412v7.131H17V24.47l1.646-.47 4.5 6.993v-6.675H25v10.175M8 34H1V24h6.849v1.771H3.033v2.13h3.729v1.771H3.033v2.557H8V34m36 0h-7V24h6.863v1.771h-4.83v2.13h3.73v1.771h-3.73v2.557h4.963V34H44m13.505-8.373h-1.527v3.243h1.452c.833 0 1.404-.142 1.712-.427.325-.326.493-.774.46-1.231a1.495 1.495 0 0 0-.446-1.193c-.3-.262-.851-.392-1.651-.392zM62 34.118L60.38 35l-2.4-4.321h-2.006v3.953H54V24h3.941c2.474 0 3.71 1.024 3.71 3.072a3.284 3.284 0 0 1-.478 1.861c-.356.512-.821.94-1.364 1.253L62 34.118zm17.023-4.638v3.475a7.653 7.653 0 0 1-1.486.163 3.143 3.143 0 0 1-2.49-1 3.936 3.936 0 0 1-.864-2.672 3.91 3.91 0 0 1 .825-2.596c.551-.656 1.37-.983 2.454-.983a6.78 6.78 0 0 1 2.528.445l.672-1.686a6.092 6.092 0 0 0-1.504-.451 9.33 9.33 0 0 0-1.742-.17 5.24 5.24 0 0 0-3.912 1.507c-1 1.008-1.502 2.33-1.504 3.968-.002 1.638.497 2.969 1.497 3.992a5.07 5.07 0 0 0 3.79 1.526 9.242 9.242 0 0 0 2.024-.244 5.923 5.923 0 0 0 1.689-.57V29.48h-1.977M90.49 35L89 34.083 93.495 25l1.505.92L90.49 35" fill="#FFF"/><path d="M97 26l-2-1" fill="#0A0B09"/><path d="M107.633 30.233l-1.095-3.171-1.105 3.171h2.2zM111 34.338l-1.754.63-.967-2.836h-3.523L103.758 35 102 34.366 105.62 24h1.813L111 34.338z" fill="#FFF"/><path fill="#D52B2F" d="M25 18.303L41.392 1 43 2.697 26.608 20 25 18.303M65 5.844L89.429 0 90 2.157 65.571 8 65 5.844"/><mask id="b" fill="#fff"><use xlink:href="#a"/></mask><path fill="#D52B2F" mask="url(#b)" d="M48.835 8.166l23.059 10.58-.958 2.253L47.877 10.42l.958-2.254M.918.278L24.36 9.904l-.918 2.411L0 2.69.918.278"/><path fill="#D52B2F" d="M89.549 9L111 13.942 110.451 16 89 11.059 89.549 9"/></g></svg>