<?xml version="1.0" encoding="UTF-8"?>
<svg width="165px" height="146px" viewBox="0 0 165 146" version="1.1" xmlns="http://www.w3.org/2000/svg" xmlns:xlink="http://www.w3.org/1999/xlink">
    <!-- Generator: Sketch 46 (44423) - http://www.bohemiancoding.com/sketch -->
    <title>Page 1</title>
    <desc>Created with Sketch.</desc>
    <defs></defs>
    <g id="Page-1" stroke="none" stroke-width="1" fill="none" fill-rule="evenodd">
        <g id="Energia_fin_design" transform="translate(-275.000000, -5103.000000)">
            <g id="Poslugy" transform="translate(0.000000, 4582.000000)">
                <g id="Page-1" transform="translate(275.000000, 521.000000)">
                    <polygon id="Fill-1" fill="#EA2729" points="104.765113 134.663258 105 135 7 135 7 59 22.894008 67.5480573 17.4916112 70.5528289 14.7251664 77.0286299 16.4737683 84.1520109 23.285486 92.9850034 31.1933422 95.5753238 37.7701731 91.7157464 39.7275632 98.398773 46.4870839 106.37696 53.6641811 108.3197 60.8412783 104.019768 65.408522 100.781868 103.538482 122.126108 102.964314 127.850716"></polygon>
                    <polygon id="Fill-2" fill="#EA2729" points="7 0 7 46.089529 11.6248804 43.8030362 12.1700478 35.4277929 38.6558852 20.6709225 46.7300478 21.3131958 68.7977033 32.2318412 79.6726316 44.6508369 99.9110048 59.3152199 100.019522 65.0956793 129.649761 47.7337485 133.70622 51.0735695 133.938756 61.5554691 142 66 142 0"></polygon>
                    <g id="Group-18" transform="translate(0.000000, 20.000000)">
                        <path d="M48.7978442,75.5962403 C48.7978442,75.5320108 48.8419645,75.4754889 48.8263927,75.4112595 L48.7744864,75.2108637 C48.7718911,75.1980178 48.7589145,75.1954486 48.7563192,75.1851719 C48.7537239,75.172326 48.7615098,75.1620493 48.7589145,75.1517726 C48.7563192,75.1440651 48.7511286,75.1389267 48.7485333,75.1312192 L48.7485333,75.0438672 C48.7485333,75.0078987 48.7147942,74.9899145 48.7096036,74.953946 C48.7070083,74.9179775 48.7329614,74.8922857 48.7251755,74.8588864 L48.6732692,74.6584906 C48.6654833,74.6302297 48.6317442,74.6173838 48.621363,74.5891228 C48.613577,74.5582927 48.6291489,74.5300317 48.6161723,74.4992016 L48.5149552,74.2988058 L48.413738,74.09841 C48.4033567,74.0752874 48.372213,74.0727182 48.3592364,74.0521648 C48.3462598,74.0316114 48.3566411,74.0033504 48.3410692,73.982797 L48.1879458,73.7824012 C48.1801598,73.7721245 48.1671833,73.7746936 48.1619927,73.7669861 C48.1308489,73.7284485 48.0971098,73.6976183 48.0607755,73.664219 C48.0348223,73.6282505 48.0452036,73.5820054 48.0114645,73.5486061 L47.8583411,73.3970246 L47.7052177,73.2454431 C47.6844552,73.2248897 47.6533114,73.2325973 47.6325489,73.214613 C47.6091911,73.199198 47.6091911,73.1657987 47.5858333,73.1478144 C47.5572848,73.1298302 47.5183552,73.1426761 47.4872114,73.127261 C47.4612583,73.1041384 47.4612583,73.0681699 47.4327098,73.0476165 C47.4041614,73.0296323 47.3652317,73.0424782 47.334088,73.0270631 C47.3081348,73.0039405 47.3081348,72.967972 47.2795864,72.9474186 C47.2328708,72.9165885 47.1731786,72.9345727 47.1212723,72.9114501 C47.0537942,72.8626357 47.0226505,72.7829913 46.9396005,72.7547303 C46.911052,72.7444536 46.8799083,72.765007 46.8513598,72.7598687 C46.8254067,72.749592 46.8176208,72.7161926 46.7890723,72.7059159 C46.7371661,72.6905009 46.6826645,72.721331 46.628163,72.7161926 C46.545113,72.6853625 46.4828255,72.6185639 46.3919895,72.6185639 C46.2803911,72.6185639 46.1687927,72.6416865 46.0649802,72.6853625 C46.005288,72.7007776 45.9455958,72.6699475 45.8910942,72.6982084 C45.872927,72.7059159 45.8599505,72.7239002 45.8443786,72.7341769 C45.756138,72.7701454 45.673088,72.8163906 45.6004192,72.8780508 C45.548513,72.9063118 45.4836302,72.8986042 45.4369145,72.9448494 C45.4343192,72.9474186 45.4369145,72.9525569 45.4343192,72.9525569 C45.4343192,72.9551261 45.4291286,72.9551261 45.4291286,72.9576953 C45.4135567,72.9705412 45.4187473,73.0013713 45.4057708,73.0167864 C45.3876036,73.0322014 45.3564598,73.0270631 45.3382927,73.0450473 C45.3019583,73.083585 45.3071489,73.1426761 45.2760052,73.1889212 C45.2604333,73.2043363 45.2396708,73.214613 45.2266942,73.2300281 C45.208527,73.2480123 45.1903598,73.2557199 45.174788,73.2762733 C45.1514302,73.3045342 45.1073098,73.3096726 45.0891427,73.3456411 C45.0631895,73.3970246 45.0891427,73.4561157 45.0735708,73.5100684 C45.0528083,73.5640211 45.0216645,73.6076971 45.0112833,73.664219 C45.0060927,73.6822033 44.9853302,73.6873416 44.9801395,73.707895 L44.959377,73.7875395 C44.959377,73.7875395 44.9567817,73.7901087 44.9567817,73.7926779 L44.9567817,73.7952471 L44.9282333,73.9082909 C44.917852,73.9416902 44.9438052,73.9673819 44.9412098,74.0007812 C44.8918989,74.1395168 44.8373973,74.2782524 44.876327,74.4298338 L44.9282333,74.6302297 L44.9567817,74.7407043 L44.9567817,74.8460405 C44.9567817,74.8922857 44.9983067,74.9179775 45.0060927,74.9616535 C45.0138786,75.0078987 44.9827348,75.0464364 44.9983067,75.0901124 C45.0112833,75.12865 45.0476177,75.1466343 45.0657848,75.1826027 C45.0761661,75.2185712 45.0528083,75.2468322 45.0657848,75.2828007 L45.167002,75.53458 C45.1773833,75.562841 45.2111223,75.578256 45.2266942,75.6090862 C45.2396708,75.6270704 45.2266942,75.6527622 45.2396708,75.6733156 C45.2656239,75.7092841 45.3097442,75.7298375 45.340888,75.7632368 C45.3590552,75.7940669 45.3460786,75.8300354 45.3668411,75.8582963 L45.5199645,76.0586922 C45.5511083,76.1023682 45.5978239,76.1229216 45.6367536,76.1563209 C45.665302,76.1999969 45.6549208,76.2539496 45.6938505,76.2924873 L45.8002583,76.3952544 L45.9248333,76.5596817 C45.9689536,76.6187728 46.0286458,76.6496029 46.0831473,76.6907098 C46.1013145,76.7035556 46.0987192,76.7292474 46.1168864,76.7420933 C46.1272677,76.7472317 46.1454348,76.7472317 46.1584114,76.75237 C46.1869598,76.7703542 46.212913,76.7883385 46.2414614,76.8011844 C46.2570333,76.8140303 46.254438,76.8345837 46.2700098,76.8448604 C46.3193208,76.8782597 46.3867989,76.8731213 46.4438958,76.8962439 C46.503588,76.9373508 46.5347317,77.0118569 46.6074005,77.0375487 C46.6437348,77.0478254 46.6826645,77.0478254 46.7215942,77.0529637 C46.7397614,77.0632404 46.744952,77.0812247 46.7605239,77.0889322 C46.7968583,77.0992089 46.835788,77.0992089 46.8747177,77.1043473 C46.8928848,77.114624 46.8980755,77.1326082 46.9136473,77.1403158 C46.9992927,77.1685767 47.0901286,77.1814226 47.1835598,77.1814226 L47.1913458,77.1814226 C47.2354661,77.186561 47.2640145,77.230237 47.3107302,77.230237 C47.3418739,77.230237 47.367827,77.2173911 47.3989708,77.2122527 C47.4223286,77.2148219 47.4404958,77.2328061 47.4638536,77.2328061 C47.5443083,77.2328061 47.624763,77.2045452 47.7052177,77.1762842 C47.7104083,77.1762842 47.7130036,77.1814226 47.7181942,77.1814226 C47.7363614,77.1814226 47.749338,77.1634384 47.7649098,77.1634384 C47.7804817,77.1557308 47.7986489,77.1583 47.8142208,77.1505925 C47.8220067,77.1454541 47.8297927,77.1377466 47.8375786,77.1326082 C47.8453645,77.1326082 47.8505552,77.1274699 47.8557458,77.1249007 C47.8765083,77.1171932 47.8920802,77.1094856 47.9102473,77.1017781 C48.0452036,77.0658096 48.1879458,77.0503946 48.2917583,76.9450583 C48.3099255,76.9296432 48.3047348,76.8962439 48.3203067,76.8756905 C48.3358786,76.8602754 48.3592364,76.8654138 48.372213,76.8525679 C48.3903802,76.8371529 48.3851895,76.8088919 48.4007614,76.7909077 C48.4838114,76.7215399 48.5694567,76.6547413 48.621363,76.5545434 C48.6473161,76.5031598 48.621363,76.4440687 48.6369348,76.390116 C48.6784598,76.2950565 48.7537239,76.2205503 48.7537239,76.1100757 C48.7537239,76.0920915 48.7433427,76.0766764 48.7433427,76.056123 C48.7511286,76.0330004 48.7770817,76.0227237 48.7822723,75.9970319 L48.8341786,75.7966361 C48.8497505,75.7324067 48.7978442,75.6604697 48.7978442,75.5962403" id="Fill-3" fill="#EA2729"></path>
                        <path d="M87.1505938,51.5633861 L87.1505938,51.5890779 L87.2544063,51.5376944 L87.2025,51.4863108 C87.1765469,51.5120026 87.1765469,51.5633861 87.1505938,51.5633861" id="Fill-5" fill="#FFFFFF"></path>
                        <g id="Group-9" transform="translate(0.000000, 21.648110)" fill="#EA2729">
                            <path d="M1.58314063,13.0103468 L1.661,9.07950569 L74.0442656,50.4946419 L91.6404844,60.6428918 L91.6404844,64.4709658 L64.1301719,48.6191426 L44.8729531,37.6230642 L41.8364375,35.8760237 L22.5792188,24.8799454 L1.58314063,13.0103468 Z M20.970125,28.4254099 L22.0861094,28.7080194 L23.3059062,29.2218548 L24.5516562,29.8384573 L25.8233594,30.7376694 L27.0172031,31.7396485 L28.237,32.9985453 L29.3789375,34.3088257 L30.3911094,35.7475649 L31.3254219,37.314763 L32.1559219,38.9076528 L32.80475,40.5519262 L33.3497656,42.2218914 L33.6871562,43.8147812 L33.8688281,45.2792122 L33.9207344,46.769335 L33.842875,48.1053071 L33.5054844,49.3128204 L33.0902344,50.3147995 L32.5192656,51.1112444 L31.8704375,51.8049223 L31.1177969,52.293066 L30.2613437,52.6013672 L29.2491719,52.7298261 L28.1850937,52.7041343 L27.0172031,52.3701413 L25.8493125,51.9076894 L24.5516562,51.2397033 L23.3059062,50.3918748 L22.1120625,49.3385122 L20.9441719,48.1309989 L19.8022344,46.7436432 L18.7381563,45.304904 L17.8297969,43.7890895 L16.9992969,42.1961996 L16.3245156,40.5519262 L15.7795,38.9590364 L15.4940156,37.3661465 L15.2604375,35.7989484 L15.2604375,34.3345174 L15.3382969,32.9985453 L15.6237813,31.8167238 L16.0649844,30.8404365 L16.61,29.9412244 L17.2847813,29.2732384 L18.0114688,28.8107865 L18.9198281,28.528177 L19.932,28.3740264 L20.970125,28.4254099 Z M34.258125,40.0380908 L33.6092969,38.3424338 C33.6092969,38.3167421 33.5833438,38.3167421 33.5833438,38.3167421 C33.5573906,38.2910503 33.5833438,38.2653585 33.5833438,38.2653585 L32.7009375,36.5953933 L32.6749844,36.5697016 L31.7147187,34.9511199 L31.6887656,34.9254282 L31.6887656,34.8997364 L30.6246875,33.4096136 C30.6246875,33.3839219 30.5987344,33.3839219 30.5987344,33.3839219 C30.5987344,33.3582301 30.5987344,33.3582301 30.5727812,33.3325383 L29.4048906,31.9965662 L29.4048906,31.9708744 C29.3789375,31.9708744 29.3789375,31.9451826 29.3789375,31.9451826 L28.1072344,30.6349023 L28.0812812,30.6349023 C28.0553281,30.6092105 28.0812812,30.6092105 28.0553281,30.5835187 L26.783625,29.5301561 L26.7576719,29.5301561 L26.7576719,29.5044643 L25.4340625,28.5538688 C25.4081094,28.528177 25.3821562,28.5538688 25.3562031,28.528177 C25.33025,28.528177 25.33025,28.5024852 25.33025,28.4767934 L24.0066406,27.8344991 L23.9806875,27.8344991 L23.9547344,27.8088074 L22.631125,27.2435884 L22.5792187,27.2435884 C22.5532656,27.2435884 22.5273125,27.2178966 22.5013594,27.2178966 L21.3334687,26.9352871 L22.1899219,26.4471435 L40.7983125,37.083537 L41.0578438,37.7772149 L41.3692813,39.2159541 L39.6044688,40.1922414 L39.5785156,40.2179332 L38.6701563,40.7574604 C38.61825,40.7831522 38.61825,40.8345357 38.5922969,40.8602275 C38.5663438,40.8859192 38.5144375,40.8602275 38.4884844,40.911611 L37.7358438,41.7080559 C37.7098906,41.7080559 37.7358438,41.7594395 37.7098906,41.7594395 C37.6839375,41.7851313 37.6579844,41.7851313 37.6579844,41.810823 L37.0351094,42.7614186 L37.0351094,42.8384939 C37.0091563,42.8384939 36.9832031,42.8641857 36.9832031,42.8641857 L36.4641406,44.0203154 C36.4641406,44.0460072 36.4900938,44.071699 36.4641406,44.0973907 C36.4641406,44.1230825 36.4381875,44.1230825 36.4381875,44.1487743 L36.12675,45.4590546 L36.12675,45.5104382 C36.12675,45.53613 36.1007969,45.53613 36.1007969,45.5618217 L35.9710313,46.9748692 L35.9710313,47.0262527 C35.9710313,47.0519445 35.9450781,47.0519445 35.9450781,47.0776363 L35.9969844,48.6191426 C35.9969844,48.6448343 36.0229375,48.6448343 36.0229375,48.6705261 L36.0229375,48.6962179 L36.1007969,49.4412793 L34.8550469,50.1863407 L34.9848125,49.8266559 L34.9848125,49.8009641 C34.9848125,49.7752723 34.9848125,49.7752723 35.0107656,49.7495805 L35.3481563,48.4393002 L35.3481563,48.3879166 C35.3481563,48.3622249 35.3741094,48.3365331 35.3741094,48.3108413 L35.4779219,46.8464103 L35.4779219,46.8207185 L35.4779219,46.769335 L35.4260156,45.2278287 L35.4260156,45.1764451 L35.4260156,45.1507534 L35.2183906,43.5835553 L35.2183906,43.5321717 L34.8550469,41.8622066 L34.8290938,41.8365148 C34.8290938,41.810823 34.8550469,41.810823 34.8290938,41.7851313 L34.2840781,40.0894743 C34.2840781,40.0637825 34.258125,40.0637825 34.258125,40.0637825 L34.258125,40.0380908 Z M37.5022656,47.0776363 L37.6579844,45.7673559 L37.9434688,44.5598426 L38.3846719,43.5321717 L38.9296875,42.6843433 L39.5525625,42.0163572 L40.3052031,41.5539053 L41.1616563,41.2712958 L42.1738281,41.142837 L43.2638594,41.1685287 L44.4057969,41.4511382 L45.6255938,41.9135901 L46.8453906,42.607268 L48.1170938,43.4807882 L49.3368906,44.5598426 L50.5566875,45.6902806 L51.6726719,47.0519445 L52.7107969,48.4906837 L53.6191563,50.0578818 L54.4237031,51.6764634 L55.0984844,53.3207368 L55.6435,54.9136267 L55.9808906,56.4808248 L56.1885156,58.0480229 L56.2144688,59.5124538 L56.0847031,60.848426 L55.7992188,61.9788639 L55.3580156,63.0322266 L54.813,63.9314386 L54.190125,64.5480411 L53.4115313,65.0618766 L52.5550781,65.3444861 L51.5688594,65.4729449 L50.5047813,65.3958696 L49.3368906,65.1132601 L48.1170938,64.6508082 L46.8713438,63.9828222 L45.6255938,63.1349937 L44.4057969,62.081631 L43.2119531,60.8741178 L42.0700156,59.5124538 L41.0318906,58.0737146 L40.0975781,56.5579001 L39.3189844,54.9393185 L38.6442031,53.2950451 L38.0991875,51.6507717 L37.7617969,50.0578818 L37.7098906,49.7495805 L37.5541719,48.5420673 L37.5022656,47.0776363 Z M56.5518594,52.7555178 L55.851125,51.0598609 C55.8251719,51.0598609 55.8251719,51.0598609 55.8251719,51.0341691 L55.8251719,51.0084774 L55.020625,49.364204 C55.020625,49.3385122 54.9946719,49.3385122 54.9946719,49.3385122 L54.9946719,49.2871286 L54.0084531,47.6942388 L53.9825,47.668547 L53.9825,47.6428552 L52.9184219,46.1270407 L52.8924687,46.1270407 L52.8924687,46.1013489 L51.7245781,44.6883015 C51.7245781,44.6883015 51.698625,44.6883015 51.6726719,44.6626097 L51.6726719,44.6112262 L50.4009687,43.4294047 C50.3750156,43.4294047 50.3750156,43.4294047 50.3750156,43.4037129 L49.1033125,42.2989667 C49.1033125,42.2732749 49.0773594,42.2989667 49.0514062,42.2732749 C49.0514062,42.2732749 49.0514062,42.2475832 49.0254531,42.2475832 L47.7277969,41.3226794 L47.6758906,41.3226794 C47.6758906,41.3226794 47.6758906,41.2969876 47.6499375,41.2969876 L46.3522812,40.5519262 C46.3263281,40.5262344 46.300375,40.5519262 46.2744219,40.5262344 C46.2484687,40.5262344 46.2484687,40.5005427 46.2225156,40.5005427 L44.9248594,39.9867072 L44.8729531,39.9867072 C44.847,39.9867072 44.847,39.9610155 44.8210469,39.9610155 L43.6272031,39.678406 L44.4836562,39.1902623 L63.0920469,49.8009641 L63.2996719,50.5460255 L63.6889687,52.1389153 L63.8706406,53.6804216 L63.9225469,55.0934691 L63.7927812,56.4294412 L63.4553906,57.6369545 L63.325625,57.9709475 L63.0401406,58.6132418 L62.5210781,59.5124538 L61.87225,60.1290564 L61.0677031,60.6685836 L57.0709219,62.9551513 L57.2525937,62.5440829 L57.2525937,62.4926994 C57.2525937,62.4670076 57.3045,62.4670076 57.3045,62.4413158 L57.5899844,61.182419 C57.6159375,61.1567272 57.5899844,61.1310355 57.5899844,61.1310355 C57.5899844,61.1053437 57.6159375,61.1053437 57.6159375,61.0796519 L57.7716562,59.6152209 C57.7716562,59.5895292 57.7457031,59.5895292 57.7457031,59.5638374 C57.7716562,59.5381456 57.7716562,59.5381456 57.7716562,59.5124538 L57.71975,57.9709475 L57.71975,57.919564 L57.71975,57.8938722 L57.512125,56.2752906 L57.512125,56.2495988 L57.512125,56.223907 L57.1487812,54.5539419 L57.1228281,54.5282501 L57.1228281,54.4768666 L56.5778125,52.8069014 C56.5778125,52.8069014 56.5518594,52.8069014 56.5518594,52.7812096 L56.5518594,52.7555178 Z M65.5056875,55.0934691 L65.4537812,53.5776545 L65.4278281,53.5519628 L65.4278281,53.5005792 L65.2461562,51.9076894 C65.2461562,51.8819976 65.2202031,51.8819976 65.2202031,51.8563058 L65.2202031,51.8049223 L64.986625,50.9057103 L92.0297813,66.5006158 L101.762203,71.998655 L107.913094,75.5184277 L104.643,77.3682353 C104.617047,77.3682353 104.617047,77.3939271 104.617047,77.3939271 L104.591094,77.3939271 L103.682734,77.9848378 C103.656781,78.0105296 103.656781,78.0362214 103.630828,78.0619131 C103.604875,78.0876049 103.578922,78.0619131 103.552969,78.0876049 L102.748422,78.8840498 C102.722469,78.9097416 102.722469,78.9611251 102.722469,78.9868169 C102.696516,78.9868169 102.644609,78.9868169 102.644609,79.0382005 L102.436984,79.3465017 L65.0125781,57.919564 L65.3240156,56.7634343 C65.3240156,56.7377425 65.2980625,56.7377425 65.2980625,56.7120507 C65.3240156,56.6863589 65.3240156,56.6606672 65.3499687,56.6349754 L65.4797344,55.1962362 C65.5056875,55.1705444 65.4797344,55.1705444 65.4797344,55.1448526 C65.4797344,55.1191609 65.5056875,55.1191609 65.5056875,55.0934691 L65.5056875,55.0934691 Z M102.488891,84.2793219 L102.644609,82.9690416 L102.930094,81.78722 L103.371297,80.7595492 L103.890359,79.9117207 L104.591094,79.2437346 L105.343734,78.7298992 L106.226141,78.4729815 L107.186406,78.3188308 L108.250484,78.3959062 L109.392422,78.6785157 L110.612219,79.1409675 L111.857969,79.7832618 L113.103719,80.6567821 L114.323516,81.7101447 L115.491406,82.917658 L116.659297,84.2793219 L117.697422,85.7180611 L118.631734,87.2852592 L119.410328,88.8781491 L120.111062,90.4967307 L120.630125,92.1410041 L120.967516,93.7082022 L121.175141,95.2497085 L121.227047,96.7141395 L121.071328,98.0244199 L120.785844,99.2319331 L120.396547,100.259604 L119.825578,101.081741 L119.124844,101.749727 L118.398156,102.23787 L117.489797,102.571863 L116.555484,102.700322 L115.491406,102.623247 L114.323516,102.340638 L113.155625,101.878186 L111.857969,101.2102 L110.612219,100.362371 L109.392422,99.3090085 L108.224531,98.1014952 L107.056641,96.7398313 L106.018516,95.2754003 L105.084203,93.733894 L104.305609,92.1153123 L103.604875,90.4967307 L103.137719,88.8781491 L102.748422,87.2852592 L102.540797,85.7437529 L102.488891,84.2793219 Z M121.538484,89.9315117 L120.83775,88.2872383 C120.83775,88.2872383 120.811797,88.2872383 120.811797,88.2615466 L120.811797,88.2358548 L120.00725,86.5915814 L119.981297,86.5658896 L119.981297,86.5401978 L119.021031,84.9216162 C118.995078,84.9216162 118.995078,84.9216162 118.995078,84.8959244 L118.969125,84.8702327 L117.905047,83.3801099 C117.905047,83.3544181 117.879094,83.3544181 117.879094,83.3544181 L117.879094,83.3030346 L116.659297,81.9156789 C116.659297,81.8899871 116.633344,81.8899871 116.633344,81.8899871 L116.633344,81.8642954 L115.413547,80.6310903 L115.387594,80.6053985 C115.361641,80.6053985 115.361641,80.5797068 115.361641,80.5797068 L114.089938,79.4749606 C114.089938,79.4492688 114.063984,79.4749606 114.038031,79.4492688 C114.038031,79.4492688 114.038031,79.423577 114.012078,79.423577 L112.714422,78.4986733 L112.662516,78.4986733 C112.636563,78.4986733 112.636563,78.4729815 112.636563,78.4729815 L111.312953,77.7536119 L111.261047,77.7536119 C111.235094,77.7536119 111.235094,77.7279201 111.209141,77.7279201 L109.911484,77.2140847 L109.859578,77.2140847 C109.833625,77.2140847 109.833625,77.1883929 109.807672,77.1883929 L108.613828,76.9057834 L113.051813,74.3879898 L113.908266,74.0796885 L114.894484,73.9512296 L115.958563,73.9769214 L116.789063,74.1824556 L117.1005,74.2595309 L118.268391,74.7219828 L118.34625,74.7733663 L119.566047,75.4156606 L120.811797,76.2891809 L122.031594,77.3682353 L123.251391,78.4986733 L124.367375,79.8603372 L124.549047,80.1172549 L125.4055,81.2990764 L126.106234,82.5065897 L126.313859,82.8662745 L127.118406,84.4848561 L127.118406,84.5105479 C127.144359,84.5105479 127.144359,84.5105479 127.144359,84.5362396 L127.144359,84.5619314 L127.793187,86.1291295 L128.000812,86.745732 L128.000812,86.7714238 L128.338203,87.7220193 L128.675594,89.2892174 L128.883219,90.8821073 L128.935125,92.3465383 L128.779406,93.6568186 L128.519875,94.7872566 L128.338203,95.1726332 L128.338203,95.198325 L128.052719,95.8406193 L127.507703,96.7398313 L126.884828,97.3564338 L126.054328,97.895961 L122.109453,100.131145 L122.265172,99.7457686 L122.265172,99.694385 C122.265172,99.6686933 122.291125,99.6686933 122.291125,99.6430015 L122.602563,98.3327211 L122.602563,98.2813376 L122.628516,98.2556458 L122.784234,96.8425984 C122.784234,96.8169066 122.758281,96.8169066 122.758281,96.7912148 C122.758281,96.765523 122.784234,96.7398313 122.784234,96.7398313 L122.732328,95.1726332 L122.706375,95.1469414 C122.706375,95.1212496 122.732328,95.1212496 122.732328,95.0955579 L122.524703,93.502668 C122.524703,93.4769762 122.49875,93.4769762 122.49875,93.4769762 L122.49875,93.4255927 L122.161359,91.7813193 C122.161359,91.7556275 122.135406,91.7556275 122.135406,91.7299358 L122.135406,91.704244 L121.564438,90.008587 C121.564438,89.9828953 121.538484,89.9828953 121.538484,89.9828953 L121.538484,89.9315117 Z M130.492312,92.3722301 L130.440406,90.805032 L130.414453,90.7793402 L130.414453,90.7536484 L130.232781,89.0836833 L130.206828,89.0579915 L130.206828,89.0066079 L130.025156,88.1330877 L132.983813,89.8287446 L132.983813,96.8682901 L130.025156,95.1726332 L130.310641,93.9908117 L130.310641,93.9394281 C130.310641,93.9137364 130.310641,93.8880446 130.336594,93.8880446 L130.466359,92.4749971 C130.492312,92.4493054 130.466359,92.4493054 130.466359,92.4236136 C130.466359,92.3979218 130.492312,92.3979218 130.492312,92.3722301 L130.492312,92.3722301 Z M134.541,69.0954848 L126.962688,66.9373759 L151.592203,52.7812096 L155.355406,57.1231191 L134.541,69.0954848 Z M134.541,89.8287446 L159.326234,75.6468866 L159.326234,82.7121238 L134.541,96.8682901 L134.541,89.8287446 Z M160.494125,73.6429284 L157.613328,72.0243467 L157.613328,59.4867621 L158.391922,60.4116659 L159.456,61.8504051 L160.338406,63.3919114 L161.168906,64.9848013 L161.817734,66.6290747 L162.36275,68.3247316 L162.752047,69.8919297 L162.933719,71.4077442 L162.933719,72.8207917 L162.803953,74.2081474 L162.570375,75.3899689 L162.129172,76.3662562 L161.584156,77.2397764 L160.909375,77.8820707 L160.909375,74.3109144 C160.909375,74.2852227 160.857469,74.2595309 160.857469,74.2338391 C160.857469,74.1567638 160.831516,74.1053803 160.805563,74.0283049 C160.779609,74.0026132 160.805563,73.9769214 160.779609,73.9255379 C160.779609,73.8998461 160.727703,73.8998461 160.70175,73.8741543 C160.675797,73.8227708 160.623891,73.7713872 160.571984,73.7456955 C160.546031,73.7200037 160.546031,73.6686201 160.494125,73.6429284 L160.494125,73.6429284 Z M156.056141,74.3879898 L135.345547,86.180513 L135.345547,70.4057651 L156.056141,58.5104747 L156.056141,74.3879898 Z M133.788359,79.2180429 L133.788359,86.2832801 L128.467969,83.6884112 L127.715328,82.1725966 C127.715328,82.1469049 127.689375,82.1469049 127.689375,82.1469049 L127.689375,82.0955213 L126.729109,80.5026315 L126.703156,80.5026315 C126.677203,80.4769397 126.703156,80.4769397 126.677203,80.4512479 L126.106234,79.654803 L126.106234,77.0085505 L133.788359,79.2180429 Z M126.080281,75.2872018 L126.080281,68.2219645 L133.788359,70.4314569 L133.788359,77.4966941 L126.080281,75.2872018 Z M150.761703,51.4709293 L125.898609,65.7555544 L122.265172,43.4037129 L147.180172,29.1704713 L150.761703,51.4709293 Z M120.707984,43.4807882 L124.549047,67.040143 L124.549047,77.6508448 L124.367375,77.4196188 C124.367375,77.4196188 123.095672,76.2121056 123.069719,76.2121056 L121.720156,75.0559758 L120.344641,74.1053803 L118.398156,73.0777094 L116.166188,72.4867986 L114.894484,72.3840315 L113.467063,72.5895657 L112.454891,72.9492505 L109.392422,74.5678322 L102.930094,70.8939088 L102.930094,33.2811548 L120.707984,43.4807882 Z M146.219906,27.9372662 L121.408719,42.0934325 L103.708688,31.9451826 L128.519875,17.7890163 L146.219906,27.9372662 Z M93.1976719,64.4966576 L93.1976719,60.6428918 L101.372906,56.0183729 L101.372906,59.7693716 L99.7378594,60.6942754 L99.7119062,60.6942754 L94.054125,64.0085139 L93.1976719,64.4966576 Z M133.399062,18.8166872 L128.909172,16.2218183 L128.805359,16.2218183 C128.701547,16.1704347 128.623687,16.1704347 128.519875,16.1704347 C128.416062,16.1704347 128.31225,16.1704347 128.234391,16.2218183 L128.130578,16.2218183 L101.762203,31.2771966 C101.73625,31.3028883 101.73625,31.3542719 101.684344,31.3799637 C101.632438,31.4056554 101.606484,31.457039 101.554578,31.5084225 C101.528625,31.5341143 101.502672,31.5341143 101.476719,31.5598061 C101.450766,31.6111896 101.476719,31.6368814 101.450766,31.6625732 C101.424813,31.7396485 101.424813,31.791032 101.424813,31.8681073 C101.398859,31.8937991 101.372906,31.9194909 101.372906,31.9451826 L101.372906,54.2456406 L93.1976719,58.8701596 L93.1976719,33.7692984 L133.399062,10.7751626 L133.399062,18.8166872 Z M91.6404844,33.7692984 L91.6404844,58.8701596 L88.3703906,56.9946602 L88.3703906,31.8681073 L91.6404844,33.7692984 Z M132.620469,9.43919049 L92.4190781,32.4333263 L89.2268438,30.557827 L129.324422,7.56369115 L132.620469,9.43919049 Z M0,7.84630064 L0,13.4214151 C0,13.4471069 0.05190625,13.4727987 0.05190625,13.5241822 C0.05190625,13.6269493 0.1038125,13.7040246 0.15571875,13.7810999 C0.207625,13.8581753 0.25953125,13.9352506 0.337390625,14.0123259 C0.36334375,14.0380177 0.36334375,14.0637094 0.389296875,14.0894012 L20.6067812,25.4965479 L17.2847812,27.397739 C17.2588281,27.397739 17.2588281,27.4234308 17.2588281,27.4234308 L17.232875,27.4234308 L16.3764219,27.962958 C16.3504687,27.9886498 16.3504687,28.0143415 16.3245156,28.0400333 C16.2985625,28.0657251 16.2726094,28.0657251 16.2466562,28.0657251 L15.4421094,28.8878618 C15.4161562,28.9135536 15.4161562,28.9392453 15.3902031,28.9649371 C15.3902031,28.9906289 15.3382969,28.9906289 15.3123437,29.0163206 L14.7154219,30.0182998 L14.7154219,30.0696833 C14.6894687,30.0953751 14.6894687,30.0953751 14.6635156,30.1210668 L14.1704062,31.225813 C14.1444531,31.2515048 14.1704062,31.2771966 14.1704062,31.3028883 C14.1444531,31.3285801 14.1185,31.3285801 14.1185,31.3542719 L13.8070625,32.6645523 C13.8070625,32.690244 13.8330156,32.690244 13.8330156,32.7159358 C13.8330156,32.7416276 13.8070625,32.7673193 13.8070625,32.7673193 L13.70325,34.1803668 L13.70325,34.2060586 L13.70325,34.2317503 L13.70325,35.7989484 L13.70325,35.850332 C13.7292031,35.8760237 13.70325,35.8760237 13.70325,35.9017155 L13.9627812,37.5716807 L13.9627812,37.5973725 L14.2742187,39.2416458 C14.2742187,39.2673376 14.3001719,39.2673376 14.3001719,39.2930294 L14.3001719,39.3444129 L14.8451875,41.0143781 C14.8451875,41.0143781 14.8711406,41.0143781 14.8711406,41.0400699 L14.8711406,41.0657617 L15.571875,42.7614186 C15.571875,42.7871104 15.5978281,42.7871104 15.5978281,42.7871104 L15.5978281,42.8384939 L16.4542812,44.4827673 C16.4802344,44.4827673 16.4802344,44.4827673 16.4802344,44.5084591 L17.3885937,46.0756572 C17.4145469,46.1013489 17.4405,46.1013489 17.4405,46.1270407 L17.4405,46.1527325 L18.5564844,47.6428552 C18.5564844,47.668547 18.5824375,47.668547 18.5824375,47.668547 L18.5824375,47.6942388 L19.7503281,49.0815945 C19.7503281,49.1072862 19.7762812,49.1072862 19.7762812,49.1072862 C19.7762812,49.132978 19.7762812,49.132978 19.8022344,49.132978 L21.0220312,50.3918748 L21.0479844,50.3918748 L21.0479844,50.4432584 L22.3196875,51.5480046 L22.3715937,51.5480046 C22.3975469,51.5736963 22.3975469,51.5993881 22.3975469,51.5993881 L23.7211562,52.4986001 C23.7211562,52.5242919 23.7471094,52.4986001 23.7730625,52.5242919 C23.7990156,52.5242919 23.7990156,52.5499837 23.7990156,52.5499837 L25.1745312,53.2436615 C25.1745312,53.2693533 25.2004844,53.2693533 25.2264375,53.2693533 C25.2264375,53.2693533 25.2264375,53.2950451 25.2523906,53.2950451 L26.4981406,53.7831887 C26.5240937,53.7831887 26.5500469,53.7831887 26.576,53.8088805 L27.8477031,54.1685653 C27.8996094,54.1942571 27.9515156,54.1942571 28.029375,54.1942571 L29.2491719,54.2456406 L29.3789375,54.2456406 L30.5468281,54.09149 C30.5468281,54.09149 30.5468281,54.0657982 30.5727812,54.0657982 C30.6246875,54.0657982 30.6506406,54.0657982 30.7025469,54.0401064 L31.7147187,53.7061134 C31.7406719,53.7061134 31.7406719,53.6804216 31.766625,53.6547299 C31.7925781,53.6547299 31.8185312,53.6547299 31.8444844,53.6290381 L36.3862812,51.0341691 L36.5679531,51.9847647 C36.5939062,51.9847647 36.5939062,51.9847647 36.5939062,52.0104565 L36.5939062,52.06184 L37.164875,53.757497 C37.164875,53.7831887 37.164875,53.7831887 37.1908281,53.7831887 L37.1908281,53.8088805 L37.8915625,55.5302292 L37.9175156,55.555921 L38.7220625,57.2258862 C38.7220625,57.2515779 38.7480156,57.2515779 38.7480156,57.2515779 L38.7480156,57.3029615 L39.7082812,58.8444678 C39.7342344,58.8444678 39.7342344,58.8701596 39.7342344,58.8701596 L39.7342344,58.8958513 L40.7983125,60.3859741 C40.8242656,60.4116659 40.8242656,60.4116659 40.8502187,60.4116659 L40.8502187,60.4373576 L42.0181094,61.8504051 C42.0181094,61.8504051 42.0440625,61.8504051 42.0440625,61.8760969 C42.0440625,61.8760969 42.0440625,61.9017886 42.0700156,61.9017886 L43.3417187,63.1606855 L43.3676719,63.1863772 L44.639375,64.2911234 C44.639375,64.3168152 44.6653281,64.2911234 44.6912812,64.3168152 C44.6912812,64.3168152 44.6912812,64.342507 44.7172344,64.342507 L46.0148906,65.2674107 L46.0667969,65.2674107 L46.09275,65.2931025 L47.4163594,66.0124721 L47.4682656,66.0124721 L47.4942187,66.0381639 L48.8178281,66.5519993 L48.8956875,66.5519993 C48.9216406,66.5519993 48.9216406,66.5776911 48.9216406,66.5776911 L50.1933437,66.8859924 L50.2971562,66.8859924 L51.5169531,66.9887595 L51.6726719,66.9887595 L52.8405625,66.8346088 L52.8665156,66.8346088 C52.9184219,66.8089171 52.9703281,66.8089171 52.9962812,66.8089171 L54.0084531,66.4492322 C54.0344062,66.4492322 54.0344062,66.4235405 54.0603594,66.4235405 C54.0863125,66.3978487 54.1122656,66.3978487 54.1382187,66.3978487 L61.8462969,61.9788639 C61.87225,61.9788639 61.87225,61.9531722 61.87225,61.9531722 L61.8982031,61.9531722 L62.8065625,61.3365696 C62.8325156,61.3365696 62.8325156,61.3108779 62.8584687,61.2851861 C62.8844219,61.2594943 62.910375,61.2594943 62.9363281,61.2594943 L63.6889687,60.4887412 C63.7149219,60.4887412 63.7149219,60.4630494 63.7149219,60.4373576 C63.740875,60.4116659 63.7927812,60.3859741 63.8187344,60.3602823 L64.4156562,59.3583032 L101.710297,80.6824739 L101.476719,81.2220011 C101.450766,81.2476928 101.476719,81.2733846 101.476719,81.2990764 C101.476719,81.3247682 101.424812,81.3247682 101.424812,81.3504599 L101.113375,82.6607403 C101.113375,82.6607403 101.139328,82.6864321 101.139328,82.7121238 L101.113375,82.7378156 L100.957656,84.1508631 L100.957656,84.2022466 L100.957656,84.2536301 L101.009562,85.8208282 L101.009562,85.84652 L101.009562,85.8979035 L101.217187,87.4907934 C101.217187,87.5164852 101.243141,87.5164852 101.243141,87.5421769 C101.243141,87.5678687 101.217187,87.5678687 101.217187,87.5935605 L101.632437,89.2378339 L101.632437,89.2635257 L102.1515,90.9848744 C102.1515,91.0105661 102.177453,91.0105661 102.177453,91.0362579 L102.177453,91.0619497 L102.878187,92.7319149 C102.904141,92.7319149 102.904141,92.7319149 102.904141,92.7576066 L103.708687,94.4275718 C103.708687,94.4275718 103.734641,94.4275718 103.734641,94.4532636 L103.734641,94.4789553 L104.694906,96.0718452 C104.720859,96.097537 104.720859,96.097537 104.720859,96.1232287 L104.746812,96.1232287 L105.810891,97.6390433 C105.810891,97.6647351 105.836844,97.6647351 105.836844,97.6647351 L105.836844,97.6904268 L107.056641,99.1034743 L107.082594,99.1034743 L107.082594,99.1291661 L108.302391,100.388063 C108.328344,100.388063 108.328344,100.388063 108.328344,100.413755 C108.354297,100.413755 108.354297,100.439446 108.354297,100.439446 L109.626,101.544193 C109.626,101.544193 109.651953,101.544193 109.677906,101.569884 C109.677906,101.569884 109.677906,101.595576 109.703859,101.595576 L111.027469,102.494788 C111.027469,102.52048 111.053422,102.52048 111.079375,102.52048 C111.079375,102.52048 111.079375,102.546172 111.105328,102.546172 L112.454891,103.265541 L112.506797,103.265541 C112.53275,103.265541 112.53275,103.291233 112.53275,103.291233 L113.804453,103.779377 C113.830406,103.805069 113.856359,103.805069 113.882312,103.805069 C113.908266,103.805069 113.908266,103.83076 113.908266,103.83076 L115.179969,104.11337 C115.205922,104.139062 115.257828,104.139062 115.283781,104.139062 L116.503578,104.241829 L116.68525,104.241829 L117.801234,104.087678 C117.801234,104.087678 117.801234,104.061986 117.827187,104.061986 C117.879094,104.061986 117.931,104.061986 117.956953,104.036294 L119.021031,103.650918 L119.072937,103.599534 L119.150797,103.599534 L126.858875,99.2319331 L126.858875,99.2062414 L126.884828,99.2062414 L127.793187,98.5896388 C127.819141,98.5896388 127.819141,98.5382553 127.845094,98.5382553 C127.871047,98.5125635 127.897,98.5125635 127.922953,98.4868718 L128.675594,97.7418104 C128.701547,97.7418104 128.701547,97.7161186 128.701547,97.6904268 C128.7275,97.6647351 128.779406,97.6390433 128.805359,97.5876597 L129.402281,96.5856806 L133.373109,98.8722483 C133.476922,98.9236319 133.580734,98.9493237 133.684547,98.9493237 C133.7105,98.9493237 133.736453,98.9750154 133.762406,98.9750154 C133.788359,98.9750154 133.814312,98.9493237 133.840266,98.9493237 C133.944078,98.9493237 134.047891,98.9236319 134.151703,98.8722483 L160.494125,83.81687 C160.546031,83.7911783 160.546031,83.7654865 160.571984,83.7397947 C160.649844,83.6884112 160.70175,83.6113359 160.753656,83.5085688 C160.805562,83.4314934 160.831516,83.3544181 160.857469,83.251651 C160.857469,83.2259593 160.883422,83.2002675 160.883422,83.148884 L160.883422,79.7318783 L160.909375,79.7318783 L161.817734,79.1409675 C161.843687,79.1152758 161.843687,79.089584 161.843687,79.089584 C161.869641,79.0638922 161.895594,79.0638922 161.921547,79.0638922 L162.726094,78.2931391 C162.752047,78.2931391 162.726094,78.2674473 162.752047,78.2417555 C162.778,78.190372 162.829906,78.190372 162.855859,78.1389884 L163.478734,77.1370093 C163.478734,77.1113176 163.452781,77.1113176 163.478734,77.0856258 L163.504687,77.059934 L164.02375,75.9551878 C164.02375,75.9294961 163.997797,75.8781125 164.02375,75.8524207 C164.02375,75.826729 164.075656,75.8010372 164.075656,75.7753454 L164.335187,74.4650651 L164.309234,74.4393733 C164.309234,74.4136815 164.335187,74.4136815 164.335187,74.4136815 L164.490906,72.9492505 C164.490906,72.9235588 164.464953,72.9235588 164.464953,72.897867 L164.490906,72.8721752 L164.490906,71.3820524 C164.490906,71.3563607 164.464953,71.3306689 164.464953,71.3306689 C164.464953,71.3049771 164.490906,71.3049771 164.490906,71.2792854 L164.283281,69.6607037 L164.257328,69.635012 L164.257328,69.5836284 L163.868031,67.9136632 C163.868031,67.9136632 163.842078,67.9136632 163.842078,67.8879715 L163.842078,67.8622797 L163.297062,66.1666228 C163.297062,66.140931 163.271109,66.140931 163.271109,66.140931 L163.271109,66.1152392 L162.622281,64.4195823 C162.622281,64.3938905 162.596328,64.3938905 162.596328,64.3938905 C162.570375,64.3681987 162.596328,64.342507 162.570375,64.342507 L161.713922,62.6725418 L161.713922,62.64685 L160.779609,61.0539602 C160.779609,61.0282684 160.753656,61.0282684 160.753656,61.0282684 C160.753656,61.0025766 160.753656,60.9768848 160.727703,60.9768848 L159.611719,59.4610703 C159.585766,59.4353785 159.585766,59.4353785 159.585766,59.4096868 L158.417875,58.0737146 C158.417875,58.0480229 158.391922,58.0480229 158.391922,58.0480229 L158.391922,58.0223311 L157.587375,57.2515779 L157.587375,57.1488108 C157.587375,57.1231191 157.561422,57.1231191 157.561422,57.0974273 C157.561422,57.020352 157.535469,56.9689684 157.509516,56.9175849 C157.483562,56.8662013 157.509516,56.8148178 157.483562,56.7634343 C157.483562,56.7377425 157.431656,56.7377425 157.405703,56.7120507 C157.37975,56.6606672 157.353797,56.6349754 157.301891,56.5835919 C157.275937,56.5835919 157.275937,56.5322083 157.249984,56.5322083 L152.318891,51.4195457 L148.529734,27.8344991 C148.529734,27.8088074 148.503781,27.8088074 148.503781,27.7831156 C148.503781,27.7317321 148.477828,27.7060403 148.451875,27.6546567 C148.425922,27.628965 148.451875,27.6032732 148.425922,27.5518897 C148.399969,27.5005061 148.348062,27.5005061 148.322109,27.4748143 C148.270203,27.397739 148.24425,27.3463555 148.166391,27.2949719 L148.140437,27.2692802 L144.299375,25.0597878 L136.591297,20.6664948 L134.95625,19.7158992 L134.95625,9.43919049 C134.95625,9.41349872 134.930297,9.38780695 134.904344,9.3364234 C134.904344,9.28503986 134.904344,9.20796455 134.878391,9.156581 C134.852437,9.13088923 134.878391,9.07950569 134.852437,9.05381391 C134.826484,9.02812214 134.800531,9.02812214 134.774578,8.9767386 C134.722672,8.92535506 134.696719,8.89966328 134.644812,8.84827974 C134.592906,8.82258797 134.592906,8.7968962 134.566953,8.77120442 L129.713719,5.99649306 L129.609906,5.99649306 C129.506094,5.94510952 129.428234,5.94510952 129.324422,5.94510952 C129.220609,5.94510952 129.116797,5.94510952 129.038937,5.99649306 L128.935125,5.99649306 L87.2544062,29.8898409 L87.1505937,29.9412244 C87.0986875,29.9669162 87.0467812,29.992608 87.0208281,30.0696833 C86.994875,30.0953751 86.9429687,30.0953751 86.9170156,30.1210668 L86.9170156,30.2238339 C86.8910625,30.3009092 86.8651094,30.3522928 86.8651094,30.4036763 C86.8651094,30.4550599 86.8132031,30.4807516 86.8132031,30.5064434 L86.8132031,34.0647538 L73.1904078,41.505091 L60.5927609,34.5991427 L56.3753781,34.8149536 L52.4824094,29.9977463 L27.5025266,15.7054136 L22.7427234,15.4921719 L19.4985828,10.9421591 L17.1757781,9.76547599 L11.6062375,4.5731689 L11.8865312,2.42533677 C11.9643906,1.78304248 11.1598437,1.60320008 11.2636562,0.960905779 L0.389296875,7.17831457 C0.36334375,7.20400634 0.36334375,7.22969811 0.337390625,7.25538988 C0.285484375,7.30677343 0.233578125,7.35815697 0.207625,7.40954052 C0.181671875,7.43523229 0.129765625,7.43523229 0.1038125,7.46092406 L0.1038125,7.56369115 C0.077859375,7.64076646 0.05190625,7.69215001 0.05190625,7.74353355 C0.05190625,7.79491709 0,7.82060887 0,7.84630064 L0,7.84630064 Z" id="Fill-7"></path>
                        </g>
                        <polygon id="Fill-10" fill="#FFFFFF" points="42.77075 60.0416708 42.7447969 59.8361367 42.9264688 59.9389037"></polygon>
                        <path d="M113.81743,112.586483 C113.814834,112.578775 113.809644,112.573637 113.807048,112.565929 L113.807048,112.478577 C113.807048,112.450316 113.7785,112.434901 113.775905,112.404071 C113.773309,112.380948 113.796667,112.357826 113.791477,112.329565 L113.73957,112.077786 C113.73438,112.059801 113.716213,112.052094 113.711022,112.036679 C113.705831,112.016125 113.718808,112.00071 113.713617,111.982726 C113.692855,111.928773 113.65652,111.882528 113.627972,111.833714 C113.617591,111.797745 113.635758,111.764346 113.620186,111.728377 L113.518969,111.527982 L113.417752,111.327586 L113.316534,111.12719 C113.295772,111.088652 113.243866,111.080945 113.217913,111.042407 C113.191959,111.006439 113.199745,110.962763 113.168602,110.929363 L113.015478,110.777782 L112.862355,110.6262 L112.709231,110.474619 L112.556108,110.323038 C112.535345,110.302484 112.504202,110.310192 112.483439,110.292207 C112.460081,110.276792 112.460081,110.243393 112.436723,110.225409 C112.408175,110.207425 112.369245,110.22027 112.338102,110.204855 C112.312148,110.181733 112.312148,110.145764 112.2836,110.125211 C112.268028,110.114934 112.24467,110.125211 112.229098,110.114934 C112.088952,109.983906 111.90728,109.896554 111.699655,109.896554 C111.65813,109.896554 111.616605,109.914538 111.57508,109.919677 C111.510197,109.904262 111.466077,109.84774 111.396003,109.84774 C111.33112,109.84774 111.268833,109.870862 111.206545,109.886277 C111.170211,109.891416 111.141663,109.860586 111.105328,109.870862 L110.991134,109.899123 C110.988539,109.899123 110.988539,109.901692 110.985944,109.901692 L110.905489,109.922246 C110.887322,109.927384 110.879536,109.947938 110.863964,109.953076 C110.843202,109.958214 110.82763,109.97106 110.806867,109.976199 C110.786105,109.983906 110.765342,109.97106 110.74458,109.981337 C110.721222,109.994183 110.70565,110.014736 110.684888,110.027582 C110.682292,110.030151 110.682292,110.030151 110.679697,110.030151 C110.669316,110.03529 110.653744,110.025013 110.643363,110.032721 C110.627791,110.040428 110.620005,110.053274 110.607028,110.060981 C110.529169,110.109796 110.461691,110.145764 110.404594,110.217701 C110.383831,110.243393 110.368259,110.269085 110.350092,110.297346 C110.303377,110.348729 110.228113,110.364144 110.194373,110.428374 C110.194373,110.436081 110.196969,110.443789 110.194373,110.448927 C110.16842,110.484896 110.183992,110.53371 110.165825,110.569679 C110.150253,110.585094 110.139872,110.59537 110.126895,110.610785 C110.103538,110.639046 110.059417,110.644185 110.04125,110.680153 C110.015297,110.731537 110.04125,110.790628 110.025678,110.844581 C109.984153,110.93964 109.908889,111.014146 109.908889,111.124621 C109.908889,111.160589 109.924461,111.191419 109.929652,111.227388 C109.927056,111.245372 109.908889,111.255649 109.908889,111.276202 L109.908889,111.476598 L109.908889,111.676994 C109.908889,111.748931 109.932247,111.818299 109.950414,111.887666 C109.953009,111.933912 109.921866,111.96988 109.932247,112.013556 L109.984153,112.213952 C109.994534,112.247351 110.025678,112.262766 110.038655,112.293596 C110.046441,112.319288 110.030869,112.347549 110.043845,112.373241 L110.108728,112.499131 L110.137277,112.614744 C110.147658,112.648143 110.178802,112.663558 110.191778,112.694388 C110.199564,112.72008 110.183992,112.748341 110.196969,112.774033 L110.298186,112.974428 L110.399403,113.174824 C110.425356,113.226208 110.477263,113.2519 110.513597,113.298145 C110.531764,113.318698 110.523978,113.349528 110.544741,113.372651 L110.747175,113.573047 C110.760152,113.585893 110.780914,113.580754 110.793891,113.591031 C110.819844,113.634707 110.812058,113.68609 110.848392,113.724628 L111.001516,113.87621 C111.022278,113.896763 111.053422,113.889055 111.074184,113.90704 C111.097542,113.922455 111.097542,113.955854 111.1209,113.973838 C111.152044,113.994392 111.193569,113.986684 111.227308,114.004668 C111.250666,114.020084 111.24807,114.056052 111.274023,114.074036 C111.323334,114.107436 111.390813,114.102297 111.447909,114.12542 C111.507602,114.166527 111.538745,114.241033 111.611414,114.266725 C111.655534,114.28214 111.704845,114.28214 111.754156,114.287278 C111.878731,114.369492 112.003306,114.454274 112.16162,114.454274 C112.197955,114.454274 112.229098,114.438859 112.265433,114.433721 C112.2836,114.43629 112.296577,114.454274 112.314744,114.454274 C112.351078,114.454274 112.382222,114.438859 112.418556,114.433721 C112.436723,114.43629 112.4497,114.454274 112.467867,114.454274 C112.504202,114.454274 112.535345,114.438859 112.57168,114.433721 C112.589847,114.43629 112.602823,114.454274 112.620991,114.454274 C112.670302,114.454274 112.706636,114.408029 112.755947,114.400322 C112.774114,114.392614 112.794877,114.382337 112.815639,114.37463 C112.896094,114.351507 112.973953,114.328385 113.046622,114.27957 C113.054408,114.277001 113.062194,114.277001 113.06998,114.274432 C113.072575,114.271863 113.077766,114.266725 113.080361,114.266725 C113.106314,114.246171 113.145244,114.251309 113.168602,114.228187 C113.181578,114.215341 113.176388,114.194788 113.189364,114.179372 C113.212722,114.161388 113.238675,114.145973 113.262033,114.12542 C113.267223,114.120281 113.275009,114.122851 113.2802,114.117712 L113.2802,114.115143 C113.308748,114.09459 113.345083,114.102297 113.371036,114.076605 C113.389203,114.06119 113.384013,114.032929 113.399584,114.014945 C113.482634,113.945577 113.56828,113.878779 113.620186,113.778581 C113.633163,113.747751 113.617591,113.71949 113.627972,113.68866 C113.653925,113.647553 113.698045,113.62443 113.713617,113.575616 C113.731784,113.524232 113.700641,113.47028 113.705831,113.416327 C113.736975,113.334113 113.804453,113.272453 113.804453,113.182532 C113.804453,113.172255 113.799263,113.161978 113.799263,113.151702 L113.833002,113.015535 C113.853764,112.941029 113.804453,112.8768 113.801858,112.804863 C113.799263,112.730357 113.843383,112.65842 113.81743,112.586483" id="Fill-12" fill="#EA2729"></path>
                        <path d="M26.5534208,62.8582598 C26.5534208,62.7863228 26.530063,62.716955 26.5093005,62.6475873 C26.5093005,62.6013421 26.5404442,62.5653736 26.530063,62.5216976 L26.4781567,62.3213018 L26.4262505,62.1209059 L26.3743442,61.9205101 C26.3665583,61.8922492 26.3328192,61.8794033 26.322438,61.8511423 C26.3120567,61.8203122 26.3276286,61.7920513 26.314652,61.7612211 L26.2134348,61.5608253 L26.1122177,61.3604295 C26.0888598,61.3218918 26.0421442,61.3141843 26.0135958,61.2756466 C25.9876427,61.2396782 25.9980239,61.1960021 25.9642848,61.1626028 L25.907188,61.1060809 L25.857877,61.0110214 C25.8345192,60.9724837 25.7852083,60.9647762 25.7592552,60.9262385 C25.733302,60.8902701 25.7436833,60.846594 25.7099442,60.8131947 L25.5568208,60.6616133 L25.4036973,60.5100318 C25.3855302,60.4894784 25.3543864,60.497186 25.3310286,60.4792017 C25.3102661,60.4637866 25.3102661,60.4303873 25.284313,60.4124031 C25.2557645,60.3944189 25.2194302,60.4072647 25.1882864,60.3918497 C25.1649286,60.3687271 25.1649286,60.3327586 25.1337848,60.3122052 C25.118213,60.3019285 25.0974505,60.3122052 25.0818786,60.3019285 C25.0533302,60.2762367 25.0118052,60.2788059 24.9806614,60.2556833 C24.8794442,60.1529162 24.786013,60.0398724 24.6354848,60.0039039 L24.4330505,59.9525204 C24.3967161,59.9422437 24.370763,59.9730738 24.3370239,59.9679355 C24.3006895,59.9627971 24.2825223,59.9293978 24.246188,59.9293978 C24.2098536,59.9293978 24.1787098,59.9448129 24.1423755,59.9499512 C24.1242083,59.947382 24.113827,59.9293978 24.0930645,59.9293978 C24.0697067,59.9293978 24.0489442,59.9422437 24.0255864,59.9422437 C24.0126098,59.9422437 24.0048239,59.9293978 23.9918473,59.9293978 C23.8802489,59.9293978 23.7686505,59.9525204 23.664838,59.9961964 C23.6077411,60.0116115 23.5454536,59.9807813 23.490952,60.0090423 C23.4701895,60.0218882 23.4546177,60.0424416 23.4312598,60.0578567 C23.4182833,60.062995 23.4053067,60.0527183 23.3897348,60.0604258 C23.283327,60.1143786 23.1924911,60.1965922 23.1198223,60.2890826 C23.0808927,60.3224819 23.0212005,60.3276203 22.9900567,60.3738654 C22.9641036,60.4098339 22.9796755,60.4612175 22.9615083,60.5048935 C22.9251739,60.5460003 22.8654817,60.5537078 22.8395286,60.6050914 C22.8213614,60.6410599 22.8421239,60.6795975 22.8291473,60.7129968 C22.8083848,60.7515345 22.7616692,60.7643804 22.7460973,60.8080564 C22.7383114,60.8363173 22.7564786,60.8645783 22.751288,60.8954084 C22.7409067,60.918531 22.7071677,60.9288077 22.6967864,60.9570687 C22.6812145,61.0084522 22.7123583,61.0624049 22.7071677,61.1163577 C22.6760239,61.1985713 22.6085458,61.2602316 22.6085458,61.3501528 C22.6085458,61.3861213 22.6241177,61.4169514 22.6293083,61.4529199 C22.626713,61.4709041 22.6085458,61.4811808 22.6085458,61.5017342 L22.6085458,61.7021301 C22.6085458,61.7483752 22.6500708,61.774067 22.6578567,61.817743 C22.6630473,61.8639882 22.6319036,61.9025259 22.6474755,61.9462019 C22.6526661,61.9641861 22.6734286,61.9718937 22.6786192,61.9898779 C22.6812145,61.9950163 22.6734286,62.0001546 22.6760239,62.005293 L22.7279302,62.2570723 C22.7305255,62.2647799 22.7357161,62.267349 22.7383114,62.2750566 C22.7409067,62.2827641 22.7357161,62.2879024 22.7357161,62.2930408 L22.7876223,62.4934366 C22.8031942,62.5499585 22.8473145,62.5756503 22.8732677,62.6244647 C22.8888395,62.6604331 22.8732677,62.70154 22.8940302,62.7349393 C22.9044114,62.7503543 22.9225786,62.7554927 22.9303645,62.7683386 L23.0237958,62.9969954 C23.034177,63.0252563 23.0679161,63.0406714 23.083488,63.0715015 C23.0964645,63.0894857 23.083488,63.1151775 23.0964645,63.1357309 C23.1224177,63.1716994 23.166538,63.1922528 23.1976817,63.2256521 C23.2158489,63.2564822 23.2028723,63.2924507 23.2236348,63.3207117 L23.3767583,63.5211075 C23.407902,63.5647835 23.457213,63.5853369 23.4935473,63.6187362 C23.5220958,63.6624122 23.5117145,63.716365 23.5506442,63.7549026 L23.7037677,63.9064841 C23.7375067,63.9398834 23.781627,63.9296067 23.8179614,63.9552984 C23.8542958,63.9809902 23.8620817,64.0298046 23.9036067,64.0529272 L24.080088,64.1402792 C24.1008505,64.1556943 24.1008505,64.1890936 24.1268036,64.2045086 C24.1761145,64.2379079 24.2435927,64.2327696 24.2980942,64.2558922 C24.3577864,64.296999 24.3889302,64.3715051 24.4615989,64.3971969 C24.5472442,64.4254579 24.6406755,64.4383038 24.7315114,64.4383038 L24.7392973,64.4383038 C24.7834177,64.4434421 24.8119661,64.4871181 24.8586817,64.4871181 C24.8950161,64.4871181 24.9261598,64.4717031 24.9624942,64.4665647 C24.9806614,64.4691339 24.9910427,64.4871181 25.0118052,64.4871181 C25.0481395,64.4871181 25.0792833,64.4717031 25.1156177,64.4665647 C25.1337848,64.4691339 25.1467614,64.4871181 25.1649286,64.4871181 C25.1830958,64.4871181 25.2038583,64.4768414 25.2246208,64.4742722 C25.2401927,64.4742722 25.2505739,64.4896873 25.2661458,64.4896873 C25.3491958,64.4896873 25.4322458,64.4742722 25.5127005,64.4485805 C25.5957505,64.4203195 25.6684192,64.3740743 25.7384927,64.3226908 C25.8189473,64.2867223 25.907188,64.2867223 25.9746661,64.2327696 C26.0032145,64.1993703 25.9928333,64.165971 26.0187864,64.1325717 C26.0343583,64.1171566 26.0577161,64.1248641 26.073288,64.1094491 C26.0914552,64.094034 26.0862645,64.0657731 26.1018364,64.0477888 C26.1848864,63.978421 26.2679364,63.9116224 26.322438,63.8114245 C26.3354145,63.7805944 26.3198427,63.7523334 26.3302239,63.7215033 C26.356177,63.6803965 26.397702,63.6572739 26.4158692,63.6084595 C26.4236552,63.5853369 26.405488,63.557076 26.4106786,63.5313842 C26.4236552,63.5031233 26.4547989,63.4902774 26.4651802,63.4594472 C26.480752,63.4080637 26.4496083,63.354111 26.4547989,63.3001583 C26.4859427,63.2179446 26.5534208,63.1562843 26.5534208,63.0663631 L26.5534208,62.8582598 Z" id="Fill-14" fill="#EA2729"></path>
                        <path d="M73.3261427,53.306059 L53.9313723,39.4119488 L79.0539973,24.973173 L98.526627,38.892975 L73.3261427,53.306059 Z M72.4099973,62.0463998 L61.2761067,55.7519157 C61.2761067,55.7519157 61.5875442,54.9554708 61.5875442,54.929779 C61.5875442,54.929779 61.6913567,53.4396562 61.6654036,53.4396562 L61.535638,51.9495335 L61.0165755,50.3823354 L60.2639348,49.0206715 C60.2639348,49.0206715 59.3555755,47.7103911 59.3296223,47.7103911 L58.1098255,46.5028778 C58.1098255,46.477186 56.8640755,45.6550493 56.8381223,45.6550493 C56.8121692,45.6550493 55.5404661,45.3210563 55.5404661,45.3210563 L54.3725755,45.3210563 C54.2947161,45.3210563 53.2825442,45.6807411 53.2825442,45.6807411 C53.2565911,45.6807411 52.5299036,46.5028778 52.5299036,46.5028778 C52.5039505,46.5285696 52.0627473,47.5048569 52.0627473,47.5048569 C52.0627473,47.5305487 51.8032161,48.8665208 51.8032161,48.8665208 C51.8032161,48.8922126 52.0108411,50.1511094 52.0108411,50.1511094 C52.0108411,50.1768012 52.0367942,50.4851025 52.0367942,50.4851025 L27.8744348,36.6115457 C27.8744348,36.6115457 28.2637317,35.6352583 28.2637317,35.6095666 C28.2637317,35.6095666 28.4454036,34.1194438 28.4194505,34.093752 C28.4194505,34.093752 28.1599192,32.3724033 28.2377786,32.5008622 C28.2377786,32.5008622 27.6408567,30.9593558 27.6408567,30.9336641 C27.6408567,30.9336641 26.7584505,29.5206166 26.7324973,29.5206166 C26.7324973,29.5206166 25.824138,28.3901787 25.7981848,28.3644869 L24.6822005,27.5166584 C24.6822005,27.4909666 23.6959817,26.771597 23.6959817,26.771597 C23.6700286,26.771597 22.294513,26.2577616 22.294513,26.2577616 L21.0747161,26.3605287 L20.0365911,26.6945217 C20.010638,26.6945217 19.2579973,27.3881996 19.2579973,27.3881996 C19.2320442,27.4138913 18.7129817,28.4158704 18.7129817,28.4158704 C18.7129817,28.4415622 18.6091692,29.8803014 18.6091692,29.8803014 C18.6091692,29.9059932 18.8167942,31.4474995 18.8167942,31.4474995 L17.726763,30.830897 L12.5620911,25.9494603 L12.5620911,16.751806 L21.173338,17.0883682 L42.475663,28.192352 L52.3741848,39.72025 C52.400138,39.72025 52.400138,39.72025 52.4260911,39.7459418 C52.4260911,39.7716336 52.4520442,39.7973254 52.4520442,39.7973254 L72.4956427,54.2566546 L72.4099973,62.0463998 Z M60.2379817,54.698553 L59.9005911,55.4436144 L59.4074817,55.9060663 L58.7327005,56.162984 L57.9022005,56.0345252 L56.9159817,55.6234568 L55.929763,54.929779 L54.9694973,53.9277999 L54.1909036,52.7716702 L53.5161223,51.4613898 L53.1268255,50.1768012 L52.9970598,48.9435961 L53.1268255,47.83885 L53.4642161,47.0937886 L53.9832786,46.6827202 L54.6580598,46.4514943 L55.4885598,46.5285696 L56.4228723,46.9396379 L57.4609973,47.607624 L58.3953098,48.6352949 L59.2258098,49.8684999 L59.8486848,51.1530885 L60.2379817,52.4633689 L60.3677473,53.6451904 L60.2379817,54.698553 Z M26.9920286,35.6609501 L26.654638,36.4317033 L26.1096223,36.9198469 L25.4867473,37.1253811 L24.6562473,37.0483058 L23.7219348,36.6629292 L22.7357161,35.892176 L21.7754505,34.9415805 L20.9449505,33.7340672 L20.2701692,32.4237868 L19.8808723,31.1391982 L19.7511067,29.9059932 L19.8808723,28.8526306 L20.218263,28.1075692 L20.7373255,27.6965008 L21.4380598,27.4652749 L22.294513,27.5423502 L23.2028723,27.9534185 L24.2150442,28.7241717 L25.1493567,29.6747673 L25.9539036,30.8822805 L26.6027317,32.1925609 L26.9920286,33.4771495 L27.1217942,34.658971 L26.9920286,35.6609501 Z M38.489263,1.61935238 L45.8028536,1.72468864 L21.2252442,15.7267043 L13.9635598,15.6727516 L38.489263,1.61935238 Z M68.221163,12.7515971 L43.2023505,27.0362223 L22.6786192,16.3946904 L47.6455255,2.11006522 L68.221163,12.7515971 Z M100.265486,38.5075984 L79.8585442,23.739968 L70.0119286,12.2377617 C69.9081161,12.1093028 69.8043036,12.0065357 69.674538,11.9294604 C69.674538,11.9294604 47.9310098,0.619942455 47.8271973,0.619942455 L38.5930755,0.154921384 L38.4114036,0.154921384 C38.2297317,0.154921384 38.074013,0.180613156 37.9182942,0.283380244 L11.6018255,15.3387586 C11.290388,15.4929092 11.1087161,15.8269022 11.1087161,16.1608953 L11.1087161,26.1549945 C11.1087161,26.437604 11.2125286,26.6688299 11.3942005,26.8486723 L16.7405442,31.9356432 C16.8184036,31.9870267 16.8703098,32.0384103 16.9481692,32.064102 L19.0763255,33.2973071 L19.6472942,34.4020533 C19.6732473,34.427745 19.6732473,34.4791286 19.6992005,34.5048204 L20.5816067,35.789409 C20.6075598,35.8407925 20.6594661,35.892176 20.7113723,35.9178678 L21.7235442,36.9455387 C21.7494973,36.9712305 21.7754505,36.9969222 21.8014036,37.022614 L22.8654817,37.8447507 C22.9433411,37.8961342 22.9952473,37.921826 23.0731067,37.9475178 L24.1371848,38.4099697 C24.2409973,38.4613532 24.3448098,38.487045 24.4486223,38.487045 L25.4607942,38.5898121 L25.5386536,38.5898121 C25.6424661,38.5898121 25.7462786,38.5641203 25.8500911,38.5384285 L26.6805911,38.2558191 C26.8103567,38.2301273 26.9401223,38.153052 27.0439348,38.0502849 L27.1996536,37.8961342 L52.3222786,52.33491 L52.8932473,53.4396562 C52.8932473,53.465348 52.9192005,53.5167315 52.9451536,53.5424233 L53.7756536,54.7756284 C53.8016067,54.8270119 53.853513,54.8527037 53.8794661,54.9040872 L54.891638,55.9574499 C54.9435442,55.9831416 54.9694973,56.0345252 55.0214036,56.060217 L56.0854817,56.8309701 C56.137388,56.8823537 56.2152473,56.9337372 56.2931067,56.959429 L57.383138,57.3961891 C57.4609973,57.4475726 57.5648098,57.4475726 57.6426692,57.4732644 L58.6548411,57.6017233 C58.7067473,57.627415 58.7327005,57.627415 58.7846067,57.627415 C58.8884192,57.627415 59.0181848,57.6017233 59.1219973,57.5503397 L60.0044036,57.2420385 C60.1082161,57.1906549 60.2379817,57.1392714 60.3158411,57.0365043 L60.4456067,56.9337372 L72.7733411,63.9732827 C72.9290598,64.050358 73.0847786,64.1017415 73.2664505,64.1017415 C73.4221692,64.1017415 73.6038411,64.050358 73.7595598,63.9732827 L87.6444817,56.0345252 C87.5406692,55.8032992 87.4368567,55.5463815 87.281138,55.3408473 C87.1254192,55.1610049 87.0475598,54.9554708 86.9956536,54.7499366 L73.7595598,62.3033175 L73.7932989,54.5649558 L99.1235489,40.0491047 L99.0898098,45.577974 C99.5569661,45.2696728 100.050075,44.9613715 100.569138,44.7044538 L100.602877,39.226968 C100.602877,38.9443585 100.473111,38.6874408 100.265486,38.5075984 L100.265486,38.5075984 Z" id="Fill-16" fill="#FFFFFF"></path>
                    </g>
                </g>
            </g>
        </g>
    </g>
</svg>