<?xml version="1.0" encoding="UTF-8"?>
<svg width="228px" height="167px" viewBox="0 0 228 167" version="1.1" xmlns="http://www.w3.org/2000/svg" xmlns:xlink="http://www.w3.org/1999/xlink">
    <!-- Generator: Sketch 46 (44423) - http://www.bohemiancoding.com/sketch -->
    <title>Group 25</title>
    <desc>Created with Sketch.</desc>
    <defs></defs>
    <g id="Page-1" stroke="none" stroke-width="1" fill="none" fill-rule="evenodd">
        <g id="Energia_fin_design" transform="translate(-798.000000, -4825.000000)">
            <g id="Poslugy" transform="translate(0.000000, 4582.000000)">
                <g id="Page-1" transform="translate(798.000000, 243.000000)">
                    <g id="Group-25">
                        <path d="M183.131886,88.6723006 L183.131886,140.615612 L65.5701988,140.615612 L86.4803803,128.642588 L87.1515713,130.577883 L95.3607537,134.912943 L98.0971478,136.048316 L101.324028,136.048316 L104.886503,134.603296 L109.404135,129.932785 L111.985639,125.417097 L113.586171,119.766036 L117.613317,122.346429 L121.485573,123.636626 L125.848315,122.346429 L129.56568,119.275762 L133.102341,114.940701 L136.01944,107.663993 L135.528954,100.74854 L132.302074,97.8326958 L128.274928,95.5877539 L161.034213,76.5444535 C161.034213,76.5444535 166.04233,79.4344936 166.842596,79.9247683 C167.642863,80.415043 168.623834,84.1308089 168.623834,84.1308089 L175.232484,88.0013984 L179.905006,89.7560657 L183.131886,88.6723006 Z" id="Fill-2" fill="#EA2729"></path>
                        <path d="M101.957271,124.268048 L102.008901,124.469319 C102.014064,124.495123 102.039879,124.505444 102.047623,124.528668 C102.047623,124.549311 102.037297,124.564793 102.037297,124.582856 C102.037297,124.693813 102.112161,124.768644 102.153465,124.864119 C102.168954,124.918307 102.143139,124.977656 102.168954,125.029264 C102.220584,125.129899 102.305774,125.196989 102.388382,125.26666 C102.403871,125.284723 102.398708,125.313107 102.416778,125.32859 C102.429686,125.341492 102.452919,125.336331 102.468408,125.351813 C102.483897,125.372456 102.478734,125.406001 102.496805,125.421484 C102.600065,125.52728 102.742048,125.542762 102.876286,125.578888 C102.894356,125.586629 102.909845,125.59437 102.930498,125.602111 C102.935661,125.604692 102.940824,125.609852 102.948568,125.609852 C102.956313,125.615013 102.964057,125.622754 102.971802,125.627915 C102.987291,125.635656 103.005361,125.633076 103.02085,125.640817 C103.036339,125.640817 103.049247,125.65888 103.067317,125.65888 C103.07248,125.65888 103.075062,125.653719 103.080225,125.653719 C103.160251,125.682103 103.240278,125.710488 103.320305,125.710488 C103.343538,125.710488 103.361609,125.692425 103.384842,125.689845 C103.41582,125.695005 103.441635,125.707907 103.472613,125.707907 C103.51908,125.707907 103.547477,125.664041 103.591363,125.65888 L103.599107,125.65888 C103.692041,125.65888 103.782394,125.645978 103.867583,125.617594 C103.883072,125.609852 103.888235,125.59179 103.906306,125.581468 C103.945029,125.576307 103.983751,125.576307 104.019892,125.565986 C104.035381,125.558245 104.040544,125.540182 104.058615,125.52986 C104.097337,125.524699 104.13606,125.524699 104.172201,125.514378 C104.244483,125.488574 104.275461,125.413743 104.334836,125.372456 C104.391629,125.349233 104.458748,125.354393 104.507796,125.320848 C104.523285,125.310527 104.520704,125.289884 104.536193,125.276982 C104.564589,125.26408 104.590405,125.246017 104.618801,125.227954 C104.631709,125.222793 104.649779,125.222793 104.660105,125.217633 C104.678176,125.204731 104.675594,125.178927 104.693665,125.166025 C104.747876,125.124738 104.807251,125.093774 104.851136,125.034425 L104.975049,124.86928 L105.08089,124.766064 C105.119613,124.727358 105.109287,124.67317 105.137683,124.629303 C105.176406,124.595758 105.222873,124.575115 105.253851,124.531248 L105.40616,124.329977 C105.426812,124.301593 105.413904,124.265468 105.431975,124.234503 C105.462953,124.200958 105.506838,124.180315 105.532653,124.144189 C105.545561,124.123546 105.532653,124.097742 105.545561,124.079679 C105.56105,124.048715 105.59461,124.033232 105.604936,124.004848 L105.705614,123.751969 C105.718522,123.715844 105.695288,123.68746 105.705614,123.651334 C105.723685,123.615209 105.759826,123.597146 105.772733,123.55844 C105.788222,123.514573 105.757244,123.475867 105.764989,123.42942 C105.772733,123.385554 105.814037,123.35975 105.814037,123.313303 L105.814037,123.207506 L105.842434,123.09655 L105.894064,122.895279 C105.932787,122.743036 105.878575,122.603695 105.829526,122.464353 C105.826945,122.430808 105.85276,122.405004 105.842434,122.371459 L105.814037,122.257922 L105.814037,122.255341 C105.814037,122.252761 105.811456,122.250181 105.811456,122.250181 L105.790804,122.170188 C105.785641,122.149545 105.764989,122.144385 105.759826,122.126322 C105.7495,122.069553 105.718522,122.025686 105.69787,121.971498 C105.682381,121.91731 105.708196,121.857961 105.682381,121.806353 C105.66431,121.770228 105.620425,121.765067 105.597191,121.736682 C105.581702,121.716039 105.563631,121.708298 105.545561,121.690235 C105.532653,121.674753 105.512001,121.664431 105.496512,121.648949 C105.465534,121.602502 105.470697,121.543153 105.434556,121.504447 C105.416486,121.486384 105.385508,121.491545 105.367437,121.476063 C105.35453,121.46058 105.359693,121.429616 105.344204,121.416714 C105.344204,121.414133 105.339041,121.414133 105.339041,121.411553 C105.336459,121.411553 105.339041,121.406392 105.336459,121.403812 C105.289992,121.357365 105.225454,121.365106 105.173824,121.336722 C105.101542,121.274792 105.018934,121.228345 104.931163,121.19222 C104.915674,121.181898 104.902766,121.163835 104.884696,121.156094 C104.830484,121.12771 104.77111,121.158674 104.711735,121.143192 C104.608475,121.099325 104.49747,121.076102 104.386466,121.076102 C104.296113,121.076102 104.234157,121.143192 104.151549,121.174157 C104.097337,121.179318 104.043126,121.148353 103.991496,121.163835 C103.963099,121.174157 103.955355,121.207702 103.92954,121.218023 C103.901143,121.223184 103.870165,121.202541 103.841768,121.212863 C103.75916,121.241247 103.728182,121.321239 103.661063,121.370267 C103.609433,121.39349 103.550058,121.375427 103.503591,121.406392 C103.475195,121.427035 103.475195,121.463161 103.44938,121.486384 C103.418402,121.501867 103.379679,121.488965 103.351283,121.507027 C103.322886,121.527671 103.322886,121.563796 103.297071,121.58702 C103.266093,121.602502 103.22737,121.5896 103.198974,121.607663 C103.17574,121.625726 103.17574,121.659271 103.152507,121.674753 C103.131855,121.692816 103.100877,121.685075 103.080225,121.705718 L102.927916,121.857961 L102.775607,122.010204 C102.742048,122.043749 102.752374,122.090196 102.726559,122.126322 C102.690418,122.159867 102.656858,122.190832 102.62588,122.229538 C102.620717,122.237279 102.60781,122.234698 102.600065,122.24502 L102.447756,122.446291 C102.432267,122.466934 102.442593,122.495318 102.429686,122.515961 C102.416778,122.536604 102.3858,122.539185 102.375474,122.562408 L102.274796,122.763679 L102.174117,122.96495 C102.161209,122.995914 102.176698,123.024299 102.168954,123.055263 C102.158628,123.083648 102.125068,123.09655 102.117324,123.124934 L102.065694,123.326205 C102.057949,123.35975 102.083764,123.385554 102.081183,123.421679 C102.07602,123.457805 102.04246,123.475867 102.04246,123.511993 L102.04246,123.599726 C102.039879,123.607467 102.034716,123.612628 102.032134,123.620369 C102.029553,123.630691 102.037297,123.641013 102.034716,123.653914 C102.032134,123.664236 102.019227,123.666816 102.016645,123.679718 L101.965015,123.880989 C101.949526,123.945499 101.993412,124.002268 101.993412,124.066777 C101.993412,124.131287 101.941782,124.203538 101.957271,124.268048" id="Fill-7" fill="#EB0029"></path>
                        <path d="M89.629815,63.5258547 L79.639395,69.305935 L81.1882973,70.1832686 L91.2045324,64.4289922 L89.629815,63.5258547 Z M131.837404,39.1669447 L124.325227,43.5020049 L122.95703,44.3019268 L124.531748,45.1792604 L125.87413,44.4051425 L128.478041,46.6657158 L129.30753,42.33396 L142.292494,33.128825 L131.837404,39.1669447 Z M202.183385,18.007722 L201.279858,17.4658395 L199.679326,18.394781 L200.608667,18.9108596 L202.183385,18.007722 Z M226.062296,38.315415 L208.688774,48.3789477 L189.534016,59.3972258 L186.513656,61.177697 L167.358897,72.1959752 L160.801877,76.0407607 L128.068408,94.8776297 L108.913649,105.921712 L105.89329,107.676379 L86.7385307,118.720461 L72.4628142,127.003523 L72.4628142,123.158737 L76.8771858,120.604148 L226.062296,34.4964333 L226.062296,38.315415 Z M211.373538,51.8624783 L212.328695,52.0173018 L213.206406,52.3011451 L213.955042,52.7656158 L214.626233,53.436518 L215.142534,54.2622438 L215.555575,55.3202049 L215.89117,56.5071857 L215.968615,57.8231861 L215.968615,59.2940101 L215.78791,60.8422459 L215.400685,62.4936975 L214.910199,64.0935411 L214.239008,65.7449926 L213.464557,67.3448363 L212.483585,68.8672682 L211.502614,70.3380922 L210.315122,71.7057005 L209.17926,72.8926813 L207.914323,73.9764463 L206.649386,74.827976 L205.48771,75.4988782 L204.222773,75.963349 L203.061096,76.2471922 L202.054309,76.324604 L201.047523,76.1955843 L200.221442,75.9117411 L199.44699,75.3956625 L198.749984,74.6989564 L198.233684,73.8732306 L197.820643,72.8410734 L197.562493,71.6798966 L197.407602,70.3122883 L197.407602,68.8672682 L197.665753,67.3706402 L198.001348,65.7191887 L198.517649,64.1193451 L199.214655,62.4678935 L199.989106,60.8422459 L200.918448,59.2682062 L201.951049,57.8231861 L203.086911,56.4555778 L204.222773,55.2427931 L205.461895,54.2364398 L206.726831,53.3333023 L207.965953,52.688204 L209.12763,52.1979294 L210.315122,51.9140861 L211.373538,51.8624783 Z M196.504076,65.2805219 C196.504076,65.3321298 196.478261,65.3321298 196.478261,65.3579337 L196.11685,67.086797 L195.8587,68.6608367 C195.8587,68.6866407 195.884515,68.7124446 195.884515,68.7382485 C195.884515,68.7554512 195.87591,69.2973337 195.8587,70.3638961 C195.884515,70.415504 195.8587,70.415504 195.8587,70.4413079 L196.01359,71.886328 C196.01359,71.9035306 196.022195,71.9379359 196.039405,71.9895437 L196.323371,73.2539363 C196.349186,73.2797402 196.349186,73.2797402 196.375001,73.3055442 C196.375001,73.3227468 196.426631,73.4775704 196.529891,73.7700149 L195.239139,73.0217009 L195.342399,72.273387 C195.342399,72.2561843 195.342399,72.2303804 195.342399,72.1959752 L195.394029,70.6219354 C195.368214,70.5703276 195.394029,70.5445236 195.394029,70.5187197 L195.239139,69.1253075 C195.239139,69.1081049 195.230534,69.0736996 195.213324,69.0220918 L194.929359,67.7060913 C194.903544,67.6802874 194.877729,67.6802874 194.877729,67.6544835 L194.438873,66.4416988 C194.413058,66.4158948 194.387243,66.4158948 194.361428,66.3900909 C194.361428,66.338483 194.361428,66.3126791 194.335613,66.2868752 L193.690237,65.3321298 C193.664422,65.3063258 193.638607,65.3063258 193.638607,65.2805219 C193.612792,65.2805219 193.612792,65.228914 193.586977,65.228914 L192.78671,64.4289922 C192.760895,64.4031883 192.73508,64.4031883 192.709265,64.3773844 C192.68345,64.3515804 192.68345,64.3257765 192.657635,64.2999726 L191.754109,63.75809 L190.024501,62.7517368 L190.308467,61.3067167 L190.566617,60.6100106 L209.076,49.9271835 L209.927896,50.4174582 L208.714589,50.7013014 C208.688774,50.7013014 208.662959,50.7271053 208.637144,50.7529093 L207.320577,51.2947918 C207.320577,51.2947918 206.873117,51.5184259 205.978195,51.965694 C205.95238,51.9914979 205.95238,52.0173018 205.926565,52.0173018 C205.90075,52.0431058 205.874935,52.0173018 205.84912,52.0431058 L204.532553,52.9978512 L203.215986,54.0816163 C203.198776,54.0816163 203.172961,54.0988189 203.138541,54.1332241 L201.925234,55.3976167 C201.899419,55.4492245 201.899419,55.4492245 201.873604,55.4492245 L200.711927,56.8684407 L199.627696,58.4166765 L198.646724,60.068128 C198.629514,60.0853306 198.612304,60.1111346 198.595094,60.1455398 L197.794828,61.7969913 L197.072007,63.5516586 L196.504076,65.2805219 Z M193.793497,72.1185634 L193.638607,73.3313481 L193.586977,73.6409952 L193.199751,75.2666428 L192.709265,76.8922904 L192.038074,78.543742 L191.263623,80.1177817 L190.334282,81.6918214 L189.327495,83.1368415 L188.140003,84.5044498 L186.978327,85.7172345 L185.71339,86.7751957 L184.525898,87.6525293 L183.286776,88.2976275 L182.073469,88.7620983 L180.937608,89.0459415 L179.879191,89.1233533 L178.924035,88.9685297 L177.994693,88.6846865 L177.246057,88.1944118 L176.626496,87.5751175 L176.08438,86.6719799 L175.645525,85.6398227 L175.361559,84.427038 L175.232484,83.1368415 L175.258299,81.6660175 L175.464819,80.0919778 L175.800415,78.517938 L176.342531,76.8664865 L177.013722,75.2666428 L177.813988,73.6409952 L178.743329,72.0927594 L179.750116,70.6219354 L180.885978,69.2543271 L182.021839,68.0673464 L183.286776,67.0351891 L184.551713,66.1836595 L185.81665,65.4611494 L186.978327,64.9966787 L188.114188,64.7386394 L189.19842,64.6870315 L190.153576,64.7644433 L190.979658,65.0998944 L191.754109,65.5901691 L192.451115,66.2610712 L193.019046,67.086797 L193.432086,68.1189542 L193.690237,69.3317389 L193.845127,70.6477394 L193.793497,72.1185634 Z M174.871073,76.3762118 L174.303143,78.0792712 C174.303143,78.0964738 174.303143,78.1222778 174.303143,78.156683 L173.941732,79.8339385 L173.735212,81.5111939 L173.657767,83.1368415 C173.683582,83.2142533 173.657767,83.2142533 173.657767,83.2400572 L173.812657,84.6592734 C173.812657,84.6592734 173.821262,84.6850773 173.838472,84.7366852 L174.148252,86.0526856 C174.148252,86.0784895 174.174067,86.1042935 174.174067,86.1300974 C174.191277,86.1473 174.251513,86.3021236 174.354773,86.5945681 L170.405072,84.2980184 L169.604806,83.7819398 L168.95943,83.0852337 L168.417314,82.233704 L167.978458,81.2531546 L167.694493,80.0661738 C167.694493,79.988762 167.720308,79.988762 167.720308,79.9629581 L167.617048,78.6727616 L167.617048,77.2793494 L167.797753,75.7311136 L168.133348,74.0796621 L168.391499,73.4087599 L186.900882,62.7259328 L187.752778,63.2162075 L186.565286,63.5000507 L186.513656,63.5516586 C186.513656,63.5516586 186.0748,63.7150835 185.197089,64.0419333 C185.197089,64.0419333 185.171274,64.0591359 185.119644,64.0935411 L183.751447,64.8418551 C183.725632,64.893463 183.725632,64.893463 183.699817,64.893463 L182.38325,65.7966005 C182.36604,65.7966005 181.909974,66.1578555 181.015053,66.8803656 C180.989238,66.9319734 180.963423,66.9319734 180.937608,66.9577774 L179.724301,68.2221699 L178.536809,69.66719 C178.510994,69.6929939 178.510994,69.6929939 178.485179,69.7187979 L177.426762,71.2154258 L176.445791,72.8926813 L175.61971,74.5957407 L174.896889,76.2988 C174.896889,76.3504079 174.871073,76.3504079 174.871073,76.3762118 Z M130.701542,98.3869642 L131.708328,98.5417878 L132.611855,98.825631 L133.334676,99.2901017 L134.005867,99.9610039 L134.547983,100.864141 L134.986838,101.844691 L135.270804,103.031672 L135.348249,104.373476 L135.348249,105.8443 L135.115914,107.41834 L134.831948,109.018183 L134.289832,110.618027 L133.618641,112.269479 L132.79256,113.869322 L131.889034,115.391754 L130.830617,116.836774 L129.694755,118.230186 L128.533079,119.442971 L127.345587,120.500932 L126.106465,121.352462 L124.815713,122.023364 L123.654036,122.487835 L122.49236,122.823286 L121.433943,122.84909 L120.427156,122.72007 L119.57526,122.410423 L118.826624,121.920148 L118.181248,121.223442 L117.613317,120.42352 L117.200277,119.417167 L116.864681,118.204382 L116.787236,116.862578 L116.838866,115.36595 L117.019571,113.895126 L117.355167,112.295282 L117.897283,110.618027 L118.542659,108.966576 L119.36874,107.366732 L120.298081,105.792692 L121.304868,104.347672 L122.440729,103.031672 L123.654036,101.767279 L124.841528,100.760926 L126.106465,99.8577882 L127.345587,99.2384939 L128.558894,98.7224153 L129.66894,98.438572 L130.701542,98.3869642 Z M115.88371,111.856616 C115.8665,111.873818 115.857895,111.899622 115.857895,111.934027 L115.496484,113.611283 L115.289964,115.236931 L115.289964,115.314342 L115.238334,116.862578 L115.238334,116.93999 L115.341594,118.410814 C115.341594,118.436618 115.367409,118.462422 115.367409,118.488226 L115.703004,119.855834 C115.720214,119.873037 115.728819,119.898841 115.728819,119.933246 L115.857895,120.294501 L114.618773,119.546187 L114.696218,118.797873 C114.696218,118.746265 114.722033,118.746265 114.722033,118.720461 L114.773663,117.172225 C114.773663,117.155023 114.765058,117.120617 114.747848,117.06901 L114.618773,115.649793 C114.618773,115.632591 114.610168,115.598186 114.592958,115.546578 L114.283177,114.230577 C114.231547,114.153165 114.257362,114.127362 114.257362,114.101558 L113.741061,112.940381 C113.741061,112.940381 113.723851,112.905976 113.689431,112.837165 L113.06987,111.88242 C113.06987,111.856616 113.044055,111.856616 113.01824,111.830812 C113.00103,111.830812 112.74288,111.546969 112.243789,110.979282 C112.217974,110.927674 112.166344,110.953478 112.140529,110.927674 C112.114714,110.90187 112.114714,110.850262 112.063084,110.824458 L111.159557,110.282576 L109.37832,109.276223 L109.6881,107.831203 L109.946251,107.134496 L128.455634,96.4516694 L129.30753,96.9419441 L128.145853,97.2257873 C128.120038,97.2257873 128.094223,97.2515913 128.068408,97.2515913 L126.700211,97.8192777 L125.332014,98.4901799 C125.280384,98.5675917 125.254569,98.5417878 125.228754,98.5675917 L123.912187,99.5223371 L122.621435,100.606102 C122.604225,100.623305 122.587015,100.640507 122.569805,100.65771 L121.304868,101.97371 C121.304868,101.97371 120.909037,102.438181 120.117376,103.367123 C120.091561,103.418731 120.065746,103.418731 120.065746,103.444534 L119.007329,104.941162 L118.026358,106.618418 C118.026358,106.618418 117.725182,107.186104 117.122831,108.321477 C117.122831,108.373085 117.097016,108.373085 117.097016,108.398889 L116.45164,110.101948 L115.88371,111.856616 Z M113.173131,118.643049 L113.01824,119.855834 L112.96661,120.165481 L112.631015,121.765325 L112.088899,123.416776 L111.417708,125.068228 L110.643257,126.693875 L109.713915,128.216307 L108.681314,129.661327 L107.545452,131.028936 L106.35796,132.24172 L105.144653,133.299682 L103.905532,134.151211 L102.66641,134.822113 L101.453103,135.286584 L100.291426,135.570427 L99.2330095,135.647839 L98.252038,135.51882 L97.4001417,135.234976 L96.6256906,134.718898 L96.0061296,134.099603 L95.4640138,133.196466 L95.0251582,132.138505 L94.7411927,131.003132 L94.6121175,129.661327 L94.6379326,128.190503 L94.8444529,126.616464 L95.1800484,125.042424 L95.7221642,123.44258 L96.3933552,121.791129 L97.1936214,120.165481 L98.0971478,118.591441 L99.1297494,117.146421 L100.239796,115.778813 L101.453103,114.64344 L102.66641,113.559675 L103.931347,112.682341 L105.144653,111.985635 L106.35796,111.521165 L107.493822,111.237321 L108.578054,111.211517 L109.58484,111.340537 L110.436736,111.62438 L111.185373,112.088851 L111.804933,112.759753 L112.347049,113.611283 L112.785905,114.64344 L113.06987,115.856225 L113.224761,117.172225 L113.173131,118.643049 Z M93.7085912,124.603757 L93.6827761,124.681169 L93.3213656,126.358424 L93.1148453,128.03568 L93.1148453,128.113092 L93.0632152,129.661327 C93.0890303,129.738739 93.0632152,129.738739 93.0632152,129.764543 L93.2181054,131.235367 C93.2439205,131.286975 93.2181054,131.312779 93.2439205,131.338583 L93.5278859,132.602975 C93.5278859,132.628779 93.579516,132.628779 93.579516,132.654583 L93.7602213,133.119054 L89.7847053,130.822504 L88.9844391,130.280622 L88.3390631,129.661327 L87.8227623,128.75819 L87.5387969,128.113092 L87.4097217,127.777641 L87.0741262,126.564856 L86.945051,125.223051 L86.9966811,123.803835 L87.1773863,122.2556 L87.5646119,120.655756 L87.7711322,119.907442 L106.280515,109.250419 L107.132411,109.740693 L105.94492,110.024537 C105.92771,110.024537 105.89329,110.033138 105.841659,110.050341 L104.550908,110.566419 C104.473462,110.618027 104.447647,110.592223 104.421832,110.618027 L103.13108,111.366341 C103.11387,111.366341 103.088055,111.374942 103.053635,111.392145 L101.762883,112.321086 C101.711253,112.372694 101.685438,112.34689 101.685438,112.372694 L100.420501,113.482263 C100.420501,113.499466 99.9902506,113.903727 99.1297494,114.695048 C99.1039343,114.77246 99.0781193,114.77246 99.0781193,114.77246 L97.9164425,116.191676 L96.8322109,117.739912 L95.8254244,119.391363 C95.8254244,119.442971 95.7996093,119.442971 95.7996093,119.468775 L94.9993431,121.120227 L94.276522,122.874894 L93.7085912,124.603757 Z M85.5252239,126.771287 C85.5510389,126.797091 85.5510389,126.822895 85.5768539,126.848699 C85.5768539,126.865902 85.6715091,127.270163 85.8608194,128.061484 L61.723758,141.943998 L61.5172377,141.634351 C61.5172377,141.582743 61.4656076,141.582743 61.4397926,141.582743 C61.4397926,141.556939 61.4397926,141.505331 61.4139775,141.479527 L60.6137113,140.679606 C60.5104512,140.627998 60.5104512,140.602194 60.4846361,140.57639 L59.5811098,139.982899 L56.2767848,138.099213 L62.394949,134.564074 L72.0755886,129.042033 L85.8866344,121.017011 L85.654299,121.920148 C85.654299,121.99756 85.628484,121.99756 85.628484,122.023364 L85.4477787,123.623208 L85.4219637,123.70062 L85.3703336,125.223051 C85.3875436,125.274659 85.4391737,125.790738 85.5252239,126.771287 Z M61.6204978,148.369177 L61.4139775,149.917413 L61.0267519,151.517256 L60.5620812,153.142904 L59.8650752,154.768551 L59.090624,156.394199 L58.1612826,157.942435 L57.1286811,159.413259 L55.9670043,160.780867 L54.8053276,161.993652 L53.5920207,163.051613 L52.3528989,163.903143 L51.0621469,164.574045 L49.9004702,165.038516 L48.7387934,165.322359 L47.6803768,165.399771 L46.7510354,165.270751 L45.8475091,164.9353 L45.124688,164.445025 L44.4276819,163.774123 L43.8597511,162.948397 L43.4725255,161.91624 L43.1885601,160.703455 L43.0336698,159.387455 L43.0852999,157.916631 L43.2918202,156.368395 L43.6274157,154.794355 L44.1437165,153.142904 L44.8407226,151.517256 L45.6151737,149.917413 L46.5445151,148.343373 L47.5771167,146.898353 L48.7387934,145.530744 L49.9004702,144.31796 L51.113777,143.259999 L52.3528989,142.382665 L53.5920207,141.737567 L54.8053276,141.273096 L55.9411893,140.989253 L56.9996059,140.911841 L57.9547623,141.066665 L58.8324736,141.324704 L59.5811098,141.840782 L60.2781158,142.511685 L60.7944166,143.363214 L61.2332723,144.395372 L61.5172377,145.582352 L61.6721279,146.898353 L61.6204978,148.369177 Z M42.6980743,152.652629 L42.1301435,154.355689 C42.1301435,154.407296 42.1043284,154.407296 42.1043284,154.4331 L41.7687329,156.084552 C41.7687329,156.13616 41.7429179,156.13616 41.7429179,156.161964 L41.5363976,157.761807 C41.5363976,157.77901 41.5191876,158.329494 41.4847675,159.413259 C41.5105825,159.490671 41.4847675,159.490671 41.4847675,159.516475 L41.6396577,160.935691 L41.6654728,161.013102 L41.9752532,162.329103 C41.9752532,162.346306 41.9838583,162.380711 42.0010683,162.432319 L42.1559585,162.819378 L38.2320726,160.574436 L37.4059914,160.032553 L36.7864304,159.413259 L36.2443146,158.510121 L35.9603492,157.865023 L35.7796439,157.45216 L35.5214935,156.316787 L35.3666033,155.000787 L35.4182334,153.529963 L35.6247537,151.930119 L35.9603492,150.356079 L36.2959447,149.401334 L36.502465,148.756236 L37.147841,147.182196 L37.173656,147.104784 L37.9739222,145.479137 L38.1804425,145.117882 L38.8774486,143.905097 L39.7293449,142.718116 L39.9100501,142.460077 L41.0200968,141.092468 L42.2334036,139.957096 L43.4467105,138.87333 L44.6858323,137.995997 L45.8991392,137.350899 L45.9765843,137.299291 L47.138261,136.83482 L47.4480415,136.757408 L48.2741227,136.550977 L49.3325393,136.525173 L50.3135108,136.654192 L51.1654071,136.96384 L55.5797787,139.492625 L54.3922869,139.776468 C54.3750769,139.776468 54.3406569,139.785069 54.2890268,139.802272 L52.9982748,140.318351 C52.9810648,140.318351 52.9466448,140.326952 52.8950147,140.344154 L51.5784477,141.066665 C51.5784477,141.066665 51.5526327,141.075266 51.5010026,141.092468 L50.2102506,142.02141 C50.1586206,142.073018 50.1328055,142.047214 50.1328055,142.073018 L48.8678686,143.182587 C48.8678686,143.182587 48.8506586,143.199789 48.8162385,143.234195 L47.6029317,144.472783 L46.3638099,145.917803 C46.3638099,145.969411 46.3379948,145.969411 46.3379948,145.995215 L45.2795782,147.491843 C45.2537632,147.543451 45.2537632,147.543451 45.2279481,147.543451 L44.2727917,149.169099 L43.4467105,150.872158 L42.7238894,152.575217 C42.7238894,152.626825 42.6980743,152.626825 42.6980743,152.652629 Z M33.843516,155.129806 L33.9725912,156.549023 C33.9984062,156.549023 33.9984062,156.574827 33.9984062,156.60063 L33.9984062,156.652238 L34.2823717,157.839219 L31.3394572,159.542278 L31.3394572,152.472002 L34.2823717,150.768942 L34.1016664,151.646276 L34.1016664,151.697884 L34.0758513,151.723688 L33.8951461,153.400943 L33.869331,153.452551 L33.817701,155.026591 C33.817701,155.052395 33.843516,155.052395 33.843516,155.078199 C33.843516,155.104002 33.817701,155.104002 33.843516,155.129806 Z M9.08689369,119.623599 L12.8300743,115.262734 L37.3285462,129.4807 L29.7905549,131.64823 L9.08689369,119.623599 Z M29.7905549,159.542278 L5.13719274,145.324313 L5.13719274,138.228232 L29.7905549,152.472002 L29.7905549,159.542278 Z M3.76899568,136.447761 C3.74318064,136.473565 3.69155056,136.473565 3.69155056,136.499369 C3.66573552,136.550977 3.69155056,136.576781 3.66573552,136.602585 C3.63992048,136.679996 3.61410545,136.731604 3.61410545,136.809016 C3.61410545,136.83482 3.56247537,136.860624 3.56247537,136.886428 L3.56247537,140.473174 L2.89128436,139.828076 L2.34916854,138.950742 L1.91031288,137.970193 L1.67797753,136.783212 L1.54890233,135.3898 L1.54890233,133.970584 L1.72960761,132.448152 L2.11683319,130.874112 L2.65894901,129.171053 L3.30432498,127.519601 L4.13040622,125.919758 L5.00811755,124.371522 L6.06653414,122.926502 L6.84098531,121.99756 L6.84098531,134.589878 L3.97551599,136.215526 C3.92388591,136.24133 3.92388591,136.292937 3.89807087,136.318741 C3.8464408,136.344545 3.79481072,136.396153 3.76899568,136.447761 Z M8.38988764,121.017011 L28.9902887,132.96423 L28.9902887,148.807844 L8.38988764,136.96384 L8.38988764,121.017011 Z M38.1804425,139.595841 L38.1804425,142.253645 L37.6125117,143.053567 C37.5866966,143.079371 37.6125117,143.079371 37.5866966,143.105175 L37.5608816,143.105175 L36.6057252,144.705019 L36.6057252,144.756627 C36.6057252,144.756627 36.5799101,144.756627 36.5799101,144.78243 L35.831274,146.304862 L30.539191,148.911059 L30.539191,141.814979 L38.1804425,139.595841 Z M30.539191,140.086115 L30.539191,132.990034 L38.2062576,130.770896 L38.2062576,137.866977 L30.539191,140.086115 Z M17.2186309,91.5489227 L42.0010683,105.8443 L38.3869628,128.293719 L13.6561556,113.946734 L17.2186309,91.5489227 Z M61.2332723,95.6775515 L61.2332723,133.454505 L54.8053276,137.144467 L51.759153,135.51882 L50.7523665,135.157565 L49.3325393,134.951133 L48.0676024,135.054349 L45.8475091,135.647839 L43.9113812,136.679996 L42.5431841,137.634742 L41.2008021,138.795919 C41.174987,138.795919 39.9100501,140.008703 39.9100501,140.008703 L39.7293449,140.240939 L39.7293449,129.583916 L43.5499706,105.921712 L61.2332723,95.6775515 Z M35.7796439,80.1177817 L60.4588211,94.3357472 L42.8529646,104.5283 L18.1737874,90.3103341 L35.7796439,80.1177817 Z M70.0620156,126.539052 L64.4343371,123.210345 L64.408522,123.210345 L62.7821746,122.281403 L62.7821746,118.51403 L70.9139118,123.158737 L70.9139118,127.029327 L70.0620156,126.539052 Z M30.9264166,72.6604459 L61.5430527,90.336138 L70.9139118,95.7549633 L70.9139118,121.378266 L62.7821746,116.733558 L62.7821746,94.3357472 C62.7305445,94.1809236 62.7305445,94.1293157 62.7047295,94.0519039 C62.6530994,93.9228843 62.6272844,93.9228843 62.6014693,93.8970804 C62.5498392,93.8454725 62.5240242,93.7938646 62.4723941,93.7680607 C62.4379741,93.7508581 53.6694659,88.6760852 36.1668695,78.543742 C35.9861642,78.4921341 35.8829041,78.4921341 35.7796439,78.4921341 C35.6763838,78.4921341 35.5989386,78.4921341 35.4956785,78.543742 L30.9264166,81.1499389 L30.9264166,72.6604459 Z M34.9793777,69.4349546 L58.3419879,82.9304101 L61.5430527,84.7624891 L62.9112498,85.5624109 L74.9410579,92.4778642 L71.688363,94.413159 L62.9112498,89.3555887 L61.5430527,88.5556668 L31.7008678,71.3186415 L34.9793777,69.4349546 Z M75.7155091,119.494579 L72.4628142,121.378266 L72.4628142,95.7549633 L72.5144443,95.7291594 L75.7155091,93.8454725 L75.7155091,119.494579 Z M227.301417,32.5353346 C227.284207,32.518132 221.355354,29.0862093 209.514856,22.2395665 L207.862693,21.2590172 L208.456439,23.4523513 L210.134417,24.4070967 L210.315122,32.5353346 L205.907114,35.3872528 C204.905763,39.4711311 203.148219,42.2230684 200.634482,43.6430647 C198.120746,45.063061 196.236248,44.39234 194.980989,41.6309017 L171.725168,54.8557342 C171.196011,58.4441321 169.448017,61.4152907 166.481186,63.76921 C162.030939,67.3000889 161.663886,60.8914749 160.40297,61.7426001 C159.945593,62.0513315 157.440134,63.2483059 152.88659,65.3335234 L142.512461,60.1092131 L144.061425,70.6477394 C141.909688,71.9478505 140.451769,73.0746222 139.687667,74.0280542 C138.405517,75.6278979 137.468284,79.1888402 134.367277,82.0530765 C132.100749,84.1465498 130.061361,83.6132686 128.249113,80.4532328 L105.527847,93.4509853 C103.699933,97.5193808 102.023299,100.162459 100.497946,101.38022 C97.5142017,103.762284 95.4155653,103.349422 94.2020373,100.141631 L86.4545653,104.27026 L77.2644114,99.0320624 L77.2644114,92.4778642 C77.1353362,92.0650013 77.0837061,92.0650013 77.0578911,92.0391974 C76.9546309,91.9359817 72.2390838,89.1835625 62.9112498,83.7819398 L61.5430527,82.9820179 L61.5430527,81.5369978 L66.8093207,78.4921341 L77.9872325,70.2348765 L67.5321417,76.2729961 L58.7292135,81.3563703 L35.3666033,67.8609149 L34.5921521,67.8609149 L29.7647398,70.6477394 C29.4291443,71.0864062 29.4291443,71.163818 29.4291443,71.2154258 C29.4119343,71.2498311 29.3947243,74.8623813 29.3775143,82.0530765 L27.7511668,83.0078219 L20.0841003,87.4202939 L16.2634745,89.6394319 C15.927879,90.0780987 15.902064,90.1039026 15.902064,90.1555105 C15.902064,90.1727131 14.6371271,98.0859183 12.1072532,113.895126 L7.20239585,119.030108 C6.91843042,119.468775 6.89261538,119.520383 6.89261538,119.597795 C6.89261538,119.614997 6.61725497,119.924644 6.06653414,120.526736 L4.87904235,121.920148 C4.87904235,121.937351 4.50042178,122.462031 3.74318064,123.494188 C3.72597061,123.528593 3.39898012,124.087679 2.76220916,125.171444 L1.91031288,126.874503 C1.89310285,126.908908 1.6607675,127.502399 1.21330683,128.654974 L0.645375972,130.409641 L0.23233535,132.138505 L0,133.841564 C0.0172100259,133.875969 0.0172100259,134.409251 0,135.441408 L0.154890233,136.989644 C0.154890233,136.989644 0.240940363,137.445513 0.413040622,138.357252 C0.4646707,138.426062 0.653980985,138.856128 0.980971478,139.647448 L1.62634745,140.731213 C1.71239758,140.817227 2.02217805,141.126874 2.55568885,141.660155 C2.60731893,141.677358 2.94291443,141.900992 3.56247537,142.331057 L3.58829041,145.76298 C3.76899568,146.227451 3.82062576,146.304862 3.89807087,146.35647 C3.9152809,146.373673 12.6751841,151.439844 30.1777805,161.554985 C30.7457113,161.632397 30.8489715,161.606593 30.9522316,161.554985 L34.9019326,159.258435 L35.4956785,160.264789 C35.5645186,160.350802 35.857089,160.651847 36.3733898,161.167926 C36.4422299,161.202331 36.7864304,161.443168 37.4059914,161.890436 L45.0988729,166.302908 L46.2863647,166.741575 C46.3896249,166.758778 46.8112705,166.827588 47.5513016,166.948006 L48.9453137,166.844791 C48.9625238,166.844791 49.4185895,166.741575 50.3135108,166.535144 C50.3479309,166.517941 50.8039965,166.337313 51.6817079,165.993261 C51.6817079,165.993261 52.1549836,165.743823 53.101535,165.244947 C53.1359551,165.227744 53.6006258,164.909496 54.4955471,164.290202 C54.5299672,164.255796 54.9774278,163.868737 55.8379291,163.129025 C55.8551392,163.09462 56.2767848,162.655953 57.102866,161.813024 L58.3419879,160.368004 L59.4262195,158.793964 L60.4330061,157.142513 L61.2590873,155.41365 C61.2590873,155.396447 61.5000277,154.828761 61.9819084,153.71059 L62.5240242,151.904315 L62.9370648,150.22706 C62.9198548,150.175452 62.9886949,149.607765 63.1435851,148.524 L63.1952152,146.872549 L63.040325,145.350117 L62.7305445,143.956705 C62.6961245,143.905097 62.6014693,143.681463 62.4465791,143.285803 L86.4545653,129.506504 L87.0483111,130.512857 C87.1171513,130.581668 87.4097217,130.882713 87.9260225,131.415995 C87.9948626,131.4504 88.3390631,131.682635 88.958624,132.112701 L96.6773207,136.576781 C96.7461608,136.593983 97.1247813,136.731604 97.8131824,136.989644 C97.8303924,136.989644 98.2692481,137.049853 99.1297494,137.170271 L100.497946,137.067055 L101.866143,136.757408 C101.866143,136.757408 102.339419,136.576781 103.285971,136.215526 L104.679983,135.467212 L106.04818,134.512466 C106.0826,134.478061 106.530061,134.091002 107.390562,133.351289 L108.681314,132.061093 C108.698524,132.026688 109.102959,131.536413 109.894621,130.590269 L111.004667,129.042033 L111.985639,127.442189 L112.81172,125.687522 L113.534541,123.932855 L114.128287,122.178188 L114.334807,121.146031 L118.852439,123.752227 C118.921279,123.786633 119.2999,123.924254 119.988301,124.16509 C120.091561,124.182293 120.530417,124.251103 121.304868,124.371522 L122.64725,124.319914 C122.69888,124.319914 123.180761,124.190894 124.092892,123.932855 C124.110102,123.915652 124.548958,123.743626 125.409459,123.416776 C125.443879,123.399574 125.92576,123.150136 126.855101,122.668462 C126.889521,122.634057 127.354192,122.315809 128.249113,121.713717 C128.249113,121.713717 128.696574,121.326658 129.591495,120.55254 L130.830617,119.23654 C130.847827,119.219337 131.252263,118.737664 132.043924,117.79152 L133.179786,116.243284 L134.134942,114.591832 C134.134942,114.57463 134.427513,114.015545 135.012653,112.914577 L135.735475,111.134106 L136.303405,109.405242 L136.639001,107.650575 L136.897151,105.947516 C136.897151,105.930313 136.897151,105.371228 136.897151,104.27026 L136.793891,102.799436 C136.776681,102.747828 136.673421,102.274756 136.484111,101.38022 C136.449691,101.328612 136.268985,100.915749 135.941995,100.141631 C135.924785,100.124429 135.709659,99.7545725 135.296619,99.0320624 C135.227779,98.9804546 134.917998,98.6622061 134.367277,98.077317 C134.298437,98.0429118 133.971447,97.827879 133.386306,97.4322188 L130.030351,95.496924 L161.189103,77.5631926 L166.223035,80.4532328 L166.481186,81.6144096 C166.532816,81.6832201 166.722126,82.1046843 167.049117,82.8788022 C167.049117,82.8960048 167.264242,83.2486585 167.694493,83.9367633 C167.746123,83.9883712 168.030088,84.2894171 168.546389,84.8399009 C168.615229,84.8915088 168.95943,85.1323454 169.57899,85.5624109 L177.297687,90.0264908 C177.400947,90.0608961 177.813988,90.1899157 178.536809,90.4135498 L179.724301,90.6199812 C179.827561,90.6371839 180.292232,90.6113799 181.118313,90.5425694 C181.135523,90.5425694 181.600194,90.4307524 182.512325,90.2071184 C182.529535,90.1899157 182.994206,90.0178895 183.906337,89.6910398 L185.300349,88.9427258 C185.317559,88.9255232 185.773625,88.6072747 186.668546,87.9879804 L188.010928,86.8268035 C188.028138,86.7923983 188.449784,86.3537315 189.275865,85.5108031 C189.275865,85.5108031 189.688906,85.0291297 190.514987,84.065783 C190.532197,84.0485804 190.902213,83.5239005 191.625034,82.4917433 L192.63182,80.8402917 L193.457901,79.1888402 L194.180723,77.408369 L194.722838,75.6278979 L194.980989,74.5957407 L199.472806,77.2277415 C199.558856,77.2621468 199.946081,77.3997677 200.634482,77.6406044 C200.720532,77.657807 201.159388,77.7266175 201.951049,77.8470358 L203.267616,77.7438201 L204.635813,77.434173 L206.081455,76.8922904 C206.133086,76.8578852 206.589151,76.6084472 207.449653,76.1439765 C207.484073,76.1095712 207.948743,75.7913228 208.843665,75.1892311 C208.860875,75.1720284 209.31694,74.7849695 210.211862,74.0280542 C210.229072,73.993649 210.650717,73.5549821 211.476799,72.7120538 L212.71592,71.2928376 C212.71592,71.275635 213.077331,70.7423538 213.800152,69.6929939 L214.806939,68.1189542 L215.658835,66.364287 C215.658835,66.3470843 215.899775,65.7621953 216.381656,64.6096197 L216.897957,62.8807564 L217.336812,61.1260892 C217.336812,61.1088865 217.405653,60.5412001 217.543333,59.4230298 C217.526123,59.3886245 217.526123,58.8209381 217.543333,57.7199704 L217.440073,56.3007542 C217.422863,56.2319438 217.293787,55.7502704 217.052847,54.8557342 C217.052847,54.8385315 216.897957,54.4256687 216.588176,53.6171455 C216.536546,53.5655377 216.312816,53.2042826 215.916985,52.5333804 C215.848145,52.4817726 215.54697,52.1635241 215.013459,51.578635 C214.927409,51.5442298 214.574603,51.3205957 213.955042,50.9077329 L210.650717,48.998242 L227.249787,39.39918 C227.533753,39.0121211 227.585383,38.9347093 227.585383,38.8314936 C227.585383,38.7970883 227.602593,36.8961988 227.637013,33.128825 C227.404678,32.6385504 227.353048,32.5869425 227.301417,32.5353346 Z M156.413321,25.0005871 L146.397086,30.7548635 L147.971803,31.658001 L157.962223,25.9037246 L156.413321,25.0005871 Z" id="Fill-9" fill="#EA2729"></path>
                        <path d="M50.4278714,153.804259 C50.4252899,153.87651 50.3762413,153.941019 50.3968934,154.015851 L50.4304529,154.152612 C50.4304529,154.162933 50.4252899,154.173255 50.4252899,154.183576 C50.4252899,154.27389 50.492409,154.335819 50.5233871,154.418392 C50.5285501,154.47258 50.497572,154.526769 50.5156426,154.578376 C50.5311316,154.627404 50.5750171,154.650627 50.6008322,154.691914 C50.6111582,154.722878 50.5956692,154.751263 50.6085767,154.782227 C50.6602068,154.882863 50.7453964,154.949953 50.8280045,155.019624 C50.8434936,155.037686 50.8383305,155.066071 50.8564011,155.081553 C50.8822161,155.107357 50.9183572,155.099616 50.9467537,155.120259 L50.9467537,155.122839 C50.9519167,155.128 50.9596612,155.12542 50.9648242,155.130581 C50.9880578,155.151224 51.0138728,155.166706 51.0371063,155.184769 C51.0500139,155.200251 51.0448509,155.220894 51.0577584,155.233796 C51.0809919,155.25702 51.1197145,155.251859 51.1455295,155.272502 C51.148111,155.272502 51.153274,155.277663 51.1558555,155.280243 C51.1636,155.282824 51.1713445,155.282824 51.1790891,155.285404 C51.2513712,155.334432 51.3288163,155.357655 51.4088429,155.380879 C51.4294949,155.38862 51.450147,155.398941 51.4682175,155.406683 C51.5172661,155.414424 51.5534071,155.460871 51.6024557,155.460871 C51.6205262,155.460871 51.6334337,155.442808 51.6515043,155.440228 C51.6876453,155.445388 51.7186234,155.460871 51.7547644,155.460871 C51.772835,155.460871 51.7857425,155.442808 51.803813,155.440228 C51.8399541,155.445388 51.8709321,155.460871 51.9070732,155.460871 C51.9251437,155.460871 51.9380512,155.442808 51.9561217,155.440228 C51.9922628,155.445388 52.0232408,155.460871 52.0593819,155.460871 C52.2168536,155.460871 52.3407658,155.375718 52.464678,155.293145 C52.5137266,155.287985 52.5627751,155.287985 52.6066607,155.272502 C52.6789428,155.246698 52.7099209,155.171867 52.7692955,155.130581 C52.8260885,155.107357 52.8932076,155.112518 52.9422562,155.078973 C52.9680713,155.06091 52.9654897,155.024784 52.9887233,155.009302 C53.0222828,154.991239 53.0635869,154.99898 53.0945649,154.978337 C53.1177985,154.960275 53.1177985,154.926729 53.141032,154.911247 C53.161684,154.893184 53.1926621,154.900926 53.2133141,154.880282 L53.3656229,154.728039 C53.4017639,154.689333 53.3940194,154.637725 53.4198344,154.593859 C53.432742,154.583537 53.453394,154.588698 53.4663015,154.575796 L53.6676588,154.374525 C53.6883108,154.351302 53.6805663,154.320337 53.6986369,154.299694 C53.7347779,154.253247 53.786408,154.227443 53.812223,154.175835 L53.9129017,153.974564 L54.0135803,153.773294 C54.0264878,153.74749 54.0109988,153.719106 54.0187433,153.693302 C54.0316509,153.662337 54.0626289,153.646855 54.0729549,153.613309 L54.1013515,153.497192 L54.1658891,153.370753 C54.1787966,153.344949 54.1633076,153.316564 54.1710521,153.29076 C54.1839596,153.259796 54.2149376,153.244313 54.2252636,153.210768 L54.2768937,153.009497 C54.2872197,152.965631 54.2562417,152.929505 54.2588232,152.883058 C54.2768937,152.813388 54.3001273,152.743717 54.3001273,152.671466 L54.3001273,152.470195 L54.3001273,152.268925 C54.3001273,152.248282 54.2820567,152.23796 54.2794752,152.219897 C54.2846382,152.183772 54.3001273,152.152807 54.3001273,152.116682 C54.3001273,152.005725 54.2252636,151.930893 54.1839596,151.835419 C54.1684706,151.78123 54.1942856,151.721881 54.1684706,151.670274 C54.1504,151.634148 54.1065145,151.628987 54.0832809,151.600603 C54.0703734,151.585121 54.0600474,151.574799 54.0445584,151.559317 C54.0264878,151.523191 54.0419769,151.474164 54.0161618,151.438038 C54.0135803,151.432877 54.0161618,151.425136 54.0161618,151.417395 C53.9826023,151.352885 53.9077387,151.337403 53.8612716,151.285795 C53.8432011,151.257411 53.827712,151.231607 53.80706,151.205803 C53.7502669,151.133552 53.6831478,151.097426 53.6057027,151.048399 C53.5927952,151.040658 53.5850507,151.027756 53.5695617,151.020014 C53.5592356,151.012273 53.5437466,151.022595 53.5334206,151.017434 C53.5308391,151.017434 53.5308391,151.017434 53.5282576,151.014854 C53.5076056,151.001952 53.4921165,150.981309 53.468883,150.968407 C53.448231,150.958085 53.4275789,150.970987 53.4069269,150.963246 C53.3862749,150.958085 53.3707859,150.945183 53.3501338,150.940022 C53.3346448,150.934862 53.3269003,150.914218 53.3088298,150.909058 L53.2288031,150.888414 C53.2262216,150.888414 53.2262216,150.885834 53.2236401,150.885834 L53.110054,150.85745 C53.0739129,150.847128 53.0455164,150.878093 53.0093753,150.872932 C52.9474192,150.85745 52.8854631,150.834226 52.8209255,150.834226 C52.7512249,150.834226 52.7073394,150.890995 52.6428018,150.906477 C52.6014977,150.901316 52.5601936,150.883254 52.5188896,150.883254 C52.3123693,150.883254 52.131664,150.970987 51.9922628,151.102587 C51.9767738,151.112909 51.9535402,151.102587 51.9380512,151.112909 C51.9096547,151.133552 51.9096547,151.169677 51.8838396,151.192901 C51.8528616,151.208383 51.814139,151.195481 51.7857425,151.213544 C51.7625089,151.231607 51.7625089,151.265152 51.7392754,151.280634 C51.7186234,151.298697 51.6876453,151.290956 51.6669933,151.311599 L51.5146846,151.463842 L51.3623758,151.616085 L51.2100671,151.768328 L51.0577584,151.920572 C51.0267803,151.954117 51.0345248,151.997983 51.0087098,152.034109 C50.9828948,152.072815 50.9312647,152.080556 50.9106127,152.119262 L50.809934,152.320533 L50.7092554,152.521803 L50.6085767,152.723074 C50.5930877,152.759199 50.6111582,152.792744 50.6008322,152.82887 C50.5724356,152.877897 50.5362946,152.924345 50.5156426,152.978533 C50.5104796,152.996596 50.5233871,153.012078 50.5182241,153.032721 C50.5130611,153.048203 50.4949905,153.055945 50.4898275,153.074007 L50.4381974,153.326886 C50.4330344,153.35527 50.456268,153.378494 50.4536865,153.401717 C50.451105,153.432682 50.4227084,153.448164 50.4227084,153.476549 L50.4227084,153.564282 C50.4201269,153.572023 50.4149639,153.577184 50.4123824,153.584925 C50.3865674,153.657176 50.4304529,153.729427 50.4278714,153.804259 L50.4278714,153.804259 Z" id="Fill-11" fill="#EB0029"></path>
                        <path d="M124.119481,111.482201 C124.119481,111.572514 124.186601,111.634444 124.217579,111.717016 C124.222742,111.771205 124.191764,111.825393 124.207253,111.877001 C124.217579,111.907966 124.248557,111.920867 124.261464,111.949252 C124.266627,111.975056 124.248557,112.00344 124.256301,112.026664 C124.274372,112.075691 124.315676,112.098915 124.341491,112.140201 C124.351817,112.171166 124.336328,112.19955 124.349235,112.230515 C124.403447,112.33115 124.486055,112.39824 124.568663,112.467911 C124.584152,112.485974 124.578989,112.514358 124.59706,112.52984 C124.612549,112.545323 124.635782,112.537581 124.651271,112.553064 C124.677086,112.586609 124.66676,112.620154 124.695157,112.653699 C124.762276,112.707887 124.850047,112.707887 124.930074,112.744013 C124.999774,112.795621 125.072056,112.842068 125.154665,112.870452 C125.234691,112.896256 125.317299,112.911738 125.399907,112.911738 C125.415396,112.911738 125.425722,112.896256 125.441211,112.896256 C125.461863,112.898836 125.482516,112.909158 125.500586,112.909158 C125.518657,112.909158 125.531564,112.891095 125.549635,112.888515 C125.585776,112.893676 125.616754,112.909158 125.652895,112.909158 C125.673547,112.909158 125.683873,112.891095 125.701943,112.888515 C125.738084,112.893676 125.769062,112.909158 125.805203,112.909158 C125.851671,112.909158 125.880067,112.865291 125.923953,112.860131 L125.931697,112.860131 C126.02205,112.860131 126.114984,112.847229 126.200174,112.818844 C126.272456,112.79304 126.303434,112.718209 126.362808,112.676923 C126.41702,112.653699 126.484139,112.65886 126.533188,112.625315 C126.559003,112.609832 126.559003,112.576287 126.579655,112.560805 L126.755197,112.473072 C126.796501,112.449848 126.804245,112.400821 126.840387,112.375017 C126.876528,112.349213 126.920413,112.359534 126.953973,112.325989 L127.106281,112.173746 C127.145004,112.13504 127.134678,112.080852 127.163075,112.036985 C127.199216,112.00344 127.248264,111.982797 127.279242,111.93893 L127.431551,111.73766 C127.452203,111.709275 127.439295,111.67315 127.457366,111.642185 C127.488344,111.60864 127.53223,111.587997 127.558045,111.551871 C127.570952,111.531228 127.558045,111.505424 127.570952,111.487361 C127.586441,111.456397 127.620001,111.440914 127.630327,111.41253 L127.723261,111.182875 C127.731005,111.169973 127.749076,111.164812 127.759402,111.14933 C127.780054,111.115785 127.764565,111.074499 127.780054,111.038373 C127.805869,110.989346 127.849755,110.963542 127.865244,110.906773 L127.916874,110.705502 C127.916874,110.700342 127.911711,110.695181 127.914292,110.68744 C127.916874,110.679698 127.922037,110.677118 127.924618,110.669377 L127.976248,110.416498 C127.97883,110.411338 127.971085,110.406177 127.973667,110.401016 C127.97883,110.382953 127.999482,110.375212 128.004645,110.357149 C128.020134,110.313283 127.989156,110.274577 127.994319,110.22813 C128.002063,110.184263 128.043367,110.158459 128.043367,110.112012 L128.043367,109.910741 C128.043367,109.890098 128.025297,109.879777 128.022715,109.861714 C128.027878,109.825588 128.043367,109.794624 128.043367,109.758498 C128.043367,109.668184 127.976248,109.606255 127.94527,109.523682 C127.940107,109.469494 127.971085,109.415306 127.955596,109.363698 C127.94527,109.335314 127.911711,109.324992 127.901385,109.301769 C127.896222,109.270804 127.914292,109.24242 127.906548,109.214035 C127.891059,109.170169 127.844592,109.157267 127.82394,109.118561 C127.811032,109.085016 127.831684,109.04631 127.813614,109.010184 C127.787798,108.958576 127.728424,108.950835 127.692283,108.909549 C127.674212,108.865682 127.689701,108.814074 127.663886,108.777949 C127.632908,108.731502 127.573534,108.726341 127.534811,108.692796 C127.462529,108.599902 127.372176,108.517329 127.266335,108.463141 C127.250846,108.4554 127.237938,108.465721 127.225031,108.46056 C127.201797,108.445078 127.186308,108.424435 127.165656,108.411533 C127.111444,108.383149 127.049488,108.414113 126.992695,108.398631 C126.889435,108.354764 126.77843,108.331541 126.667426,108.331541 C126.654518,108.331541 126.646774,108.344443 126.633866,108.344443 C126.610633,108.344443 126.589981,108.331541 126.566747,108.331541 C126.546095,108.331541 126.535769,108.349604 126.517699,108.352184 C126.481558,108.347023 126.450579,108.331541 126.414438,108.331541 C126.378297,108.331541 126.360227,108.365086 126.324086,108.370247 C126.290526,108.375407 126.264711,108.344443 126.22857,108.354764 L126.027213,108.406372 C125.877486,108.442498 125.784551,108.556035 125.683873,108.659251 C125.652895,108.682474 125.611591,108.679894 125.583194,108.705698 C125.567705,108.716019 125.547053,108.705698 125.531564,108.716019 C125.500586,108.736663 125.500586,108.772788 125.477352,108.796012 C125.446374,108.811494 125.410233,108.798592 125.381837,108.816655 C125.356022,108.834717 125.356022,108.868263 125.33537,108.883745 C125.312136,108.901808 125.281158,108.894066 125.263088,108.91471 L125.110779,109.066953 L124.95847,109.219196 C124.924911,109.252741 124.935237,109.296608 124.909422,109.332733 C124.883607,109.371439 124.834558,109.37918 124.811324,109.417886 L124.762276,109.513361 L124.705483,109.570129 C124.671923,109.603675 124.682249,109.647541 124.656434,109.683667 C124.628038,109.722373 124.581571,109.730114 124.558337,109.76882 L124.457658,109.97009 L124.35698,110.171361 C124.344072,110.202326 124.359561,110.23071 124.349235,110.261675 C124.338909,110.290059 124.30535,110.302961 124.297605,110.331345 L124.245975,110.532616 L124.194345,110.733887 L124.142715,110.935157 C124.132389,110.979024 124.163367,111.01515 124.163367,111.061597 C124.142715,111.131267 124.119481,111.200938 124.119481,111.273189 L124.119481,111.482201 Z" id="Fill-13" fill="#EB0029"></path>
                        <path d="M208.637919,63.2030475 C208.643082,63.166922 208.658571,63.1359573 208.658571,63.0998318 C208.658571,63.0637063 208.625011,63.0456435 208.619848,63.009518 C208.614685,62.9733925 208.645663,62.9450082 208.635337,62.9114631 L208.583707,62.7101924 C208.552729,62.5914944 208.454632,62.5244041 208.38235,62.4366708 C208.372024,62.4082864 208.387513,62.3773217 208.374605,62.3489374 C208.356535,62.3128119 208.312649,62.3076511 208.291997,62.2766864 C208.284253,62.2689452 208.286834,62.2560433 208.27909,62.2483021 C208.268764,62.2379805 208.250693,62.2431413 208.240367,62.2328197 C208.235204,62.2250785 208.224878,62.2224982 208.219715,62.214757 C208.188737,62.1760511 208.162922,62.1399256 208.129363,62.1063805 C208.126781,62.1063805 208.126781,62.1038001 208.126781,62.1038001 L208.1242,62.1038001 C208.064825,62.0470314 208.002869,61.9902628 207.928005,61.9515569 C207.891864,61.9360745 207.858305,61.9541373 207.822164,61.9438157 C207.788604,61.9231726 207.757626,61.899949 207.721485,61.8870471 C207.703414,61.8767255 207.690507,61.8612431 207.675018,61.8509216 C207.620806,61.8225372 207.55885,61.8509216 207.502057,61.8380196 C207.398797,61.7941529 207.287792,61.7709294 207.176788,61.7709294 C207.140647,61.7709294 207.119995,61.8044745 207.086435,61.8096353 C207.083853,61.8096353 207.081272,61.8096353 207.081272,61.8122157 C207.029642,61.8173764 206.990919,61.8509216 206.944452,61.8689843 C206.890241,61.8741451 206.833448,61.8431804 206.781817,61.8612431 C206.753421,61.8689843 206.743095,61.9025294 206.719861,61.9154314 C206.688883,61.9205922 206.660487,61.9025294 206.63209,61.912851 C206.603694,61.9205922 206.593368,61.9541373 206.570134,61.9670392 C206.539156,61.9722 206.51076,61.9541373 206.482363,61.9644589 C206.412662,61.9876824 206.384266,62.0599334 206.324891,62.0986393 C206.291332,62.1089609 206.260354,62.0908981 206.226794,62.1063805 L206.025437,62.2070158 C205.971225,62.2354001 205.955736,62.3024903 205.909269,62.3437766 C205.857639,62.3824825 205.793102,62.3824825 205.751797,62.4366708 L205.599489,62.6379414 C205.584,62.6560042 205.594326,62.6818081 205.584,62.7024513 C205.578837,62.7050316 205.573674,62.7050316 205.571092,62.707612 L205.418783,62.8598552 C205.385224,62.8908199 205.39555,62.9398474 205.369735,62.9733925 C205.34392,63.009518 205.294871,63.0172592 205.271638,63.0585455 L205.170959,63.2598161 L205.07028,63.4610868 L204.969602,63.6623574 C204.956694,63.6907418 204.972183,63.7217065 204.961857,63.7526712 C204.951531,63.7810555 204.917972,63.7913771 204.910227,63.8223418 L204.858597,64.0236125 L204.806967,64.2248831 L204.755337,64.4261538 C204.745011,64.4700205 204.775989,64.5087264 204.775989,64.552593 C204.755337,64.6222636 204.732103,64.6919343 204.732103,64.7667657 L204.732103,64.9680363 C204.732103,65.0609305 204.799223,65.1202795 204.830201,65.2028521 C204.835364,65.2570403 204.804386,65.3112286 204.819875,65.3628364 C204.830201,65.3938012 204.861179,65.4067031 204.874086,65.4350874 C204.879249,65.4608914 204.861179,65.4892757 204.868923,65.5124992 C204.886994,65.5615267 204.928298,65.5847502 204.954113,65.6260365 C204.964439,65.6544209 204.94895,65.687966 204.961857,65.7163503 C205.016069,65.819566 205.098677,65.8866562 205.181285,65.9537464 C205.196774,65.9718092 205.191611,66.0027739 205.209682,66.0182563 C205.230334,66.0388994 205.261312,66.0311582 205.279382,66.0466406 C205.318105,66.0956681 205.356827,66.121472 205.405876,66.1575975 C205.408457,66.1601779 205.408457,66.1653387 205.411039,66.1679191 C205.434272,66.1911426 205.472995,66.1834014 205.49881,66.2040446 C205.503973,66.206625 205.506555,66.2092053 205.509136,66.2117857 C205.519462,66.2143661 205.524625,66.2143661 205.534951,66.2169465 C205.604652,66.265974 205.684678,66.2891975 205.764705,66.3124211 C205.785357,66.3201622 205.806009,66.3304838 205.82408,66.338225 C205.873128,66.3459662 205.909269,66.3924133 205.958318,66.3924133 C205.976388,66.3924133 205.989296,66.3743505 206.007366,66.3717701 C206.043507,66.3769309 206.074485,66.3924133 206.110626,66.3924133 C206.123534,66.3924133 206.131279,66.3795113 206.144186,66.3795113 C206.16742,66.3820917 206.188072,66.3924133 206.211305,66.3924133 C206.231957,66.3924133 206.242283,66.3743505 206.260354,66.3717701 C206.293913,66.3769309 206.32231,66.3898329 206.353288,66.3898329 C206.358451,66.3898329 206.361032,66.3924133 206.363614,66.3924133 C206.422988,66.3924133 206.490108,66.3846721 206.549482,66.3691897 L206.750839,66.3175819 C206.841192,66.2943583 206.887659,66.2117857 206.95736,66.1627583 C207.019316,66.1395347 207.091598,66.1446955 207.143228,66.10857 C207.169043,66.0930877 207.169043,66.0569622 207.192277,66.0388994 C207.225836,66.0234171 207.264559,66.0285778 207.295537,66.0079347 C207.321352,65.9924523 207.321352,65.9563268 207.344585,65.9382641 C207.378145,65.9227817 207.416867,65.9279425 207.447845,65.9072994 C207.473661,65.891817 207.473661,65.8582719 207.494313,65.8402091 C207.517546,65.8221464 207.548524,65.8298876 207.566595,65.8092444 L207.718903,65.6570012 C207.726648,65.6492601 207.724066,65.6337777 207.731811,65.6234561 C207.752463,65.6053934 207.778278,65.5950718 207.791186,65.5744287 L207.943494,65.373158 C207.958983,65.3550953 207.948657,65.3292913 207.958983,65.3086482 C207.964146,65.3060678 207.969309,65.3060678 207.971891,65.3034874 L208.1242,65.1512442 C208.152596,65.1228599 208.14227,65.084154 208.165504,65.0531893 C208.209389,64.999001 208.268764,64.9602951 208.29716,64.8932049 L208.397839,64.6403264 C208.405583,64.6196833 208.390094,64.5964597 208.395257,64.5758166 C208.405583,64.565495 208.415909,64.5603342 208.423654,64.5474323 L208.524333,64.3461616 C208.539822,64.3151969 208.521751,64.2816518 208.532077,64.2481067 C208.544985,64.2094008 208.583707,64.191338 208.58887,64.1500517 L208.6405,63.8997536 C208.648245,63.8584673 208.617267,63.8275026 208.617267,63.7887967 C208.632756,63.7268673 208.655989,63.6623574 208.655989,63.5978476 L208.655989,63.396577 C208.655989,63.3785142 208.637919,63.3656123 208.635337,63.3475495 C208.6405,63.311424 208.655989,63.2804593 208.655989,63.2443338 C208.658571,63.2314318 208.6405,63.2211102 208.637919,63.2030475 L208.637919,63.2030475 Z" id="Fill-15" fill="#EB0029"></path>
                        <path d="M186.473126,75.8495536 C186.473126,75.7566595 186.406007,75.6973104 186.375029,75.6147379 C186.369866,75.5605496 186.400844,75.5063614 186.385355,75.4547535 C186.349214,75.3566986 186.261443,75.3154123 186.199487,75.2405809 C186.189161,75.2121965 186.20465,75.1786514 186.191742,75.1502671 C186.173672,75.1141416 186.129786,75.1089808 186.109134,75.0780161 C186.10139,75.0702749 186.103971,75.057373 186.096227,75.0496318 C186.085901,75.0393102 186.06783,75.044471 186.057504,75.0341494 C186.052341,75.0264083 186.042015,75.0238279 186.036852,75.0160867 C186.011037,74.985122 185.992967,74.9541572 185.967152,74.9257729 C185.961989,74.9206121 185.959407,74.9102906 185.951663,74.9025494 C185.9465,74.8948082 185.931011,74.899969 185.925848,74.8922278 C185.869054,74.84062 185.812261,74.7864317 185.745142,74.7528866 C185.739979,74.7503062 185.732235,74.7528866 185.727072,74.7528866 C185.709001,74.7374042 185.693512,74.7167611 185.67286,74.7012787 C185.62123,74.6677336 185.564437,74.6909572 185.512807,74.6677336 C185.396639,74.610965 185.275309,74.5696787 185.143652,74.5696787 C185.128163,74.5696787 185.117837,74.585161 185.102348,74.585161 L185.084277,74.585161 C185.050718,74.5825807 185.022321,74.5670983 184.991343,74.5670983 C184.970691,74.5670983 184.960365,74.585161 184.942295,74.5877414 C184.906154,74.5825807 184.875175,74.5670983 184.839034,74.5670983 C184.658329,74.5670983 184.503439,74.6548317 184.369201,74.7606278 C184.343386,74.7657886 184.314989,74.7477258 184.291756,74.7580474 C184.209147,74.7838513 184.178169,74.8664239 184.113632,74.9154514 C184.062002,74.9360945 184.002627,74.9206121 183.95616,74.9515769 C183.948416,74.9541572 183.948416,74.9644788 183.943253,74.9696396 C183.935508,74.9748004 183.925182,74.9696396 183.920019,74.9748004 L183.718662,75.1270436 C183.674776,75.1580083 183.677358,75.2147769 183.643798,75.2534828 C183.610239,75.2767064 183.563772,75.2715456 183.535375,75.3025103 L183.383066,75.4547535 C183.370159,75.4676555 183.375322,75.490879 183.359833,75.5063614 C183.346925,75.5218437 183.32111,75.5192633 183.308203,75.5373261 L183.155894,75.7385967 C183.140405,75.7592399 183.150731,75.7876242 183.137823,75.8082673 C183.124916,75.8289105 183.093938,75.8314909 183.083612,75.8572948 L182.982933,76.0585655 L182.882254,76.2598361 L182.781576,76.4611068 C182.768668,76.4894911 182.784157,76.5204558 182.773831,76.5488401 C182.763505,76.5772245 182.729946,76.5901264 182.722201,76.6185107 L182.670571,76.8197814 L182.618941,77.021052 C182.608615,77.0649187 182.639593,77.1036246 182.639593,77.1474913 C182.63443,77.1578129 182.621523,77.1603933 182.618941,77.1732952 L182.567311,77.3745659 C182.551822,77.4416561 182.595708,77.4958444 182.595708,77.5629346 C182.595708,77.6300248 182.551822,77.6842131 182.567311,77.7513033 L182.603452,77.8854837 C182.600871,77.8958053 182.595708,77.9061268 182.595708,77.9164484 C182.595708,78.0248249 182.670571,78.1022367 182.711875,78.1977113 C182.727364,78.2518995 182.701549,78.3112486 182.727364,78.3628564 C182.729946,78.3680172 182.735109,78.3680172 182.73769,78.373178 C182.740272,78.3860799 182.732527,78.3989819 182.735109,78.4118839 C182.768668,78.5073584 182.84095,78.5641271 182.900325,78.6363781 C182.918396,78.6725036 182.905488,78.7163703 182.92614,78.747335 C183.01133,78.8763546 183.135242,78.9615076 183.26948,79.0156958 C183.290132,79.0285978 183.305621,79.049241 183.323692,79.0595625 C183.341762,79.0673037 183.359833,79.0647233 183.377903,79.0724645 C183.395974,79.0827861 183.408881,79.1008488 183.426952,79.1111704 C183.537956,79.1653586 183.659287,79.193743 183.775455,79.193743 C183.798688,79.193743 183.816759,79.1782606 183.839992,79.1756802 C183.87097,79.1782606 183.894204,79.1911626 183.925182,79.1911626 C183.945834,79.1911626 183.95616,79.1730998 183.974231,79.1705194 C184.010372,79.1756802 184.04135,79.1911626 184.077491,79.1911626 C184.126539,79.1911626 184.152354,79.1472959 184.198821,79.1395547 L184.379527,79.1395547 C184.57314,79.1395547 184.743519,79.0518213 184.877757,78.9331233 C184.903572,78.9202213 184.93455,78.9253821 184.957784,78.9098997 C184.983599,78.8944174 184.983599,78.8582919 185.006832,78.8402291 C185.040392,78.8247468 185.079114,78.8299075 185.110092,78.8092644 C185.135907,78.793782 185.135907,78.7602369 185.156559,78.7421742 C185.179793,78.7241114 185.210771,78.7318526 185.228842,78.7112095 L185.368243,78.5744486 L185.373406,78.5692879 C185.386313,78.5641271 185.404384,78.5667075 185.41471,78.5589663 C185.435362,78.5486447 185.43278,78.5228408 185.450851,78.5099388 C185.505062,78.4686525 185.564437,78.4376878 185.608323,78.3809192 L185.760631,78.1796485 C185.781283,78.1538446 185.765794,78.1202995 185.781283,78.0944955 C185.807098,78.0686916 185.840658,78.05837 185.86131,78.0299857 L186.013619,77.8287151 C186.034271,77.8003307 186.021363,77.7616248 186.039434,77.7306601 C186.070412,77.697115 186.114297,77.6764719 186.140112,77.6403464 C186.165927,77.5990601 186.145275,77.552613 186.165927,77.5113267 C186.191742,77.4571385 186.240791,77.4235934 186.253699,77.3616639 L186.276932,77.250707 C186.282095,77.2455462 186.287258,77.2429658 186.292421,77.2378051 C186.313073,77.20426 186.297584,77.1629737 186.313073,77.1268482 C186.338888,77.0778207 186.382774,77.0520168 186.398263,76.9978285 L186.449893,76.7965579 C186.460219,76.7630127 186.429241,76.7346284 186.434404,76.6985029 C186.439567,76.6649578 186.473126,76.6443147 186.473126,76.6081892 L186.473126,76.3553107 C186.473126,76.3372479 186.455056,76.3243459 186.452474,76.3062832 C186.457637,76.2701577 186.473126,76.239193 186.473126,76.2030675 L186.473126,76.0017968 C186.473126,75.9837341 186.455056,75.9708321 186.452474,75.9527693 C186.460219,75.9192242 186.473126,75.8856791 186.473126,75.8495536" id="Fill-17" fill="#EB0029"></path>
                        <path d="M140.950112,53.4107141 C140.898482,53.1784787 140.743592,52.9978512 140.537072,52.8688315 L129.384975,46.443653 L129.384975,47.9918888 L139.19469,53.6429494 L136.17433,55.3718128 L137.103672,55.9136953 L139.814251,54.3396556 L140.846852,58.0812254 L142.52483,59.0617748 L140.950112,53.4107141 Z M143.066946,70.9057787 L139.540611,72.910744 L139.398629,72.0205084 C139.398629,72.0205084 138.730019,70.6296766 138.730019,70.6038727 L137.777444,69.7110567 C137.751629,69.6852528 136.331802,69.3885076 136.280172,69.3885076 L134.821622,69.5717155 C134.821622,69.5717155 133.308861,70.198751 133.283046,70.198751 C133.283046,70.198751 131.852893,71.2438101 131.827078,71.2696141 L130.611189,72.6862498 L129.619892,74.2654504 L128.788648,76.0459215 L128.262021,77.9683143 L128.262021,79.3849501 L105.180794,92.784931 L105.090442,91.9540444 L104.421832,90.5683734 L103.489909,89.7168437 L102.20432,89.2420514 L100.725119,89.2214082 L99.1684719,89.6368515 C99.1684719,89.6368515 97.5034019,90.8109303 97.4775869,90.8109303 C97.4775869,90.8367342 96.0990638,92.095966 96.0990638,92.095966 L95.0561362,93.8970804 C95.0303212,93.8970804 94.3075001,95.6878731 94.3075001,95.6878731 C94.3075001,95.6878731 93.7602213,97.656713 93.7602213,97.6825169 L93.7008467,99.3804155 L87.0095886,103.276809 L87.0689632,94.8673081 L103.466676,82.7497826 C103.518306,82.6981747 103.544121,82.6723708 103.595751,82.6207629 L106.2547,73.718407 L135.76129,56.6878132 L137.103672,55.9136953 L139.814251,54.3396556 L140.846852,58.0812254 L141.363153,59.9391084 L143.066946,66.0546398 L143.066946,70.9057787 Z M138.368608,75.2924468 L137.903938,76.8922904 L137.129487,78.4921341 L136.148515,79.8597424 L135.012653,81.0725271 L133.799347,81.9756647 L132.63767,82.4401354 L131.605068,82.5691551 L130.753172,82.2853118 L130.133611,81.7176254 L129.694755,80.7628799 L129.539865,79.4726834 L129.694755,78.0276634 L130.185241,76.4020158 L130.908062,74.827976 L131.889034,73.4603677 L133.05071,72.2217791 L134.264017,71.3444455 L135.425694,70.8025629 L136.458296,70.7251511 L137.310192,71.0089944 L137.955568,71.6024848 L138.368608,72.5056223 L138.523499,73.7700149 L138.368608,75.2924468 Z M103.982977,95.135669 L103.492491,96.7355127 L102.743855,98.2837485 L101.762883,99.7545725 L100.601207,100.915749 L99.3878997,101.844691 L98.226223,102.309162 L97.2194365,102.412377 L96.3675402,102.128534 L95.7221642,101.560848 L95.3091236,100.631906 L95.1542334,99.3159057 L95.3091236,97.8708856 L95.7479793,96.245238 L96.5482455,94.7228061 L97.5292169,93.2519821 L98.6392636,92.0391974 L99.8267554,91.1876677 L101.014247,90.6715891 L102.072664,90.5683734 L102.92456,90.8006087 L103.544121,91.445707 L103.982977,92.3746485 L104.137867,93.664845 L103.982977,95.135669 Z M86.2196484,93.7138725 L63.7605646,80.7293348 L66.8093207,78.4921341 L77.9872325,70.2348765 L79.4328747,69.1769153 L79.639395,69.305935 L81.1882973,70.1832686 L102.002963,82.2001589 L86.2196484,93.7138725 Z M116.270935,40.4313372 L122.95703,44.3019268 L124.531748,45.1792604 L128.016778,47.1919669 L129.384975,47.9918888 L138.655155,53.3410435 L105.472504,72.5881949 L91.2045324,64.4289922 L89.629815,63.5258547 L82.969535,59.6810691 L116.270935,40.4313372 Z M143.041131,60.8938538 L142.52483,59.0617748 L140.950112,53.4107141 C140.898482,53.1784787 140.743592,52.9978512 140.537072,52.8688315 L129.384975,46.443653 L128.016778,45.6437311 L125.87413,44.4051425 L124.325227,43.5020049 L116.709791,39.1153368 C116.580716,39.037925 116.425825,39.0121211 116.270935,39.0121211 C116.116045,39.0121211 115.93534,39.037925 115.806264,39.1153368 L81.6013379,58.8811472 C81.3948176,59.0101669 81.2399274,59.1907944 81.1882973,59.4230298 L78.6326085,68.0931503 L67.5321417,76.2729961 L61.9044633,80.4274289 C61.6721279,80.5822524 61.5430527,80.8660957 61.5430527,81.1499389 L61.5430527,82.9852207 L62.9112498,83.7851425 L62.9112498,81.9240568 L85.8350043,95.1872769 L85.8350043,103.418731 L77.2644114,98.464376 L77.2644114,100.012612 L85.8350043,104.966966 C85.9640795,105.070182 86.1189697,105.095986 86.27386,105.095986 C86.4287502,105.095986 86.5836404,105.070182 86.7385307,104.966966 L93.9667416,100.78673 C93.9667416,100.941553 93.9925566,101.018965 94.0441867,101.096377 L94.5088574,102.205946 C94.5604875,102.334965 94.6379326,102.438181 94.7411927,102.541397 L95.567274,103.212299 C95.6447191,103.289711 95.7479793,103.341319 95.8512394,103.392927 L96.883841,103.728378 C96.9871011,103.754182 97.0645462,103.779986 97.1678064,103.779986 L98.4327433,103.650966 C98.5101884,103.625162 98.5876335,103.625162 98.6650787,103.573554 L99.9300156,103.083279 C100.007461,103.031672 100.084906,103.005868 100.162351,102.95426 L101.427288,101.97371 L102.743855,100.709318 C102.778275,100.674913 103.1655,100.115828 103.905532,99.0320624 C103.922742,98.9976572 104.198102,98.4127681 104.731613,97.2773952 C104.748823,97.2601926 104.938133,96.6667022 105.299544,95.496924 C105.316754,95.4625188 105.368384,95.0324533 105.454434,94.2067275 L128.352373,80.9435075 C128.352373,81.098331 128.378188,81.1757428 128.429818,81.2789585 L128.946119,82.3885275 C128.997749,82.4917433 129.075194,82.594959 129.15264,82.6723708 L129.927091,83.3690769 C130.004536,83.4464887 130.133611,83.4980965 130.236871,83.5497044 L131.269473,83.8851555 C131.346918,83.9109594 131.450178,83.9367633 131.553438,83.9367633 L132.84419,83.8077437 C132.921635,83.7819398 132.99908,83.7561358 133.076525,83.7303319 L134.367277,83.2142533 C134.418908,83.1970507 134.917998,82.8357957 135.86455,82.1304882 C135.88176,82.1132856 136.31201,81.6660175 137.155302,80.7886839 C137.172512,80.7714813 137.542527,80.2554027 138.265348,79.2404481 C138.282558,79.2060428 138.575129,78.6039511 139.14306,77.434173 C139.16027,77.4169703 139.340975,76.8148786 139.685175,75.6278979 C139.685175,75.5934926 139.736806,75.1548258 139.840066,74.3118974 L143.944657,71.9379359 C144.228622,71.7831123 144.409328,71.4734651 144.409328,71.163818 L144.409328,66.0030319 C144.409328,65.8998162 144.409328,65.8224044 144.383513,65.7449926 L143.041131,60.8938538 Z M140.950112,53.4107141 C140.898482,53.1784787 140.743592,52.9978512 140.537072,52.8688315 L129.384975,46.443653 L129.384975,47.9918888 L139.19469,53.6429494 L136.17433,55.3718128 L137.103672,55.9136953 L139.814251,54.3396556 L140.846852,58.0812254 L142.52483,59.0617748 L140.950112,53.4107141 Z" id="Fill-19" fill="#FFFFFF"></path>
                        <path d="M207.423838,14.7221076 C207.372207,14.4898722 207.217317,14.3092447 207.010797,14.1802251 L195.8587,7.75504647 L195.8587,9.30328228 L205.668415,14.954343 L202.648055,16.6832063 L203.577397,17.2250888 L206.287976,15.6510491 L207.320577,19.3926189 L208.998555,20.3731683 L207.423838,14.7221076 Z M209.540671,32.2171722 L206.014336,34.2221375 L205.872354,33.331902 C205.872354,33.331902 205.203744,31.9410701 205.203744,31.9152662 L204.251169,31.0224502 C204.225354,30.9966463 202.805527,30.6999011 202.753897,30.6999011 L201.295347,30.883109 C201.295347,30.883109 199.782586,31.5101445 199.756771,31.5101445 C199.756771,31.5101445 198.326618,32.5552037 198.300803,32.5810076 L197.084914,33.9976434 L196.093617,35.5768439 L195.262373,37.3573151 L194.735746,39.2797078 L194.735746,40.6963436 L171.65452,54.0963245 L171.564167,53.2654379 L170.895557,51.8797669 L169.963635,51.0282372 L168.678046,50.5534449 L167.198844,50.5328017 L165.642197,50.948245 C165.642197,50.948245 163.977127,52.1223238 163.951312,52.1223238 C163.951312,52.1481278 162.572789,53.4073596 162.572789,53.4073596 L161.529861,55.2084739 C161.504046,55.2084739 160.781225,56.9992666 160.781225,56.9992666 C160.781225,56.9992666 160.233946,58.9681065 160.233946,58.9939104 L160.174572,60.691809 L153.483314,64.5882025 L153.542688,56.1787016 L169.940401,44.0611761 C169.992031,44.0095682 170.017846,43.9837643 170.069476,43.9321564 L170.069476,43.8547446 L170.095291,43.8547446 L170.095291,43.8289407 L172.728425,35.0298006 L202.235015,17.9992067 L203.577397,17.2250888 L206.287976,15.6510491 L207.320577,19.3926189 L207.836878,21.2505019 L209.540671,27.3660333 L209.540671,32.2171722 Z M204.842334,36.6038403 L204.377663,38.203684 L203.603212,39.8035276 L202.62224,41.1711359 L201.486379,42.3839206 L200.273072,43.2870582 L199.111395,43.7515289 L198.078793,43.8805486 L197.226897,43.5967053 L196.607336,43.0290189 L196.168481,42.0742735 L196.01359,40.784077 L196.168481,39.3390569 L196.658966,37.7134093 L197.381787,36.1393696 L198.362759,34.7717613 L199.524436,33.5331726 L200.737742,32.655839 L201.899419,32.1139565 L202.932021,32.0365447 L203.783917,32.3203879 L204.429293,32.9138783 L204.842334,33.8170158 L204.997224,35.0814084 L204.842334,36.6038403 Z M170.456702,56.4470625 L169.966216,58.0469062 L169.21758,59.595142 L168.236608,61.065966 L167.074932,62.2271429 L165.861625,63.1560843 L164.699948,63.6205551 L163.693162,63.7237708 L162.841265,63.4399276 L162.195889,62.8722411 L161.782849,61.9432996 L161.627959,60.6272992 L161.782849,59.1822791 L162.221704,57.5566315 L163.021971,56.0341996 L164.002942,54.5633756 L165.112989,53.3505909 L166.300481,52.4990612 L167.487972,51.9829826 L168.546389,51.8797669 L169.398285,52.1120023 L170.017846,52.7571005 L170.456702,53.686042 L170.611592,54.9762385 L170.456702,56.4470625 Z M152.693374,55.025266 L130.23429,42.0407284 L133.283046,39.8035276 L144.460958,31.54627 L145.9066,30.4883089 L146.11312,30.6173285 L147.662022,31.4946621 L168.476688,43.5115524 L152.693374,55.025266 Z M182.74466,1.74273077 L189.430755,5.61332028 L191.005473,6.4906539 L194.490503,8.50336045 L195.8587,9.30328228 L205.128881,14.652437 L171.94623,33.8995884 L157.678258,25.7403857 L156.10354,24.8372482 L149.44326,20.9924626 L182.74466,1.74273077 Z M210.857238,27.0563862 L209.514856,22.2052473 L208.998555,20.3731683 L207.423838,14.7221076 C207.372207,14.4898722 207.217317,14.3092447 207.010797,14.1802251 L195.8587,7.75504647 L194.490503,6.95512464 L192.347855,5.716536 L190.798952,4.81339845 L183.183516,0.426730333 C183.054441,0.349318543 182.899551,0.323514613 182.74466,0.323514613 C182.58977,0.323514613 182.409065,0.349318543 182.27999,0.426730333 L148.075063,20.1925408 C147.868543,20.3215604 147.713653,20.5021879 147.662022,20.7344233 L145.106334,29.4045438 L134.005867,37.5843896 L128.378188,41.7388224 C128.145853,41.893646 128.016778,42.1774892 128.016778,42.4613324 L128.016778,46.0738826 L129.384975,46.8738045 L129.384975,43.2354503 L152.308729,56.4986704 L152.308729,64.7301241 L143.738137,59.7757695 L142.189234,58.8726319 L142.189234,60.4208678 L143.738137,61.3240053 L152.308729,66.2783599 C152.437805,66.3815756 152.592695,66.4073795 152.747585,66.4073795 C152.902475,66.4073795 153.057366,66.3815756 153.212256,66.2783599 L160.440467,62.0981232 L160.440467,62.1497311 C160.440467,62.2529468 160.466282,62.3303586 160.517912,62.4077704 L160.982583,63.5173394 C161.034213,63.646359 161.111658,63.7495747 161.214918,63.8527905 L162.040999,64.5236926 C162.118444,64.6011044 162.221704,64.6527123 162.324965,64.7043201 L163.357566,65.0397712 C163.460826,65.0655752 163.538271,65.0913791 163.641532,65.0913791 L163.744792,65.0913791 L164.906468,64.9623594 C164.983914,64.9365555 165.061359,64.9365555 165.138804,64.8849477 L166.403741,64.394673 C166.481186,64.3430651 166.558631,64.3172612 166.636076,64.2656533 L167.901013,63.285104 L167.978458,63.2076922 L169.21758,62.0207114 C169.26921,61.9691036 169.32084,61.9174957 169.346655,61.8658878 L170.379257,60.343456 C170.405072,60.2918481 170.430887,60.2660442 170.430887,60.2144363 L171.205338,58.5887887 C171.231153,58.5629848 171.256968,58.5113769 171.256968,58.485573 L171.773269,56.8083175 C171.799084,56.7567097 171.799084,56.7051018 171.799084,56.653494 L171.928159,55.518121 L194.826099,42.254901 L194.826099,42.3065088 C194.826099,42.4097246 194.851914,42.4871364 194.903544,42.5903521 L195.419844,43.6999211 C195.471475,43.8031368 195.54892,43.9063525 195.626365,43.9837643 L196.400816,44.6804704 C196.478261,44.7578822 196.607336,44.8094901 196.710596,44.8610979 L197.743198,45.196549 C197.820643,45.2223529 197.923903,45.2481569 198.027163,45.2481569 L198.130424,45.2481569 L199.317915,45.1191372 C199.39536,45.0933333 199.472806,45.0675294 199.550251,45.0417254 L200.841003,44.5256468 C200.918448,44.4998429 200.995893,44.474039 201.047523,44.4224311 L202.338275,43.4418818 C202.36409,43.4160778 202.389905,43.36447 202.441535,43.338666 L203.629027,42.1000774 C203.654842,42.0742735 203.680657,42.0226656 203.706472,41.9968617 L204.739073,40.5518416 C204.764889,40.5002337 204.790704,40.4744298 204.816519,40.4228219 L205.616785,38.7455665 C205.6426,38.7197626 205.668415,38.6681547 205.69423,38.6165468 L206.158901,36.9392914 C206.158901,36.8876835 206.184716,36.8360757 206.184716,36.7844678 L206.313791,35.623291 L210.418382,33.2493294 C210.702347,33.0945058 210.883053,32.7848586 210.883053,32.4752115 L210.883053,27.3144255 C210.883053,27.2112097 210.883053,27.133798 210.857238,27.0563862 L210.857238,27.0563862 Z M207.423838,14.7221076 C207.372207,14.4898722 207.217317,14.3092447 207.010797,14.1802251 L195.8587,7.75504647 L195.8587,9.30328228 L205.668415,14.954343 L202.648055,16.6832063 L203.577397,17.2250888 L206.287976,15.6510491 L207.320577,19.3926189 L208.998555,20.3731683 L207.423838,14.7221076 Z" id="Fill-21" fill="#FFFFFF"></path>
                        <path d="M209.540671,32.1998835 L205.823305,34.3158058 L205.720045,33.6190997 L205.720045,33.5674918 C205.69423,33.5416879 205.69423,33.515884 205.69423,33.515884 L205.229559,32.4321189 C205.203744,32.406315 205.177929,32.3805111 205.177929,32.3547071 C205.152114,32.3289032 205.126299,32.3030993 205.126299,32.2772953 L205.100484,32.2772953 L204.300218,31.5547853 C204.274403,31.5289814 204.222773,31.5031774 204.171143,31.4773735 L204.145328,31.4773735 L203.112726,31.1161185 L203.061096,31.1161185 C203.009466,31.1161185 202.983651,31.0903146 202.932021,31.0903146 L201.770344,31.1935303 L201.744529,31.1935303 C201.718714,31.1935303 201.692899,31.1935303 201.667084,31.2193342 L201.589639,31.2193342 L200.298887,31.8128246 C200.298887,31.8386285 200.298887,31.8386285 200.273072,31.8386285 C200.247257,31.8644325 200.247257,31.8644325 200.221442,31.8644325 L198.956505,32.8191779 C198.93069,32.8191779 198.93069,32.8191779 198.93069,32.8449818 C198.904875,32.8449818 198.904875,32.8449818 198.87906,32.8707857 L197.691568,34.1351783 C197.691568,34.1609822 197.691568,34.1609822 197.665753,34.1609822 L197.665753,34.1867862 L196.633151,35.6318062 C196.633151,35.6576102 196.607336,35.6576102 196.607336,35.6834141 L196.581521,35.709218 L195.80707,37.3348656 L195.80707,37.3606696 C195.80707,37.3864735 195.80707,37.3864735 195.781255,37.3864735 L195.290769,39.1153368 L195.290769,39.1411407 C195.264954,39.1669447 195.264954,39.1669447 195.264954,39.1927486 L195.110064,40.4829451 L171.437673,54.2106359 L171.360228,53.4881259 C171.360228,53.4623219 171.334413,53.436518 171.334413,53.4107141 C171.334413,53.3849101 171.334413,53.3591062 171.308598,53.3333023 L170.792297,52.2753411 C170.792297,52.2495372 170.766482,52.2237333 170.766482,52.2237333 C170.740667,52.1979294 170.740667,52.1721254 170.714852,52.1463215 L169.940401,51.3722036 L169.914586,51.3722036 C169.888771,51.3463997 169.862956,51.3463997 169.837141,51.3205957 C169.811326,51.2947918 169.811326,51.2947918 169.759696,51.2689879 L168.727094,50.9593407 L168.572204,50.9593407 L168.546389,50.9593407 L167.307267,51.0883604 L167.255637,51.0883604 C167.229822,51.1141643 167.204007,51.1141643 167.178192,51.1141643 L165.913255,51.6818508 C165.88744,51.6818508 165.88744,51.6818508 165.861625,51.7076547 L165.83581,51.7076547 L164.545058,52.6107922 C164.519243,52.6107922 164.519243,52.6365962 164.493428,52.6365962 C164.493428,52.6624001 164.467613,52.6624001 164.467613,52.688204 L163.305936,53.9525966 C163.305936,53.9784005 163.305936,53.9784005 163.280121,53.9784005 L163.280121,54.0042045 L162.247519,55.5524403 L162.247519,55.5782442 C162.221704,55.5782442 162.221704,55.5782442 162.221704,55.6040481 L161.395623,57.1780879 L161.395623,57.2296957 L161.369808,57.2554997 L160.905137,58.958559 L160.905137,59.0101669 L160.879322,59.0359708 L160.750247,60.3519713 L153.212256,64.7128354 L153.212256,56.4555778 L169.940401,44.0438875 C169.992031,43.9922796 170.017846,43.9664757 170.069476,43.9148678 L170.069476,43.837456 L170.095291,43.837456 L170.095291,43.8116521 L172.728425,35.0125119 L200.608667,18.9108596 L202.183385,18.007722 L206.287976,15.6337604 L207.862693,21.2590172 L208.456439,23.4523513 L209.540671,27.3487447 L209.540671,32.1998835 Z M204.842334,36.5865517 L204.377663,38.1863953 L203.603212,39.786239 L202.62224,41.1538473 L201.486379,42.366632 L200.273072,43.2697696 L199.111395,43.7342403 L198.078793,43.8632599 L197.226897,43.5794167 L196.607336,43.0117303 L196.168481,42.0569848 L196.01359,40.7667883 L196.168481,39.3217683 L196.658966,37.6961207 L197.381787,36.1220809 L198.362759,34.7544726 L199.524436,33.515884 L200.737742,32.6385504 L201.899419,32.0966678 L202.932021,32.019256 L203.783917,32.3030993 L204.429293,32.8965897 L204.842334,33.7997272 L204.997224,35.0641198 L204.842334,36.5865517 Z M170.456702,56.4297739 L169.966216,58.0296176 L169.21758,59.5778534 L168.236608,61.0486774 L167.074932,62.2098542 L165.861625,63.1387957 L164.699948,63.6032664 L163.693162,63.7064822 L162.841265,63.4226389 L162.195889,62.8549525 L161.782849,61.926011 L161.627959,60.6100106 L161.782849,59.1649905 L162.221704,57.5393429 L163.021971,56.016911 L164.002942,54.546087 L165.112989,53.3333023 L166.300481,52.4817726 L167.487972,51.965694 L168.546389,51.8624783 L169.398285,52.0947136 L170.017846,52.7398119 L170.456702,53.6687534 L170.611592,54.9589499 L170.456702,56.4297739 Z M152.72177,55.6814599 L129.746385,42.3924359 L131.062952,41.4118866 L142.292494,33.128825 L145.9066,30.4710202 L146.397086,30.7548635 L147.971803,31.658001 L168.856169,43.7342403 L152.72177,55.6814599 Z M182.74466,1.72544213 L205.668415,14.9370543 L201.279858,17.4658395 L199.679326,18.394781 L172.367015,34.1867862 L157.962223,25.9037246 L156.413321,25.0005871 L149.44326,20.975174 L182.74466,1.72544213 Z M210.857238,27.0390975 L210.134417,24.4070967 L209.514856,22.2395665 L207.423838,14.704819 C207.372207,14.4725836 207.217317,14.2919561 207.010797,14.1629364 L183.183516,0.4094417 C183.054441,0.33202991 182.899551,0.30622598 182.74466,0.30622598 C182.58977,0.30622598 182.409065,0.33202991 182.27999,0.4094417 L148.075063,20.1752521 C147.868543,20.3042718 147.713653,20.4848993 147.662022,20.7171347 L145.106334,29.3872552 L131.837404,39.1669447 L128.378188,41.7215337 C128.145853,41.8763573 128.016778,42.1602006 128.016778,42.4440438 L128.016778,47.1919669 L129.384975,47.9918888 L129.384975,43.2181617 L152.308729,56.4813817 L152.308729,64.7128354 L142.52483,59.0617748 L140.846852,58.0812254 L141.363153,59.9391084 L143.041131,60.8938538 L152.308729,66.2610712 C152.437805,66.364287 152.592695,66.3900909 152.747585,66.3900909 C152.902475,66.3900909 153.057366,66.364287 153.212256,66.2610712 L160.440467,62.0808346 L160.440467,62.1324424 C160.440467,62.2356582 160.466282,62.3130699 160.517912,62.3904817 L160.982583,63.5000507 C161.034213,63.6290704 161.111658,63.7322861 161.214918,63.8355018 L162.040999,64.506404 C162.118444,64.5838158 162.221704,64.6354237 162.324965,64.6870315 L163.357566,65.0224826 C163.460826,65.0482865 163.538271,65.0740905 163.641532,65.0740905 L163.744792,65.0740905 L164.906468,64.9450708 C164.983914,64.9192669 165.061359,64.9192669 165.138804,64.867659 L166.403741,64.3773844 C166.481186,64.3257765 166.558631,64.2999726 166.636076,64.2483647 L167.901013,63.2678154 L167.978458,63.1904036 L169.21758,62.0034228 C169.26921,61.9518149 169.32084,61.9002071 169.346655,61.8485992 L170.379257,60.3261673 C170.405072,60.2745595 170.430887,60.2487555 170.430887,60.1971477 L171.205338,58.5715001 C171.231153,58.5456962 171.256968,58.4940883 171.256968,58.4682844 L171.773269,56.7910289 C171.799084,56.739421 171.799084,56.6878132 171.799084,56.6362053 L171.928159,55.5008324 L194.826099,42.2376123 L194.826099,42.2892202 C194.826099,42.3924359 194.851914,42.4698477 194.903544,42.5730634 L195.419844,43.6826324 C195.471475,43.7858482 195.54892,43.8890639 195.626365,43.9664757 L196.400816,44.6631818 C196.478261,44.7405936 196.607336,44.7922014 196.710596,44.8438093 L197.743198,45.1792604 C197.820643,45.2050643 197.923903,45.2308682 198.027163,45.2308682 L198.130424,45.2308682 L199.317915,45.1018486 C199.39536,45.0760447 199.472806,45.0502407 199.550251,45.0244368 L200.841003,44.5083582 C200.918448,44.4825543 200.995893,44.4567503 201.047523,44.4051425 L202.338275,43.4245931 C202.36409,43.3987892 202.389905,43.3471813 202.441535,43.3213774 L203.629027,42.0827888 C203.654842,42.0569848 203.680657,42.005377 203.706472,41.979573 L204.739073,40.534553 C204.764889,40.4829451 204.790704,40.4571412 204.816519,40.4055333 L205.616785,38.7282779 C205.6426,38.7024739 205.668415,38.6508661 205.69423,38.5992582 L206.158901,36.9220028 C206.158901,36.8703949 206.184716,36.818787 206.184716,36.7671792 L206.313791,35.6060023 L210.418382,33.2320408 C210.702347,33.0772172 210.883053,32.76757 210.883053,32.4579229 L210.883053,27.2971368 C210.883053,27.1939211 210.883053,27.1165093 210.857238,27.0390975 L210.857238,27.0390975 Z M136.17433,55.3718128 L134.831948,56.1717346 L135.76129,56.6878132 L137.103672,55.9136953 L136.17433,55.3718128 Z" id="Fill-23" fill="#FFFFFF"></path>
                    </g>
                </g>
            </g>
        </g>
    </g>
</svg>