<?xml version="1.0" encoding="UTF-8"?>
<svg width="111px" height="35px" viewBox="0 0 111 35" version="1.1" xmlns="http://www.w3.org/2000/svg" xmlns:xlink="http://www.w3.org/1999/xlink">
    <!-- Generator: Sketch 46 (44423) - http://www.bohemiancoding.com/sketch -->
    <title>Energia_logo</title>
    <desc>Created with Sketch.</desc>
    <defs>
        <polygon id="path-1" points="0.0212807882 20.9992632 0.0212807882 0.277789474 71.8935961 0.277789474 71.8935961 20.9992632"></polygon>
    </defs>
    <g id="Page-1" stroke="none" stroke-width="1" fill="none" fill-rule="evenodd">
        <g id="Energia_fin_design" transform="translate(-80.000000, -27.000000)">
            <g id="Heder" transform="translate(80.000000, 27.000000)">
                <g id="Page-1">
                    <g id="Energia_logo">
                        <path d="M108,3.49981461 C108,4.32851316 107.328513,5 106.500185,5 C105.671487,5 105,4.32851316 105,3.49981461 C105,2.67148684 105.671487,2 106.500185,2 C107.328513,2 108,2.67148684 108,3.49981461" id="Fill-1" fill="#FFFFFF"></path>
                        <polyline id="Fill-2" fill="#FFFFFF" points="25 34.4929114 23.6832441 35 18.8503088 27.5878464 18.8503088 34.7192238 17 34.7192238 17 24.4702156 18.6461095 24 23.1463977 30.993019 23.1463977 24.3179875 25 24.3179875 25 34.4929114"></polyline>
                        <polyline id="Fill-3" fill="#FFFFFF" points="8 34 1 34 1 24 7.84868289 24 7.84868289 25.7713778 3.03327971 25.7713778 3.03327971 27.9007792 6.76201488 27.9007792 6.76201488 29.672157 3.03327971 29.672157 3.03327971 32.2289509 8 32.2289509 8 34"></polyline>
                        <polyline id="Fill-4" fill="#FFFFFF" points="44 34 37 34 37 24 43.8628279 24 43.8628279 25.7713778 39.0322581 25.7713778 39.0322581 27.9007792 42.7626369 27.9007792 42.7626369 29.672157 39.0322581 29.672157 39.0322581 32.2289509 43.9964828 32.2289509 43.9964828 34 44 34"></polyline>
                        <path d="M57.5046401,25.6268813 L55.9778873,25.6268813 L55.9778873,28.8701435 L57.4300431,28.8701435 C58.2633986,28.8701435 58.8338884,28.7280364 59.1415124,28.4434722 C59.4668976,28.1165558 59.6349185,27.6685334 59.6029484,27.2117606 C59.6398917,26.7686384 59.4761334,26.3318166 59.1557213,26.0185509 C58.8552018,25.7574379 58.3046046,25.6268813 57.5046401,25.6268813 Z M62,34.1183059 L60.3808889,35 L57.9802851,30.679034 L55.9743351,30.679034 L55.9743351,34.6324816 L54,34.6324816 L54,24 L57.9412104,24 C60.4149905,24 61.6518805,25.0238012 61.6518805,27.0717536 C61.6817193,27.7252363 61.514764,28.3727686 61.1726833,28.9331467 C60.8174593,29.4448722 60.3517606,29.8725936 59.8089783,30.1858593 L62,34.1183059 L62,34.1183059 Z" id="Fill-5" fill="#FFFFFF"></path>
                        <path d="M79.0228479,29.4804628 L79.0228479,32.9549129 C78.5340737,33.0574502 78.0364062,33.1123685 77.5366044,33.1179298 C76.5942733,33.1711102 75.6786221,32.8030187 75.0475555,32.117583 C74.4389,31.3577643 74.13226,30.4088598 74.1834853,29.4457044 C74.137596,28.5127889 74.429651,27.5937767 75.0084251,26.8502944 C75.5594522,26.1937082 76.3772775,25.8669792 77.4619009,25.8669792 C78.3263269,25.8530758 79.1850612,26.0039273 79.9900801,26.3115391 L80.6620557,24.6264517 C80.1832419,24.4119924 79.6773927,24.2600981 79.1580256,24.17494 C78.5842317,24.0637131 78.0008331,24.0067094 77.4156559,24.0046239 C75.9521791,23.9434491 74.5306786,24.4915891 73.5040393,25.5124434 C72.5037242,26.5200896 72.0024994,27.8426468 72.0000093,29.4804628 C71.9975192,31.1179313 72.4966096,32.4488306 73.4969247,33.4724656 C74.4801648,34.485673 75.8593334,35.0407648 77.2875928,34.9976643 C77.9691731,34.9914078 78.6479076,34.9097256 79.3109899,34.7543555 C79.9004359,34.6504279 80.4703168,34.4582139 81,34.1846653 L81,29.4804628 L79.0228479,29.4804628" id="Fill-6" fill="#FFFFFF"></path>
                        <polyline id="Fill-7" fill="#FFFFFF" points="90.490052 35 89 34.082816 93.4946434 25 95 25.9205949 90.490052 35"></polyline>
                        <path d="M97,26 L95,25" id="Fill-8" fill="#0A0B09"></path>
                        <path d="M107.632731,30.2329926 L106.538178,27.0616849 L105.432915,30.2329926 L107.632731,30.2329926 Z M111,34.3376806 L109.245537,34.9682763 L108.278821,32.1318294 L104.756075,32.1318294 L103.757918,35 L102,34.3658795 L105.619486,24 L107.432685,24 L111,34.3376806 L111,34.3376806 Z" id="Fill-9" fill="#FFFFFF"></path>
                        <polyline id="Fill-10" fill="#D52B2F" points="25 18.3025297 41.3918703 1 43 2.69747029 26.6077907 20 25 18.3025297"></polyline>
                        <polyline id="Fill-11" fill="#D52B2F" points="65 5.84351002 89.4286014 0 90 2.15682205 65.5713986 8 65 5.84351002"></polyline>
                        <g id="Group-15">
                            <mask id="mask-2" fill="white">
                                <use xlink:href="#path-1"></use>
                            </mask>
                            <g id="Clip-13"></g>
                            <polyline id="Fill-12" fill="#D52B2F" mask="url(#mask-2)" points="48.8351527 8.16642105 71.8935961 18.7456316 70.9356059 20.9992632 47.8771626 10.4204211 48.8351527 8.16642105"></polyline>
                            <polyline id="Fill-14" fill="#D52B2F" mask="url(#mask-2)" points="0.91755665 0.277789474 24.3597635 9.90389474 23.4422069 12.3152105 0 2.68873684 0.91755665 0.277789474"></polyline>
                        </g>
                        <polyline id="Fill-16" fill="#D52B2F" points="89.5488793 9 111 13.9417939 110.451121 16 89 11.0585242 89.5488793 9"></polyline>
                    </g>
                </g>
            </g>
        </g>
    </g>
</svg>