<?xml version="1.0" encoding="UTF-8"?>
<svg width="98px" height="102px" viewBox="0 0 98 102" version="1.1" xmlns="http://www.w3.org/2000/svg" xmlns:xlink="http://www.w3.org/1999/xlink">
    <!-- Generator: Sketch 46 (44423) - http://www.bohemiancoding.com/sketch -->
    <title>Icon_2</title>
    <desc>Created with Sketch.</desc>
    <defs></defs>
    <g id="Page-1" stroke="none" stroke-width="1" fill="none" fill-rule="evenodd">
        <g id="Icon_2" fill-rule="nonzero" fill="#EB0029">
            <g id="noun_684915_cc-copy" transform="translate(14.000000, 21.000000)">
                <path d="M35.2815846,37.4818681 C34.5588865,37.4818681 33.8715203,37.6142258 33.2066381,37.8014635 L25.4111349,23 L22,24.817497 L29.856531,39.735177 C28.4432548,41.142688 27.5631692,43.0893145 27.5631692,45.2425482 C27.5631692,49.5199613 31.0256959,53 35.2815846,53 C39.5374732,53 43,49.5199613 43,45.2425482 C43,40.965135 39.5374732,37.4818681 35.2815846,37.4818681 Z M35.2815846,49.11966 C33.1520343,49.11966 31.4239829,47.3796406 31.4239829,45.2425482 C31.4239829,43.1054557 33.1552463,41.3654363 35.2815846,41.3654363 C37.4079229,41.3654363 39.1391863,43.1054557 39.1391863,45.2425482 C39.1391863,47.3796406 37.4111349,49.11966 35.2815846,49.11966 Z" id="Shape"></path>
                <path d="M35.0016182,0 C15.7026588,0 0,15.5635425 0,34.6915244 C0,40.7905337 1.62497109,46.7900853 4.69364158,52.0388908 C5.23098262,52.9564692 6.42219649,53.2740926 7.34797683,52.741512 L15.7641617,47.9226209 L13.8187282,44.5827636 L7.1375722,48.410285 C5.29572251,44.7431794 4.25988436,40.7231591 4.00092483,36.6165142 L9.72069357,36.6165142 L9.72069357,32.7633263 L3.98797685,32.7633263 C4.25341037,28.5540153 5.36369938,24.5789114 7.16994215,20.9920137 L12.1354912,23.834582 L14.0809248,20.4947247 L9.09919069,17.6425315 C11.3942196,14.2288829 14.3560693,11.2932735 17.8034681,9.01857719 L20.6811559,13.9593843 L24.0476299,12.0311862 L21.179653,7.10642066 C24.7986125,5.31618015 28.8092483,4.21572765 33.0561847,3.95264571 L33.0561847,9.63778224 L36.9438148,9.63778224 L36.9438148,3.95264571 C41.1907512,4.21572765 45.201387,5.31618015 48.8203465,7.10642066 L45.9556066,12.0311862 L49.3253176,13.9593843 L52.2030054,9.01857719 C55.6471672,11.2932735 58.6090169,14.2288829 60.9040458,17.6425315 L55.9223117,20.4947247 L57.8677453,23.834582 L62.8332943,20.9920137 C64.6395371,24.5789114 65.7498261,28.5540153 66.0152596,32.7633263 L60.2793059,32.7633263 L60.2793059,36.6165142 L65.9990747,36.6165142 C65.7401151,40.7231591 64.704277,44.7431794 62.8624273,48.410285 L56.1812713,44.5827636 L54.2358378,47.9226209 L62.6520227,52.741512 C62.9563001,52.9179694 63.2929475,52.9981773 63.6231209,52.9981773 C64.2931787,52.9981773 64.9470516,52.6548875 65.3063579,52.0388908 C68.3782654,46.7868769 69.9999995,40.7905337 69.9999995,34.6915244 C70.0032365,15.5635425 54.3005776,0 35.0016182,0 Z" id="Shape"></path>
            </g>
        </g>
    </g>
</svg>