<?xml version="1.0" encoding="UTF-8"?>
<svg width="98px" height="102px" viewBox="0 0 98 102" version="1.1" xmlns="http://www.w3.org/2000/svg" xmlns:xlink="http://www.w3.org/1999/xlink">
    <!-- Generator: Sketch 46 (44423) - http://www.bohemiancoding.com/sketch -->
    <title>Icon_1</title>
    <desc>Created with Sketch.</desc>
    <defs></defs>
    <g id="Page-1" stroke="none" stroke-width="1" fill="none" fill-rule="evenodd">
        <g id="Icon_1" fill="#EB0029">
            <g id="Page-1-Copy" transform="translate(25.000000, 15.000000)">
                <path d="M2.26662942,8.049306 L0,8.049306 L0,44.0513434 L0,44.0513434 C6.50318495e-16,49.3615969 2.63463741,54.325869 7.03244796,57.3021174 L22.8400199,68 L25.4180446,68 L41.2256166,57.3021174 L41.2256166,57.3021174 C45.6234271,54.325869 48.2580645,49.3615969 48.2580645,44.0513434 L48.2580645,8.049306 L45.9914351,8.049306 L39.5889931,8.049306 L39.5889931,0 L8.67063409,0 L8.67063409,8.049306 L2.26662942,8.049306 Z M4.53325884,43.6835356 L4.53325884,12.5384551 L13.5987295,12.5384551 L13.5987295,4.63551686 L34.7656685,4.63551686 L34.7656685,12.5384551 L43.7256251,12.5384551 L43.7256251,43.6836851 L43.7256251,43.6836851 C43.7256251,47.6439394 41.7717065,51.3491834 38.5037022,53.5860924 L24.1298517,63.4248177 L9.75537483,53.5860751 L9.75537483,53.5860751 C6.48725864,51.349183 4.53325884,47.6438727 4.53325884,43.6835356 Z" id="Fill-1"></path>
                <polygon id="Fill-2" points="31.8064516 44.9677419 16.4516129 44.9677419 16.4516129 20.8387097 31.4747432 20.8387097 31.4747432 25.1132196 20.9117787 25.1132196 20.9117787 30.2509696 29.090738 30.2509696 29.090738 34.5246621 20.9117787 34.5246621 20.9117787 40.6940495 31.8064516 40.6940495"></polygon>
            </g>
        </g>
    </g>
</svg>