<?xml version="1.0" encoding="UTF-8"?>
<svg width="98px" height="102px" viewBox="0 0 98 102" version="1.1" xmlns="http://www.w3.org/2000/svg" xmlns:xlink="http://www.w3.org/1999/xlink">
    <!-- Generator: Sketch 46 (44423) - http://www.bohemiancoding.com/sketch -->
    <title>Icon_5</title>
    <desc>Created with Sketch.</desc>
    <defs></defs>
    <g id="Page-1" stroke="none" stroke-width="1" fill="none" fill-rule="evenodd">
        <g id="Icon_5" fill="#EB0029">
            <g id="noun_1048552_cc-copy" transform="translate(12.000000, 20.000000)">
                <g id="Group">
                    <path d="M45.8795313,22.5564671 L45.8795313,43.4905362 L76.9967188,43.4905362 L76.9967188,22.5564671 L45.8795313,22.5564671 Z M49.3795313,26.0591611 L73.4967188,26.0591611 L73.4967188,39.9878335 L49.3795313,39.9878335 L49.3795313,26.0591611 Z" id="Shape"></path>
                    <path d="M56.4769691,29.7610362 C54.6941981,29.7610362 53.221,31.2290467 53.221,33.016667 C53.221,34.8042874 54.6941981,36.2722978 56.4769691,36.2722978 C58.2598641,36.2722978 59.7272375,34.8008767 59.7272375,33.016667 C59.7272375,31.2324573 58.2598641,29.7610362 56.4769691,29.7610362 Z" id="Shape"></path>
                    <path d="M4.04407912,8.90139957 L65.2116062,8.90139957 L65.2389062,4.77371563 L49.2388565,4.77371563 L49.2388565,4.760299 L4.04407912,4.65251786 L4.04407912,8.90139957 Z M49.2388565,0.57455528 L49.2388565,0.540981789 L68.7389062,0.540981789 L68.7389062,8.90139957 C70.4344812,8.90139957 72.1238457,8.90139957 73.8069996,8.90139957 L73.8069996,23.9150245 L69.9693312,23.9150245 L70,12.4041023 L4.04407912,12.4041023 L4.04407912,55.1569888 L70,55.1569888 L70.0368813,42.69544 L73.7919371,42.69544 L73.7919371,59.2653416 L0.0032815125,59.2653416 L0.0032815125,0.57455528 L49.2388565,0.57455528 Z" id="Combined-Shape"></path>
                </g>
            </g>
        </g>
    </g>
</svg>