<?xml version="1.0" encoding="UTF-8"?>
<svg width="98px" height="102px" viewBox="0 0 98 102" version="1.1" xmlns="http://www.w3.org/2000/svg" xmlns:xlink="http://www.w3.org/1999/xlink">
    <!-- Generator: Sketch 46 (44423) - http://www.bohemiancoding.com/sketch -->
    <title>Icon_4</title>
    <desc>Created with Sketch.</desc>
    <defs></defs>
    <g id="Page-1" stroke="none" stroke-width="1" fill="none" fill-rule="evenodd">
        <g id="Icon_4" fill-rule="nonzero" fill="#EB0029">
            <g id="noun_804986_cc-copy-2" transform="translate(13.000000, 16.000000)">
                <g id="Group">
                    <rect id="Rectangle-path" x="34.2878788" y="43.1363636" width="4.5625" height="4.4863892"></rect>
                    <rect id="Rectangle-path-Copy" x="34.2878788" y="50.8787879" width="4.5625" height="4.4863892"></rect>
                    <rect id="Rectangle-path-Copy-2" x="34.2878788" y="58.6212121" width="4.5625" height="4.4863892"></rect>
                    <path d="M55.4564314,46.1333859 C55.6117661,46.4423639 55.5964328,46.8096692 55.4158867,47.1046257 C55.1275549,47.5756705 54.5119586,47.7237887 54.0409137,47.4354569 L36.5,36.6984688 L18.9590863,47.4354569 C18.6641298,47.6160031 18.2968245,47.6313364 17.9878465,47.4760017 C17.4944094,47.2279326 17.2954994,46.626823 17.5435686,46.1333859 L17.5435686,46.1333859 L35.6065531,10.2041026 C35.7030678,10.0121242 35.8588527,9.85633929 36.0508311,9.75982462 C36.5442682,9.51175549 37.1453777,9.7106655 37.3934469,10.2041026 L55.4564314,46.1333859 Z M36.5,18.5853437 L27.2335625,37.020125 L36.5,31.3466563 L45.7664375,37.020125 L36.5,18.5853437 Z" id="Shape"></path>
                    <polygon id="Shape" points="19.390625 0 0 0 0 19.1282813 4.5625 19.1282813 4.5625 4.5625 19.390625 4.5625"></polygon>
                    <polygon id="Shape" points="68.4375 68.4375 53.609375 68.4375 53.609375 73 73 73 73 53.8717187 68.4375 53.8717187"></polygon>
                </g>
            </g>
        </g>
    </g>
</svg>