<?xml version="1.0" encoding="UTF-8"?>
<svg width="98px" height="102px" viewBox="0 0 98 102" version="1.1" xmlns="http://www.w3.org/2000/svg" xmlns:xlink="http://www.w3.org/1999/xlink">
    <!-- Generator: Sketch 46 (44423) - http://www.bohemiancoding.com/sketch -->
    <title>Icon_3</title>
    <desc>Created with Sketch.</desc>
    <defs></defs>
    <g id="Page-1" stroke="none" stroke-width="1" fill="none" fill-rule="evenodd">
        <g id="Icon_3" fill="#EB0029">
            <g id="Page-1-Copy" transform="translate(47.708892, 52.708892) rotate(-315.000000) translate(-47.708892, -52.708892) translate(33.708892, 16.208892)">
                <polygon id="Fill-1" points="9 54.2482299 14.1255908 54.2482299 14.1255908 9.09494702e-13 9 9.09494702e-13"></polygon>
                <polygon id="Fill-2" points="12 8.1255908 26.873573 8.1255908 26.873573 3 12 3"></polygon>
                <polygon id="Fill-3" points="12 19.1255908 24.096246 19.1255908 24.096246 14 12 14"></polygon>
                <polygon id="Fill-4" points="12 31.1255908 27.2590812 31.1255908 27.2590812 26 12 26"></polygon>
                <path d="M11.532811,54.1255908 C7.99929484,54.1255908 5.1255908,56.9992948 5.1255908,60.532811 C5.1255908,64.0663271 7.99929484,66.9400311 11.532811,66.9400311 C15.0663271,66.9400311 17.9400311,64.0663271 17.9400311,60.532811 C17.9400311,56.9992948 15.0663271,54.1255908 11.532811,54.1255908 M11.532811,72.0656219 C5.17285262,72.0656219 0,66.8927693 0,60.532811 C0,54.1728526 5.17285262,49 11.532811,49 C17.8927693,49 23.0656219,54.1728526 23.0656219,60.532811 C23.0656219,66.8927693 17.8927693,72.0656219 11.532811,72.0656219" id="Fill-5"></path>
            </g>
        </g>
    </g>
</svg>