<?xml version="1.0" encoding="UTF-8"?>
<svg width="86px" height="86px" viewBox="0 0 86 86" version="1.1" xmlns="http://www.w3.org/2000/svg" xmlns:xlink="http://www.w3.org/1999/xlink">
    <!-- Generator: Sketch 46 (44423) - http://www.bohemiancoding.com/sketch -->
    <title>noun_1043035_cc</title>
    <desc>Created with Sketch.</desc>
    <defs></defs>
    <g id="Page-1" stroke="none" stroke-width="1" fill="none" fill-rule="evenodd">
        <g id="Energia_fin_design-Copy" transform="translate(-607.000000, -299.000000)" fill-rule="nonzero" fill="#A9A9A9">
            <g id="noun_1043035_cc" transform="translate(607.000000, 299.000000)">
                <g id="Group">
                    <path d="M43,0.447916667 C19.5291667,0.447916667 0.447916667,19.5291667 0.447916667,43 C0.447916667,66.4708333 19.5291667,85.5520833 43,85.5520833 C66.4708333,85.5520833 85.5520833,66.4708333 85.5520833,43 C85.5520833,19.5291667 66.4708333,0.447916667 43,0.447916667 Z M43,81.9370869 C21.5239089,81.9370869 4.06291307,64.4760911 4.06291307,43 C4.06291307,21.5239089 21.5239089,4.06291307 43,4.06291307 C64.4760911,4.06291307 81.9370869,21.5239089 81.9370869,43 C81.9370869,64.4760911 64.4760911,81.9370869 43,81.9370869 Z" id="Shape"></path>
                    <polygon id="Shape" points="37.625 50.8833333 24.8145833 38.0729167 20.2458333 42.6416667 37.625 60.0208333 67.3666667 30.2791667 62.7083333 25.7104167"></polygon>
                </g>
            </g>
        </g>
    </g>
</svg>