<svg width="165" height="146" viewBox="0 0 165 146" xmlns="http://www.w3.org/2000/svg"><title>Page 1</title><g fill="none" fill-rule="evenodd"><path fill="#EA2729" d="M104.765 134.663L105 135H7V59l15.894 8.548-5.402 3.005-2.767 6.476 1.749 7.123 6.811 8.833 7.908 2.59 6.577-3.86 1.958 6.684 6.76 7.978 7.176 1.943 7.177-4.3 4.568-3.238 38.13 21.344-.575 5.725zM7 0v46.09l4.625-2.287.545-8.375L38.656 20.67l8.074.642 22.068 10.919L79.673 44.65 99.91 59.315l.109 5.78 29.63-17.361 4.056 3.34.233 10.481L142 66V0z"/><path d="M48.798 95.596c0-.064.044-.12.028-.185l-.052-.2c-.002-.013-.015-.016-.018-.026-.002-.013.006-.023.003-.033-.003-.008-.008-.013-.01-.02v-.088c0-.036-.034-.054-.04-.09-.002-.036.024-.062.016-.095l-.052-.2c-.008-.029-.041-.042-.052-.07-.007-.03.008-.059-.005-.09l-.101-.2-.101-.2c-.01-.024-.042-.026-.055-.047-.013-.02-.002-.049-.018-.07l-.153-.2c-.008-.01-.02-.007-.026-.015-.031-.039-.065-.07-.101-.103-.026-.036-.016-.082-.05-.115l-.153-.152-.153-.152c-.02-.02-.052-.012-.072-.03-.024-.016-.024-.05-.047-.067-.029-.018-.068-.005-.099-.02-.026-.024-.026-.06-.054-.08-.029-.018-.068-.006-.099-.02-.026-.024-.026-.06-.054-.08-.047-.031-.107-.013-.159-.037-.067-.048-.098-.128-.181-.156-.029-.01-.06.01-.089.005-.026-.01-.033-.044-.062-.054-.052-.015-.106.015-.16.01-.084-.03-.146-.097-.237-.097a.846.846 0 0 0-.327.066c-.06.016-.12-.015-.174.013-.018.008-.031.026-.047.036a.896.896 0 0 0-.244.144c-.051.028-.116.02-.163.067-.003.002 0 .008-.003.008 0 .002-.005.002-.005.005-.015.013-.01.043-.023.059-.018.015-.05.01-.068.028-.036.039-.03.098-.062.144-.016.015-.036.026-.05.041-.017.018-.036.026-.051.046-.024.029-.068.034-.086.07-.026.051 0 .11-.015.164-.021.054-.052.098-.063.154-.005.018-.026.023-.03.044l-.022.08s-.002.002-.002.005v.002l-.029.113c-.01.034.016.06.013.093-.05.139-.104.277-.065.429l.052.2.029.11v.106c0 .046.041.072.05.116.007.046-.024.084-.009.128.013.039.05.057.068.093.01.036-.013.064 0 .1l.101.252c.01.028.044.043.06.074.013.018 0 .044.013.064.026.036.07.057.1.09.02.031.006.067.027.095l.153.2c.031.044.078.065.117.098.028.044.018.098.057.136l.106.103.125.165c.044.059.104.09.158.13.018.014.016.04.034.052.01.005.028.005.041.01.029.018.055.036.083.05.016.012.013.033.029.043.05.033.117.028.174.051.06.041.09.116.163.142.037.01.076.01.115.015.018.01.023.028.039.036.036.01.075.01.114.015.018.01.023.029.039.036a.859.859 0 0 0 .27.041h.007c.044.006.073.05.12.05.03 0 .057-.014.088-.019.023.003.041.02.065.02a.75.75 0 0 0 .241-.056c.005 0 .008.005.013.005.018 0 .031-.018.047-.018.015-.007.034-.005.05-.012l.023-.018c.007 0 .013-.006.018-.008l.054-.023c.135-.036.278-.052.382-.157.018-.015.013-.049.028-.07.016-.015.04-.01.052-.022.018-.016.013-.044.029-.062.083-.07.168-.136.22-.236.026-.052 0-.11.016-.165.041-.095.117-.17.117-.28 0-.018-.01-.033-.01-.054.007-.023.033-.033.038-.059l.052-.2c.016-.065-.036-.137-.036-.2" fill="#EA2729"/><path d="M87.15 71.563v.026l.104-.051-.052-.052c-.025.026-.025.077-.051.077" fill="#FFF"/><path d="M1.583 54.658l.078-3.93 72.383 41.415L91.64 102.29v3.828L64.13 90.267 44.873 79.271l-3.037-1.747L22.58 66.528 1.583 54.658zM20.97 70.074l1.116.282 1.22.514 1.246.617 1.271.899 1.194 1.002 1.22 1.259 1.142 1.31 1.012 1.439.934 1.567.83 1.593.65 1.644.545 1.67.337 1.593.182 1.464.052 1.49-.078 1.336-.338 1.208-.415 1.002-.57.796-.65.694-.752.488-.857.308-1.012.129-1.064-.026-1.168-.334-1.168-.462-1.297-.668-1.246-.848-1.194-1.053-1.168-1.208-1.142-1.387-1.064-1.439-.908-1.516-.83-1.593-.675-1.644-.545-1.593-.286-1.593-.234-1.567v-1.464l.078-1.336.286-1.182.441-.976.545-.9.675-.668.726-.462.909-.283 1.012-.154 1.038.052zm13.288 11.612l-.649-1.695c0-.026-.026-.026-.026-.026-.026-.026 0-.052 0-.052l-.882-1.67-.026-.025-.96-1.619-.026-.025v-.026l-1.064-1.49c0-.026-.026-.026-.026-.026 0-.026 0-.026-.026-.051l-1.168-1.336v-.026c-.026 0-.026-.026-.026-.026l-1.272-1.31h-.026c-.026-.026 0-.026-.026-.051l-1.271-1.054h-.026v-.025l-1.324-.951c-.026-.026-.052 0-.078-.026-.026 0-.026-.025-.026-.051l-1.323-.642h-.026l-.026-.026-1.324-.565h-.052c-.026 0-.052-.026-.078-.026l-1.168-.283.857-.488 18.608 10.637.26.693.311 1.44-1.765.975-.025.026-.909.54c-.052.025-.052.077-.078.102-.026.026-.078 0-.104.052l-.752.796c-.026 0 0 .052-.026.052-.026.025-.052.025-.052.05l-.623.952v.077c-.026 0-.052.025-.052.025l-.519 1.156c0 .026.026.052 0 .078 0 .025-.026.025-.026.05l-.311 1.311v.052c0 .025-.026.025-.026.05l-.13 1.414v.051c0 .026-.026.026-.026.052l.052 1.541c0 .026.026.026.026.052v.025l.078.745-1.246.745.13-.36v-.025c0-.026 0-.026.026-.051l.337-1.31v-.052c0-.026.026-.051.026-.077l.104-1.464v-.078l-.052-1.541v-.077l-.208-1.567v-.052l-.363-1.67-.026-.025c0-.026.026-.026 0-.052l-.545-1.695c0-.026-.026-.026-.026-.026v-.026zm3.244 7.04l.156-1.31.285-1.208.442-1.028.545-.848.623-.668.752-.462.857-.283 1.012-.128 1.09.026 1.142.282 1.22.463 1.22.693 1.271.874 1.22 1.079 1.22 1.13 1.116 1.362 1.038 1.439.908 1.567.805 1.619.674 1.644.546 1.593.337 1.567.208 1.567.025 1.465-.13 1.336-.285 1.13-.441 1.053-.545.9-.623.616-.778.514-.857.283-.986.128-1.064-.077-1.168-.283-1.22-.462-1.246-.668-1.245-.848-1.22-1.053-1.194-1.208-1.142-1.361-1.038-1.44-.934-1.515-.779-1.619-.675-1.644L38.1 93.3l-.337-1.593-.052-.308-.156-1.208-.052-1.464zm19.05 5.678l-.7-1.696c-.027 0-.027 0-.027-.026v-.025l-.804-1.645c0-.025-.026-.025-.026-.025v-.052l-.987-1.593-.026-.025v-.026l-1.064-1.516h-.026v-.026l-1.167-1.413s-.026 0-.052-.025v-.052L50.4 85.078c-.026 0-.026 0-.026-.026l-1.272-1.105c0-.026-.026 0-.052-.026 0 0 0-.025-.026-.025l-1.297-.925h-.052s0-.026-.026-.026l-1.298-.745c-.026-.026-.052 0-.078-.026-.026 0-.026-.025-.051-.025l-1.298-.514h-.052c-.026 0-.026-.026-.052-.026l-1.194-.282.857-.489L63.092 91.45l.208.745.389 1.593.182 1.542.052 1.413-.13 1.336-.338 1.207-.13.334-.285.642-.519.9-.649.616-.804.54-3.997 2.286.182-.41v-.052c0-.026.051-.026.051-.052l.286-1.258c.026-.026 0-.052 0-.052 0-.026.026-.026.026-.051l.156-1.465c0-.025-.026-.025-.026-.051.026-.026.026-.026.026-.051l-.052-1.542v-.077l-.208-1.619v-.052l-.363-1.67-.026-.026v-.051l-.545-1.67s-.026 0-.026-.026v-.025zm8.954 2.338l-.052-1.516-.026-.026v-.051l-.182-1.593c0-.026-.026-.026-.026-.052v-.051l-.233-.9L92.03 108.15l9.732 5.498 6.151 3.52-3.27 1.85c-.026 0-.026.025-.026.025h-.026l-.908.59c-.026.027-.026.052-.052.078-.026.026-.052 0-.078.026l-.805.796c-.026.026-.026.077-.026.103-.025 0-.077 0-.077.051l-.208.309-37.424-21.427.311-1.156c0-.026-.026-.026-.026-.052.026-.026.026-.051.052-.077l.13-1.439c.026-.025 0-.025 0-.051 0-.026.026-.026.026-.051zm36.983 29.185l.156-1.31.285-1.182.441-1.027.52-.848.7-.668.753-.514.882-.257.96-.154 1.064.077 1.142.283 1.22.462 1.246.642 1.246.874 1.22 1.053 1.167 1.208 1.168 1.361 1.038 1.44.935 1.566.778 1.593.701 1.619.52 1.644.337 1.567.207 1.542.052 1.464-.156 1.31-.285 1.208-.39 1.028-.57.822-.701.668-.727.488-.908.334-.935.128-1.064-.077-1.167-.282-1.168-.463-1.298-.668-1.246-.848-1.22-1.053-1.167-1.207-1.168-1.362-1.038-1.464-.935-1.542-.778-1.619-.701-1.618-.467-1.619-.39-1.593-.207-1.541-.052-1.465zm19.05 5.653l-.701-1.645s-.026 0-.026-.025v-.026l-.805-1.644-.026-.026v-.026l-.96-1.618c-.026 0-.026 0-.026-.026l-.026-.026-1.064-1.49c0-.025-.026-.025-.026-.025v-.052l-1.22-1.387c0-.026-.026-.026-.026-.026v-.026l-1.22-1.233-.025-.025c-.026 0-.026-.026-.026-.026l-1.272-1.105c0-.026-.026 0-.052-.026 0 0 0-.025-.026-.025l-1.298-.925h-.051c-.026 0-.026-.026-.026-.026l-1.324-.72h-.052c-.026 0-.026-.025-.052-.025l-1.298-.514h-.051c-.026 0-.026-.025-.052-.025l-1.194-.283 4.438-2.518.856-.308.986-.129 1.065.026.83.206.311.077 1.168.462.078.051 1.22.643 1.246.873 1.22 1.08 1.22 1.13 1.115 1.361.182.257.856 1.182.701 1.208.208.36.804 1.618v.026c.026 0 .026 0 .026.025v.026l.65 1.567.207.617v.026l.337.95.338 1.567.207 1.593.052 1.465-.156 1.31-.26 1.13-.18.386v.025l-.286.643-.545.899-.623.617-.83.54-3.946 2.234.156-.385v-.052c0-.025.026-.025.026-.05l.312-1.311v-.052l.026-.025.155-1.413c0-.026-.026-.026-.026-.052 0-.025.026-.051.026-.051l-.052-1.567-.026-.026c0-.026.026-.026.026-.051l-.207-1.593c0-.026-.026-.026-.026-.026v-.051l-.338-1.645c0-.025-.026-.025-.026-.051v-.026l-.57-1.695c0-.026-.027-.026-.027-.026v-.051zm8.953 2.44l-.052-1.567-.026-.026v-.025l-.181-1.67-.026-.026v-.051l-.182-.874 2.959 1.696v7.04l-2.959-1.696.286-1.182v-.051c0-.026 0-.052.026-.052l.13-1.413c.025-.026 0-.026 0-.051 0-.026.025-.026.025-.052zm4.049-23.276l-7.578-2.159 24.63-14.156 3.762 4.342-20.814 11.973zm0 20.733l24.785-14.182v7.065l-24.785 14.156v-7.04zm25.953-16.186l-2.88-1.619v-12.537l.778.925 1.064 1.439.882 1.541.83 1.593.65 1.644.545 1.696.389 1.567.182 1.516v1.413l-.13 1.387-.234 1.182-.44.976-.546.874-.675.642v-3.571c0-.026-.052-.051-.052-.077 0-.077-.025-.129-.051-.206-.026-.025 0-.051-.026-.102 0-.026-.052-.026-.078-.052a.311.311 0 0 0-.13-.128c-.026-.026-.026-.077-.078-.103zm-4.438.745l-20.71 11.793v-15.775l20.71-11.895v15.877zm-22.268 4.83v7.065l-5.32-2.594-.753-1.516c0-.026-.026-.026-.026-.026v-.051l-.96-1.593h-.026c-.026-.026 0-.026-.026-.052l-.57-.796v-2.646l7.681 2.21zm-7.708-3.93v-7.066l7.708 2.21v7.065l-7.708-2.21zm24.682-23.817l-24.863 14.285-3.634-22.352 24.915-14.233 3.582 22.3zm-30.054-7.99l3.841 23.56v10.61l-.182-.231s-1.271-1.208-1.297-1.208l-1.35-1.156-1.375-.95-1.947-1.028-2.232-.591-1.272-.103-1.427.206-1.012.36-3.063 1.618-6.462-3.674V74.929l17.778 10.2zm25.512-15.544l-24.811 14.157-17.7-10.149 24.81-14.156 17.7 10.148zm-53.022 36.56v-3.854l8.175-4.625v3.751l-1.635.925h-.026l-5.658 3.315-.856.488zm40.201-45.68l-4.49-2.595h-.104c-.103-.051-.181-.051-.285-.051-.104 0-.208 0-.286.05h-.103l-26.369 15.056c-.026.026-.026.077-.078.103-.052.026-.078.077-.13.129-.025.025-.051.025-.077.05-.026.052 0 .078-.026.104-.026.077-.026.128-.026.205-.026.026-.052.052-.052.077v22.3l-8.175 4.625v-25.1l40.201-22.995v8.042zM91.64 75.417v25.101l-3.27-1.875V73.516l3.27 1.901zm40.98-24.33l-40.2 22.994-3.193-1.875 40.097-22.994 3.296 1.875zM0 49.494v5.576c0 .025.052.05.052.102 0 .103.052.18.104.257.052.077.104.154.181.231.026.026.026.052.052.078l20.218 11.407-3.322 1.9c-.026 0-.026.027-.026.027h-.026l-.857.54c-.026.025-.026.05-.051.076-.026.026-.052.026-.078.026l-.805.822c-.026.026-.026.051-.052.077 0 .026-.052.026-.078.051l-.597 1.002v.052l-.051.051-.494 1.105c-.026.026 0 .051 0 .077-.026.026-.052.026-.052.051l-.31 1.31c0 .026.025.026.025.052s-.026.051-.026.051l-.104 1.413v1.67c.026.026 0 .026 0 .052l.26 1.67v.025l.311 1.645c0 .025.026.025.026.051v.052l.545 1.67s.026 0 .026.025v.026l.7 1.696c0 .025.027.025.027.025v.052l.856 1.644c.026 0 .026 0 .026.026l.909 1.567c.026.025.052.025.052.051v.026l1.115 1.49c0 .026.026.026.026.026v.025l1.168 1.388c0 .025.026.025.026.025 0 .026 0 .026.026.026l1.22 1.259h.026v.051l1.272 1.105h.052a.08.08 0 0 1 .026.051l1.323.9c0 .025.026 0 .052.025.026 0 .026.026.026.026l1.376.694c0 .025.025.025.051.025 0 0 0 .026.026.026l1.246.488c.026 0 .052 0 .078.026l1.272.36c.052.025.104.025.181.025l1.22.052h.13l1.168-.154s0-.026.026-.026c.052 0 .078 0 .13-.026l1.012-.334c.026 0 .026-.025.052-.051.026 0 .052 0 .077-.026l4.542-2.595.182.95c.026 0 .026 0 .026.027v.051l.57 1.696c0 .025 0 .025.027.025v.026l.7 1.721.027.026.804 1.67c0 .026.026.026.026.026v.051l.96 1.542c.026 0 .026.025.026.025v.026l1.064 1.49c.026.026.026.026.052.026v.025l1.168 1.414s.026 0 .026.025c0 0 0 .026.026.026l1.272 1.259.026.025 1.271 1.105c0 .026.026 0 .052.026 0 0 0 .026.026.026l1.298.925h.052l.026.025 1.323.72h.052l.026.025 1.324.514h.078c.026 0 .026.026.026.026l1.271.308h.104l1.22.103h.156l1.168-.154h.026c.051-.026.103-.026.13-.026l1.011-.36c.026 0 .026-.025.052-.025.026-.026.052-.026.078-.026l7.708-4.419c.026 0 .026-.026.026-.026h.026l.909-.616c.026 0 .026-.026.051-.052.026-.025.052-.025.078-.025l.753-.771c.026 0 .026-.026.026-.052.026-.025.078-.05.104-.077l.597-1.002 37.294 21.325-.233.54c-.026.025 0 .05 0 .076 0 .026-.052.026-.052.052l-.312 1.31s.026.026.026.051l-.026.026-.155 1.413v.103l.052 1.567v.077l.207 1.593c0 .026.026.026.026.051 0 .026-.026.026-.026.052l.415 1.644v.026l.52 1.721c0 .026.025.026.025.051v.026l.701 1.67c.026 0 .026 0 .026.026l.805 1.67s.026 0 .026.025v.026l.96 1.593c.026.026.026.026.026.051h.026l1.064 1.516c0 .026.026.026.026.026v.026l1.22 1.413h.026v.025l1.22 1.26c.025 0 .025 0 .025.025.026 0 .026.026.026.026l1.272 1.104s.026 0 .052.026c0 0 0 .026.026.026l1.323.899c0 .026.026.026.052.026 0 0 0 .025.026.025l1.35.72h.052c.026 0 .026.025.026.025l1.271.488c.026.026.052.026.078.026.026 0 .026.026.026.026l1.272.282c.026.026.078.026.104.026l1.22.103h.181l1.116-.154s0-.026.026-.026c.052 0 .104 0 .13-.026l1.064-.385.052-.051h.078l7.708-4.368v-.026h.026l.908-.616c.026 0 .026-.052.052-.052.026-.025.052-.025.078-.051l.753-.745c.026 0 .026-.026.026-.051.025-.026.077-.052.103-.103l.597-1.002 3.971 2.286a.697.697 0 0 0 .312.077c.025 0 .051.026.077.026.026 0 .052-.026.078-.026a.697.697 0 0 0 .312-.077l26.342-15.055c.052-.026.052-.051.078-.077a.56.56 0 0 0 .182-.231.765.765 0 0 0 .103-.257c0-.026.026-.052.026-.103v-3.417h.026l.909-.59c.026-.027.026-.052.026-.052.026-.026.052-.026.078-.026l.804-.77c.026 0 0-.026.026-.052.026-.052.078-.052.104-.103l.623-1.002c0-.026-.026-.026 0-.051l.026-.026.519-1.105c0-.025-.026-.077 0-.102 0-.026.052-.052.052-.078l.26-1.31-.027-.026c0-.025.026-.025.026-.025l.156-1.465c0-.025-.026-.025-.026-.051l.026-.026v-1.49c0-.026-.026-.051-.026-.051 0-.026.026-.026.026-.052l-.208-1.618-.026-.026v-.051l-.389-1.67s-.026 0-.026-.026v-.026l-.545-1.695c0-.026-.026-.026-.026-.026v-.026l-.649-1.695c0-.026-.026-.026-.026-.026-.026-.026 0-.051-.026-.051l-.856-1.67v-.026l-.934-1.593c0-.026-.026-.026-.026-.026 0-.025 0-.051-.026-.051l-1.116-1.516c-.026-.026-.026-.026-.026-.051l-1.168-1.336c0-.026-.026-.026-.026-.026v-.026l-.805-.77v-.103c0-.026-.026-.026-.026-.051a.369.369 0 0 0-.051-.18c-.026-.052 0-.103-.026-.154 0-.026-.052-.026-.078-.052a.452.452 0 0 0-.104-.128c-.026 0-.026-.052-.052-.052l-4.931-5.112-3.79-23.585c0-.026-.025-.026-.025-.052 0-.051-.026-.077-.052-.128-.026-.026 0-.052-.026-.103s-.078-.051-.104-.077c-.052-.077-.078-.129-.156-.18l-.026-.026-3.84-2.21-7.709-4.392-1.635-.951V51.087c0-.025-.026-.051-.052-.102 0-.052 0-.129-.026-.18-.026-.026 0-.077-.026-.103-.026-.026-.051-.026-.077-.077l-.13-.129c-.052-.025-.052-.051-.078-.077l-4.853-2.774h-.104c-.104-.052-.182-.052-.286-.052-.103 0-.207 0-.285.052h-.104l-41.68 23.893-.104.051c-.052.026-.104.052-.13.129-.026.025-.078.025-.104.051v.103c-.026.077-.052.128-.052.18 0 .051-.052.077-.052.103v3.558l-13.623 7.44-12.597-6.906-4.218.216-3.893-4.817-24.98-14.292-4.76-.214-3.243-4.55-2.323-1.176-5.57-5.193.28-2.148c.078-.642-.726-.822-.622-1.464L.389 48.826c-.026.026-.026.052-.052.077a.713.713 0 0 0-.13.155c-.025.025-.077.025-.103.051v.103c-.026.077-.052.128-.052.18 0 .051-.052.077-.052.102z" fill="#EA2729"/><path fill="#FFF" d="M42.77 80.042l-.025-.206.181.103z"/><path d="M113.817 132.586c-.002-.007-.007-.012-.01-.02v-.087c0-.029-.029-.044-.031-.075-.003-.023.02-.046.015-.074l-.051-.252c-.006-.018-.024-.026-.029-.041-.005-.02.008-.036.003-.054-.021-.054-.057-.1-.086-.15-.01-.035.008-.069-.008-.105l-.101-.2-.101-.2-.101-.2c-.021-.04-.073-.047-.1-.086-.025-.036-.017-.08-.048-.113l-.154-.151-.153-.152-.153-.151-.153-.152c-.02-.02-.052-.013-.073-.03-.023-.016-.023-.05-.046-.068-.029-.018-.068-.005-.099-.02-.026-.023-.026-.06-.054-.08-.016-.01-.04 0-.055-.01a.772.772 0 0 0-.53-.218c-.04 0-.082.018-.124.023-.065-.016-.109-.072-.179-.072-.065 0-.127.023-.19.038-.036.005-.064-.025-.1-.015l-.115.028c-.002 0-.002.003-.005.003l-.08.02c-.019.005-.026.026-.042.031-.02.005-.036.018-.057.023-.02.008-.042-.005-.062.005-.024.013-.04.034-.06.047l-.005.002c-.01.005-.026-.005-.037.003-.015.007-.023.02-.036.028-.078.049-.145.085-.202.157-.021.025-.037.051-.055.08-.047.05-.122.066-.156.13 0 .008.003.016 0 .02-.026.037-.01.086-.028.122l-.04.04c-.022.029-.067.034-.085.07-.026.052 0 .11-.015.165-.042.095-.117.17-.117.28 0 .036.015.066.02.102-.002.018-.02.029-.02.05v.4c0 .072.023.141.041.21.003.047-.028.083-.018.127l.052.2c.01.033.042.049.055.08.007.025-.008.054.005.08l.065.125.028.116c.01.033.042.049.055.08.008.025-.008.053.005.079l.101.2.101.2c.026.052.078.078.115.124.018.02.01.052.03.075l.203.2c.013.013.034.008.047.018.026.044.018.095.054.134l.154.151c.02.02.051.013.072.031.024.015.024.049.047.067.031.02.073.013.106.03.024.016.021.052.047.07.05.033.117.028.174.051.06.042.09.116.163.142.045.015.094.015.143.02.125.082.25.167.408.167.036 0 .067-.015.103-.02.019.002.032.02.05.02.036 0 .067-.015.104-.02.018.002.03.02.049.02.036 0 .067-.015.104-.02.018.002.03.02.049.02.05 0 .086-.046.135-.054.018-.007.039-.018.06-.025a.783.783 0 0 0 .23-.095l.024-.006c.003-.002.008-.007.01-.007.026-.02.065-.016.089-.039.013-.013.007-.033.02-.049.024-.018.05-.033.073-.054.005-.005.013-.002.018-.007v-.003c.029-.02.065-.013.091-.038.018-.016.013-.044.029-.062.083-.07.168-.136.22-.236.013-.031-.002-.06.008-.09.026-.041.07-.065.086-.113.018-.052-.013-.106-.008-.16.031-.082.098-.144.098-.233 0-.01-.005-.021-.005-.031l.034-.136c.02-.075-.029-.14-.031-.211-.003-.075.041-.147.015-.219M26.553 82.858c0-.072-.023-.141-.044-.21 0-.047.031-.083.021-.126l-.052-.2-.052-.201-.052-.2c-.007-.029-.041-.042-.052-.07-.01-.03.006-.059-.007-.09l-.102-.2-.1-.2c-.024-.04-.07-.047-.1-.085-.025-.036-.015-.08-.049-.113l-.057-.057-.05-.095c-.022-.039-.072-.046-.098-.085-.026-.036-.015-.08-.05-.113l-.152-.151-.153-.152c-.018-.02-.05-.013-.073-.03-.02-.016-.02-.05-.047-.068-.028-.018-.065-.005-.096-.02-.023-.023-.023-.06-.054-.08-.016-.01-.037 0-.052-.01-.029-.026-.07-.023-.101-.046-.102-.103-.195-.216-.346-.252l-.202-.051c-.036-.01-.062.02-.096.015-.036-.005-.054-.039-.09-.039-.037 0-.068.016-.105.021-.018-.003-.028-.02-.049-.02-.023 0-.044.012-.067.012-.013 0-.021-.013-.034-.013a.846.846 0 0 0-.327.067c-.057.016-.12-.015-.174.013-.02.013-.036.033-.06.049-.013.005-.026-.005-.041.002a.824.824 0 0 0-.27.23c-.04.032-.099.038-.13.084-.026.036-.01.087-.028.13-.037.042-.097.05-.122.101-.019.036.002.075-.01.108-.022.039-.068.051-.084.095-.008.028.01.057.005.087-.01.024-.044.034-.054.062-.016.051.015.105.01.16-.031.082-.098.143-.098.233 0 .036.015.067.02.103-.002.018-.02.028-.02.049v.2c0 .046.041.072.049.116.005.046-.026.085-.01.128.005.018.025.026.03.044.003.005-.005.01-.002.015l.052.252c.003.008.008.01.01.018.003.008-.002.013-.002.018l.052.2c.015.057.06.083.085.131.016.036 0 .078.021.11.01.016.029.021.036.034l.094.229c.01.028.044.044.06.075.012.017 0 .043.012.064.026.036.07.056.102.09.018.03.005.066.026.095l.153.2c.03.044.08.064.117.098.028.043.018.097.057.136l.153.151c.034.034.078.024.114.05.036.025.044.074.086.097l.176.087c.02.016.02.05.047.065.05.033.117.028.171.05.06.042.09.117.164.142a.87.87 0 0 0 .27.041h.007c.044.005.073.05.12.05.036 0 .067-.016.103-.021.019.002.029.02.05.02.036 0 .067-.015.104-.02.018.002.03.02.049.02.018 0 .039-.01.06-.013.015 0 .026.016.041.016a.813.813 0 0 0 .247-.041.845.845 0 0 0 .225-.126c.08-.036.17-.036.237-.09.028-.034.018-.067.044-.1.015-.016.039-.008.054-.024.018-.015.013-.043.029-.061.083-.07.166-.136.22-.237.013-.03-.002-.059.008-.09.026-.04.068-.064.086-.113.008-.023-.01-.05-.005-.077.013-.028.044-.04.054-.072.016-.05-.015-.105-.01-.159.03-.082.098-.144.098-.234v-.208z" fill="#EA2729"/><path d="M73.326 73.306L53.931 59.412l25.123-14.439 19.473 13.92-25.2 14.413zm-.916 8.74l-11.134-6.294s.312-.797.312-.822c0 0 .103-1.49.077-1.49l-.13-1.49-.518-1.568-.753-1.361s-.908-1.31-.934-1.31l-1.22-1.208c0-.026-1.246-.848-1.272-.848a92.4 92.4 0 0 1-1.298-.334h-1.167c-.078 0-1.09.36-1.09.36-.026 0-.753.822-.753.822-.026.026-.467 1.002-.467 1.002 0 .026-.26 1.362-.26 1.362 0 .025.208 1.284.208 1.284 0 .026.026.334.026.334L27.874 56.612s.39-.977.39-1.002c0 0 .181-1.49.155-1.516 0 0-.26-1.722-.181-1.593 0 0-.597-1.542-.597-1.567 0 0-.883-1.413-.909-1.413 0 0-.908-1.13-.934-1.157l-1.116-.847c0-.026-.986-.745-.986-.745-.026 0-1.401-.514-1.401-.514l-1.22.103-1.038.334c-.026 0-.779.693-.779.693a41.792 41.792 0 0 0-.545 1.028c0 .026-.104 1.464-.104 1.464 0 .026.208 1.567.208 1.567l-1.09-.616-5.165-4.882v-9.197l8.611.336 21.303 11.104 9.898 11.528c.026 0 .026 0 .052.026 0 .026.026.051.026.051l20.044 14.46-.086 7.79zM60.238 74.7l-.337.745-.494.462-.674.257-.83-.128-.987-.412-.986-.693-.96-1.002-.78-1.156-.674-1.31-.39-1.285-.129-1.233.13-1.105.337-.745.52-.411.674-.232.83.078.935.41 1.038.669.934 1.027.83 1.233.624 1.285.389 1.31.13 1.182-.13 1.054zM26.992 55.66l-.337.77-.545.489-.623.205-.83-.077-.935-.385-.986-.77-.96-.951-.831-1.208-.675-1.31-.39-1.285-.129-1.233.13-1.053.337-.745.52-.411.7-.232.857.077.908.411 1.012.771.934.95.805 1.208.649 1.31.389 1.285.13 1.182-.13 1.002zm11.497-34.042l7.314.106-24.578 14.002-7.261-.054 24.525-14.054zm29.732 11.133L43.202 47.036 22.68 36.395 47.646 22.11 68.22 32.752zm32.044 25.756L79.86 43.74l-9.847-11.502a1.266 1.266 0 0 0-.337-.309S47.93 20.62 47.827 20.62l-9.234-.464h-.182a.836.836 0 0 0-.493.128L11.602 35.34a.92.92 0 0 0-.493.822v9.994c0 .283.104.514.285.694l5.347 5.087c.077.051.13.102.207.128l2.128 1.233.571 1.105c.026.026.026.077.052.103l.883 1.284a.311.311 0 0 0 .13.129l1.012 1.028.077.077 1.064.822a.78.78 0 0 0 .208.103l1.064.462a.697.697 0 0 0 .312.077l1.012.103h.078c.103 0 .207-.026.311-.052l.83-.282a.742.742 0 0 0 .364-.206l.156-.154 25.122 14.439.571 1.105c0 .025.026.077.052.102l.83 1.234c.027.051.079.077.104.128l1.013 1.053c.052.026.077.078.13.103l1.063.771c.052.051.13.103.208.128l1.09.437c.078.052.182.052.26.077l1.012.129a.236.236 0 0 0 .13.025.806.806 0 0 0 .337-.077l.882-.308c.104-.051.234-.103.312-.205l.13-.103 12.327 7.04c.156.076.312.128.493.128.156 0 .338-.052.494-.129l13.884-7.938c-.103-.232-.207-.489-.363-.694a1.39 1.39 0 0 1-.285-.591L73.76 82.303l.033-7.738 25.33-14.516-.033 5.529c.467-.308.96-.617 1.48-.874l.033-5.477c0-.283-.13-.54-.338-.72z" fill="#FFF"/></g></svg>