<svg width="228" height="167" viewBox="0 0 228 167" xmlns="http://www.w3.org/2000/svg"><title>Group 25</title><g fill="none" fill-rule="evenodd"><path d="M183.132 88.672v51.944H65.57l20.91-11.973.672 1.935 8.209 4.335 2.736 1.135h3.227l3.563-1.445 4.517-4.67 2.582-4.516 1.6-5.651 4.027 2.58 3.873 1.29 4.362-1.29 3.718-3.07 3.536-4.335 2.917-7.277-.49-6.915-3.227-2.916-4.027-2.245 32.76-19.044s5.007 2.89 5.808 3.38c.8.491 1.78 4.207 1.78 4.207l6.61 3.87 4.672 1.755 3.227-1.084z" fill="#EA2729"/><path d="M101.957 124.268l.052.201c.005.026.03.036.039.06 0 .02-.01.036-.01.054 0 .11.074.186.115.281.016.054-.01.114.016.165.052.1.137.168.22.238.015.018.01.046.028.062.013.012.036.007.051.023.016.02.01.054.029.07.103.105.245.12.38.157l.053.023c.006.003.01.008.019.008l.023.018c.015.008.033.005.049.013.015 0 .028.018.046.018.005 0 .008-.005.013-.005.08.028.16.056.24.056.024 0 .042-.018.065-.02.03.005.057.018.088.018.046 0 .074-.044.118-.05h.008a.847.847 0 0 0 .269-.04c.015-.008.02-.026.038-.037.039-.005.078-.005.114-.015.015-.008.02-.026.039-.036.038-.005.077-.005.113-.016.072-.025.103-.1.163-.142.057-.023.124-.018.173-.051.015-.01.013-.031.028-.044.029-.013.054-.031.083-.049.013-.005.03-.005.041-.01.018-.013.016-.04.034-.052.054-.041.113-.072.157-.132l.124-.165.106-.103c.039-.039.028-.093.057-.137.038-.033.085-.054.116-.098l.152-.201c.02-.028.008-.065.026-.095.031-.034.075-.055.1-.09.014-.021 0-.047.014-.065.015-.031.049-.047.059-.075l.1-.253c.014-.036-.01-.065 0-.1.019-.037.055-.055.068-.094.015-.043-.016-.082-.008-.129.008-.043.049-.07.049-.116v-.105l.028-.111.052-.202c.039-.152-.015-.291-.064-.43-.003-.034.023-.06.012-.094l-.028-.113v-.003c0-.002-.003-.005-.003-.005l-.02-.08c-.005-.02-.026-.026-.031-.044-.01-.056-.041-.1-.062-.155-.016-.054.01-.113-.016-.165-.018-.036-.062-.04-.085-.07-.015-.02-.033-.028-.051-.046-.013-.015-.034-.026-.05-.041-.03-.046-.025-.106-.061-.145-.019-.018-.05-.012-.068-.028-.012-.015-.007-.046-.023-.06 0-.002-.005-.002-.005-.004-.003 0 0-.006-.003-.008-.046-.047-.11-.039-.162-.067a.89.89 0 0 0-.243-.145c-.015-.01-.028-.028-.046-.036-.055-.028-.114.003-.173-.013a.834.834 0 0 0-.326-.067c-.09 0-.152.067-.234.098-.055.005-.109-.026-.16-.01-.029.01-.037.044-.062.054-.029.005-.06-.015-.088-.005-.083.028-.114.108-.18.157-.053.023-.112.005-.158.036-.029.021-.029.057-.055.08-.03.016-.07.003-.098.021-.028.02-.028.057-.054.08-.03.016-.07.003-.098.02-.023.019-.023.052-.046.068-.021.018-.052.01-.073.03l-.152.153-.152.152c-.034.034-.024.08-.05.116-.036.034-.07.065-.1.104-.005.007-.018.005-.026.015l-.152.201c-.016.02-.005.05-.018.07-.013.02-.044.023-.055.046l-.1.202-.1.201c-.014.03.002.06-.006.09-.01.029-.044.042-.052.07l-.051.201c-.008.034.018.06.015.096-.005.036-.039.054-.039.09v.088c-.002.007-.007.013-.01.02-.002.01.005.021.003.034-.003.01-.016.013-.018.026l-.052.201c-.015.064.028.121.028.186 0 .064-.051.137-.036.201" fill="#EB0029"/><path d="M89.63 63.526l-9.99 5.78 1.548.877 10.017-5.754-1.575-.903zm42.207-24.36l-7.512 4.336-1.368.8 1.575.877 1.342-.774 2.604 2.26.83-4.331 12.984-9.205-10.455 6.038zm70.346-21.158l-.903-.542-1.6.929.929.516 1.574-.903zm23.88 20.307L208.688 48.38l-19.155 11.018-3.02 1.78-19.155 11.019-6.557 3.845-32.734 18.837-19.154 11.044-3.02 1.754-19.155 11.044-14.276 8.284v-3.845l4.414-2.555 149.185-86.108v3.82zm-14.69 13.547l.956.155.877.284.749.465.671.67.517.826.413 1.058.335 1.187.078 1.316v1.471l-.181 1.548-.387 1.652-.49 1.6-.672 1.651-.774 1.6-.981 1.522-.981 1.471-1.188 1.368-1.136 1.187-1.265 1.083-1.265.852-1.161.67-1.265.465-1.162.284-1.007.078-1.006-.13-.827-.283-.774-.516-.697-.697-.516-.826-.413-1.032-.259-1.161-.154-1.368v-1.445l.258-1.496.335-1.652.517-1.6.697-1.651.774-1.626.93-1.574 1.032-1.445 1.136-1.367 1.136-1.213 1.239-1.007 1.265-.903 1.239-.645 1.162-.49 1.187-.284 1.059-.052zm-14.869 13.419c0 .051-.026.051-.026.077l-.361 1.729-.258 1.574c0 .026.026.051.026.077 0 .017-.01.56-.026 1.626.026.052 0 .052 0 .077l.155 1.445c0 .018.008.052.025.104l.284 1.264.052.052c0 .017.052.172.155.464l-1.29-.748.102-.749v-.077l.052-1.574c-.026-.052 0-.077 0-.103l-.155-1.394a.422.422 0 0 0-.026-.103l-.284-1.316c-.025-.026-.051-.026-.051-.052l-.44-1.212c-.025-.026-.05-.026-.077-.052 0-.052 0-.077-.025-.103l-.646-.955c-.026-.026-.051-.026-.051-.051-.026 0-.026-.052-.052-.052l-.8-.8c-.026-.026-.052-.026-.078-.052-.026-.025-.026-.051-.051-.077l-.904-.542-1.73-1.006.284-1.445.259-.697 18.509-10.683.852.49-1.213.284c-.026 0-.052.026-.078.052l-1.316.542-1.343.67c-.026.026-.026.052-.051.052-.026.026-.052 0-.078.026l-1.316.955-1.317 1.084c-.017 0-.043.017-.077.051l-1.214 1.265c-.026.051-.026.051-.051.051l-1.162 1.42-1.084 1.548-.981 1.651a.3.3 0 0 0-.052.078l-.8 1.651-.723 1.755-.568 1.729zm-2.71 6.838l-.155 1.212-.052.31-.387 1.626-.49 1.625-.672 1.652-.774 1.574-.93 1.574-1.007 1.445-1.187 1.367-1.162 1.213-1.265 1.058-1.187.878-1.24.645-1.213.464-1.135.284-1.059.077-.955-.154-.93-.284-.748-.49-.62-.62-.542-.903-.438-1.032-.284-1.213-.13-1.29.026-1.471.207-1.574.335-1.574.543-1.652.67-1.6.801-1.625.93-1.548 1.006-1.471 1.136-1.368 1.136-1.187 1.265-1.032 1.265-.851 1.265-.723 1.161-.464 1.136-.258 1.084-.052.956.077.826.336.774.49.697.671.568.826.413 1.032.258 1.213.155 1.316-.052 1.47zm-18.923 4.257l-.568 1.703v.078l-.361 1.677-.207 1.677-.077 1.626c.026.077 0 .077 0 .103l.155 1.42.025.077.31 1.316c0 .025.026.051.026.077.017.017.078.172.18.465l-3.949-2.297-.8-.516-.646-.697-.542-.851-.439-.98-.284-1.188c0-.077.026-.077.026-.103l-.103-1.29v-1.394l.18-1.548.336-1.651.258-.671 18.51-10.683.852.49-1.188.284-.051.052-1.317.49-.077.052-1.369.748c-.025.051-.025.051-.051.051l-1.317.904c-.017 0-.473.36-1.368 1.083-.026.052-.052.052-.077.078l-1.214 1.264-1.187 1.445-.052.052-1.058 1.496-.981 1.678-.826 1.703-.723 1.703c0 .051-.026.051-.026.077zm-44.17 22.011l1.007.155.904.284.723.464.67.671.543.903.439.98.284 1.188.077 1.341v1.471l-.232 1.574-.284 1.6-.542 1.6-.671 1.651-.826 1.6-.904 1.523-1.058 1.445-1.136 1.393-1.162 1.213-1.187 1.058-1.24.851-1.29.671-1.162.465-1.162.335-1.058.026-1.007-.129-.852-.31-.748-.49-.646-.697-.568-.8-.413-1.006-.335-1.213-.078-1.341.052-1.497.18-1.47.336-1.6.542-1.678.646-1.651.826-1.6.93-1.574 1.006-1.445 1.136-1.316 1.213-1.265 1.188-1.006 1.264-.903 1.24-.62 1.213-.516 1.11-.283 1.033-.052zm-14.817 13.47c-.017.017-.026.043-.026.077l-.362 1.677-.206 1.626v.077l-.052 1.549v.077l.104 1.47c0 .027.025.052.025.078l.336 1.368c.017.017.026.043.026.077l.129.362-1.24-.749.078-.748c0-.052.026-.052.026-.078l.052-1.548a.422.422 0 0 0-.026-.103l-.13-1.42a.422.422 0 0 0-.025-.102l-.31-1.316c-.051-.078-.026-.104-.026-.13l-.516-1.16-.052-.104-.62-.955c0-.025-.025-.025-.05-.051-.018 0-.276-.284-.775-.852-.026-.051-.078-.026-.103-.051-.026-.026-.026-.078-.078-.104l-.903-.541-1.782-1.007.31-1.445.258-.697 18.51-10.682.852.49-1.162.284c-.026 0-.052.026-.078.026l-1.368.567-1.368.671c-.052.078-.077.052-.103.078l-1.317.954-1.29 1.084-.052.052-1.265 1.316-1.188 1.393c-.025.052-.051.052-.051.078l-1.059 1.496-.98 1.677-.904 1.703c0 .052-.026.052-.026.078l-.645 1.703-.568 1.755zm-2.71 6.786l-.156 1.213-.051.31-.336 1.6-.542 1.65-.671 1.652-.775 1.626-.93 1.522-1.032 1.445-1.136 1.368-1.187 1.213-1.213 1.058-1.24.851-1.239.671-1.213.465-1.162.283-1.058.078-.981-.13-.852-.283-.774-.516-.62-.62-.542-.903-.439-1.057-.284-1.136-.129-1.342.026-1.47.206-1.575.336-1.574.542-1.6.671-1.65.8-1.627.904-1.574 1.033-1.445 1.11-1.367 1.213-1.136 1.213-1.083 1.265-.878 1.214-.696 1.213-.465 1.136-.284 1.084-.025 1.007.129.852.283.748.465.62.67.542.852.439 1.032.284 1.213.155 1.316-.052 1.471zm-19.465 5.96l-.026.078-.362 1.677-.206 1.678v.077l-.052 1.548c.026.078 0 .078 0 .104l.155 1.47c.026.052 0 .078.026.104l.284 1.264c0 .026.052.026.052.052l.18.464-3.975-2.296-.8-.542-.646-.62-.516-.903-.284-.645-.13-.335-.335-1.213-.129-1.342.052-1.42.18-1.547.388-1.6.206-.749 18.51-10.657.851.49-1.187.285a.423.423 0 0 0-.103.025l-1.291.516c-.078.052-.103.026-.13.052l-1.29.748a.198.198 0 0 0-.077.026l-1.291.93c-.052.05-.078.025-.078.05l-1.264 1.11c0 .017-.43.422-1.291 1.213-.026.077-.052.077-.052.077l-1.162 1.42-1.084 1.548-1.007 1.651c0 .052-.025.052-.025.078l-.8 1.651-.723 1.755-.568 1.729zm-8.184 2.168c.026.026.026.052.052.078 0 .017.095.421.284 1.212l-24.137 13.883-.207-.31c0-.051-.051-.051-.077-.051 0-.026 0-.078-.026-.103l-.8-.8c-.104-.052-.104-.078-.13-.104l-.903-.593-3.304-1.884 6.118-3.535 9.68-5.522 13.812-8.025-.233.903c0 .078-.026.078-.026.103l-.18 1.6-.026.078-.052 1.522c.018.052.07.568.155 1.548zM61.62 148.37l-.206 1.548-.387 1.6-.465 1.626-.697 1.626-.774 1.625-.93 1.548-1.032 1.471-1.162 1.368-1.162 1.213-1.213 1.058-1.24.851-1.29.671-1.162.465-1.161.283-1.059.078-.929-.13-.903-.335-.723-.49-.697-.67-.568-.827-.387-1.032-.284-1.213-.155-1.316.051-1.47.207-1.549.335-1.574.517-1.651.697-1.626.774-1.6.93-1.574 1.032-1.445 1.162-1.367 1.161-1.213 1.214-1.058 1.239-.877 1.239-.645 1.213-.465 1.136-.284 1.059-.077.955.155.877.258.75.516.696.67.516.852.44 1.032.283 1.187.155 1.316-.052 1.471zm-18.922 4.284l-.568 1.703c0 .051-.026.051-.026.077l-.335 1.652c0 .051-.026.051-.026.077l-.207 1.6-.051 1.651c.026.078 0 .078 0 .103l.155 1.42.025.077.31 1.316c0 .017.009.052.026.103l.155.387-3.924-2.245-.826-.541-.62-.62-.542-.903-.284-.645-.18-.413-.259-1.135-.154-1.316.051-1.471.207-1.6.335-1.574.336-.955.206-.645.646-1.574.026-.077.8-1.626.206-.361.697-1.213.852-1.187.181-.258 1.11-1.368 1.213-1.135 1.214-1.084 1.239-.877 1.213-.645.078-.052 1.161-.464.31-.078.826-.206 1.059-.026.98.13.852.309 4.415 2.529-1.188.283a.423.423 0 0 0-.103.026l-1.29.516a.423.423 0 0 0-.104.026l-1.317.723-.077.025-1.29.93c-.052.051-.078.025-.078.051l-1.265 1.11-.052.051-1.213 1.239-1.24 1.445c0 .051-.025.051-.025.077l-1.058 1.497c-.026.051-.026.051-.052.051l-.955 1.626-.826 1.703-.723 1.703c0 .052-.026.052-.026.078zm-8.854 2.477l.129 1.419c.025 0 .025.026.025.052v.051l.284 1.187-2.943 1.703v-7.07l2.943-1.703-.18.877v.052l-.026.026-.18 1.677-.027.052-.051 1.574c0 .025.026.025.026.051 0 .026-.026.026 0 .052zM9.087 119.624l3.743-4.361 24.5 14.217-7.538 2.167-20.704-12.024zm20.704 39.918L5.137 145.324v-7.096l24.654 14.244v7.07zM3.769 136.448c-.026.026-.077.026-.077.051-.026.052 0 .078-.026.104-.026.077-.052.129-.052.206 0 .026-.052.052-.052.077v3.587l-.67-.645-.543-.877-.439-.98-.232-1.188-.13-1.393v-1.42l.182-1.522.387-1.574.542-1.703.645-1.651.826-1.6.878-1.548 1.059-1.445.774-.93v12.593l-2.865 1.626c-.052.025-.052.077-.078.103a.311.311 0 0 0-.129.129zm4.62-15.431l20.601 11.947v15.844l-20.6-11.844v-15.947zm29.791 18.579v2.658l-.567.8c-.026.025 0 .025-.026.051h-.026l-.955 1.6v.052s-.026 0-.026.025l-.749 1.523-5.292 2.606v-7.096l7.641-2.22zm-7.64.49v-7.096l7.666-2.22v7.097l-7.667 2.22zM17.218 91.55L42 105.844l-3.614 22.45-24.73-14.347 3.562-22.398zm44.014 4.129v37.777l-6.428 3.69-3.046-1.626-1.007-.361-1.42-.207-1.264.103-2.22.594-1.937 1.032-1.368.955-1.342 1.16c-.026 0-1.29 1.214-1.29 1.214l-.182.232v-10.657l3.821-23.662 17.683-10.244zM35.78 80.118l24.679 14.218-17.606 10.192-24.68-14.218L35.78 80.118zm34.282 46.421l-5.628-3.329h-.025l-1.627-.929v-3.767l8.132 4.645v3.87l-.852-.49zM30.926 72.66l30.617 17.676 9.37 5.419v25.623l-8.13-4.644V94.336c-.052-.155-.052-.207-.078-.284-.052-.13-.078-.13-.104-.155-.051-.052-.077-.103-.129-.129a49209.8 49209.8 0 0 1-26.305-15.224c-.18-.052-.284-.052-.387-.052-.104 0-.181 0-.284.052l-4.57 2.606v-8.49zm4.053-3.225L58.342 82.93l3.201 1.832 1.368.8 12.03 6.916-3.253 1.935-8.777-5.057-1.368-.8-29.842-17.237 3.278-1.884zm40.737 50.06l-3.253 1.883V95.755l.051-.026 3.202-1.884v25.65zM227.3 32.535c-.017-.017-5.946-3.449-17.786-10.295l-1.652-.981.593 2.193 1.678.955.181 8.128-4.408 2.852c-1.001 4.084-2.759 6.836-5.273 8.256-2.513 1.42-4.398.75-5.653-2.012l-23.256 13.225c-.529 3.588-2.277 6.56-5.244 8.913-4.45 3.531-4.817-2.878-6.078-2.026-.457.308-2.963 1.505-7.516 3.59l-10.375-5.224 1.55 10.539c-2.152 1.3-3.61 2.427-4.374 3.38-1.282 1.6-2.22 5.16-5.32 8.025-2.267 2.094-4.307 1.56-6.119-1.6l-22.721 12.998c-1.828 4.068-3.505 6.711-5.03 7.93-2.984 2.381-5.082 1.968-6.296-1.24l-7.747 4.13-9.19-5.239v-6.554c-.13-.413-.181-.413-.207-.439-.103-.103-4.819-2.855-14.147-8.257l-1.368-.8v-1.445l5.266-3.045 11.178-8.257-10.455 6.038-8.803 5.083-23.362-13.495h-.775l-4.827 2.787c-.336.438-.336.516-.336.567-.017.035-.034 3.647-.051 10.838l-1.627.955-7.667 4.412-3.82 2.22c-.336.438-.362.464-.362.516 0 .017-1.265 7.93-3.795 23.74l-4.905 5.134c-.284.439-.31.49-.31.568 0 .017-.275.327-.825.929l-1.188 1.393c0 .017-.379.542-1.136 1.574-.017.035-.344.594-.98 1.677l-.853 1.704c-.017.034-.25.627-.697 1.78l-.568 1.755-.413 1.729L0 133.842c.017.034.017.567 0 1.6l.155 1.548.258 1.367c.052.07.241.5.568 1.29l.645 1.084.93.93c.051.016.387.24 1.006.67l.026 3.432c.181.464.233.542.31.593.017.018 8.777 5.084 26.28 15.199.568.077.671.052.774 0l3.95-2.297.594 1.007c.069.086.361.387.877.903.07.034.413.275 1.033.722l7.693 4.413 1.187.439 1.265.206 1.394-.103c.018 0 .474-.103 1.369-.31.034-.017.49-.198 1.368-.542l1.42-.748a74.33 74.33 0 0 0 1.394-.955 118.3 118.3 0 0 1 1.342-1.161c.017-.034.439-.473 1.265-1.316l1.239-1.445 1.084-1.574 1.007-1.651.826-1.73c0-.017.241-.584.723-1.702l.542-1.807.413-1.677c-.017-.052.052-.62.207-1.703l.051-1.651-.155-1.523-.31-1.393c-.034-.052-.129-.276-.283-.671l24.008-13.78.593 1.007c.07.069.362.37.878.903.069.034.413.267 1.033.697l7.718 4.464c.07.017.448.155 1.136.413.017 0 .456.06 1.317.18l1.368-.103 1.368-.31 1.42-.541 1.394-.749 1.368-.955c.035-.034.482-.421 1.343-1.16l1.29-1.29c.018-.035.422-.526 1.214-1.472l1.11-1.548.98-1.6.827-1.754.723-1.755.593-1.755.207-1.032 4.517 2.606c.07.035.448.172 1.136.413l1.317.207 1.342-.052c.052 0 .534-.13 1.446-.387.017-.017.456-.19 1.316-.516a405.7 405.7 0 0 0 1.446-.749c.035-.034.5-.352 1.394-.954l1.342-1.161 1.24-1.316c.017-.018.421-.5 1.213-1.445l1.136-1.549.955-1.651c0-.017.293-.576.878-1.677l.722-1.78.568-1.73.336-1.754.258-1.703v-1.678l-.103-1.47a52.44 52.44 0 0 1-.31-1.42c-.034-.051-.215-.464-.542-1.238a34.252 34.252 0 0 1-.645-1.11c-.07-.052-.379-.37-.93-.955-.069-.034-.396-.25-.98-.645l-3.357-1.935 31.16-17.934 5.033 2.89.258 1.161c.052.07.241.49.568 1.265 0 .017.215.37.645 1.058.052.051.336.352.852.903.07.052.413.292 1.033.722l7.719 4.464c.103.035.516.164 1.239.388l1.187.206c.104.017.568-.009 1.394-.077.018 0 .482-.112 1.394-.336.018-.017.482-.19 1.394-.516l1.394-.748c.018-.017.474-.336 1.369-.955l1.342-1.161c.017-.035.439-.473 1.265-1.316l1.239-1.445c.017-.017.387-.542 1.11-1.574l1.007-1.652.826-1.651.723-1.78.542-1.781.258-1.032 4.492 2.632c.086.034.473.172 1.161.413.087.017.525.086 1.317.206l1.317-.103 1.368-.31 1.445-.542c.052-.034.508-.284 1.369-.748.034-.034.499-.353 1.394-.955.017-.017.473-.404 1.368-1.16.017-.035.439-.474 1.265-1.317l1.239-1.42c0-.016.361-.55 1.084-1.599l1.007-1.574.852-1.755c0-.017.24-.602.723-1.754l.516-1.73.439-1.754c0-.017.069-.585.206-1.703-.017-.034-.017-.602 0-1.703l-.103-1.42c-.017-.068-.146-.55-.387-1.444 0-.017-.155-.43-.465-1.239-.051-.051-.275-.413-.671-1.084-.069-.051-.37-.37-.904-.954-.086-.035-.438-.258-1.058-.671l-3.304-1.91L227.25 39.4c.284-.387.335-.464.335-.568l.052-5.702c-.232-.49-.284-.542-.336-.594zm-70.888-7.534l-10.016 5.754 1.575.903 9.99-5.754-1.549-.903z" fill="#EA2729"/><path d="M50.428 153.804c-.003.073-.052.137-.031.212l.033.137c0 .01-.005.02-.005.03 0 .09.067.153.098.235.006.055-.025.109-.007.16.015.05.059.073.085.114.01.03-.005.06.008.09.051.1.136.168.219.238.015.018.01.046.028.062.026.025.062.018.09.038v.003c.006.005.014.002.019.008.023.02.049.036.072.054.013.015.008.036.02.049.024.023.063.018.089.039.002 0 .007.005.01.007.008.003.015.003.023.005.072.05.15.073.23.096l.06.026c.048.007.084.054.133.054.019 0 .031-.018.05-.02.036.004.067.02.103.02.018 0 .03-.018.049-.02.036.004.067.02.103.02.018 0 .031-.018.05-.02.035.004.066.02.102.02.158 0 .282-.085.406-.168.049-.005.098-.005.142-.02.072-.026.103-.101.162-.142.057-.024.124-.018.173-.052.026-.018.023-.054.047-.07.033-.018.075-.01.106-.03.023-.019.023-.052.046-.068.02-.018.052-.01.072-.03l.153-.153c.036-.039.028-.09.054-.134.013-.01.033-.005.046-.018l.202-.201c.02-.024.013-.055.03-.075.037-.047.088-.073.114-.124l.1-.201.102-.202c.012-.026-.003-.054.005-.08.013-.03.044-.046.054-.08l.028-.116.065-.126c.013-.026-.003-.054.005-.08.013-.031.044-.047.054-.08l.052-.202c.01-.043-.02-.08-.018-.126.018-.07.041-.14.041-.212v-.402c0-.02-.018-.031-.02-.05.005-.035.02-.066.02-.102 0-.111-.075-.186-.116-.282-.016-.054.01-.113-.016-.165-.018-.036-.061-.041-.085-.07a.567.567 0 0 0-.038-.04c-.019-.037-.003-.086-.029-.122-.002-.005 0-.013 0-.02-.033-.065-.108-.08-.155-.132-.018-.029-.033-.054-.054-.08-.057-.072-.124-.109-.201-.158-.013-.007-.02-.02-.036-.028-.01-.008-.026.003-.037-.003l-.005-.002c-.02-.013-.036-.034-.06-.047-.02-.01-.04.003-.061-.005-.02-.005-.036-.018-.057-.023-.015-.005-.023-.026-.041-.03l-.08-.022c-.003 0-.003-.002-.005-.002l-.114-.029c-.036-.01-.064.021-.1.016-.063-.016-.125-.039-.19-.039-.069 0-.113.057-.177.072-.042-.005-.083-.023-.124-.023a.764.764 0 0 0-.527.22c-.015.01-.038 0-.054.01-.028.02-.028.057-.054.08-.031.015-.07.002-.098.02-.023.019-.023.052-.047.068-.02.018-.051.01-.072.03l-.152.153-.153.152-.152.152-.152.153c-.031.033-.023.077-.05.113-.025.039-.077.047-.097.085l-.101.202-.1.2-.101.202c-.016.036.002.07-.008.106-.029.049-.065.095-.085.15-.006.018.007.033.002.054-.005.015-.023.023-.028.041l-.052.253c-.005.028.018.051.016.075-.003.03-.031.046-.031.075v.087c-.003.008-.008.013-.01.02-.026.073.017.145.015.22zm73.692-42.322c0 .09.067.152.098.235.005.054-.026.108-.01.16.01.031.04.044.053.072.006.026-.012.054-.005.078.018.049.06.072.085.113.01.031-.005.06.008.09.054.101.137.168.22.238.015.018.01.046.028.062.016.015.039.008.054.023.026.034.016.067.044.1.067.055.155.055.235.091.07.052.142.098.225.126.08.026.162.042.245.042.015 0 .026-.016.041-.016.02.003.042.013.06.013.018 0 .03-.018.049-.02.036.005.067.02.103.02.02 0 .03-.018.049-.02.036.005.067.02.103.02.047 0 .075-.044.119-.049h.008c.09 0 .183-.013.268-.041.072-.026.103-.1.163-.142.054-.023.121-.018.17-.052.026-.015.026-.049.047-.064l.175-.088c.042-.023.05-.072.085-.098.037-.026.08-.015.114-.049l.152-.152c.039-.039.029-.093.057-.137.036-.034.085-.054.116-.098l.153-.201c.02-.029.007-.065.025-.096.031-.033.075-.054.101-.09.013-.02 0-.047.013-.065.015-.03.049-.046.06-.074l.092-.23c.008-.013.026-.018.036-.034.021-.033.006-.075.021-.11.026-.05.07-.075.085-.132l.052-.201c0-.006-.005-.01-.003-.019.003-.007.008-.01.01-.018l.052-.253c.003-.005-.005-.01-.002-.015.005-.018.025-.026.03-.044.016-.044-.015-.082-.01-.129.008-.044.05-.07.05-.116v-.201c0-.02-.019-.031-.021-.05.005-.035.02-.066.02-.103 0-.09-.067-.152-.098-.234-.005-.055.026-.109.01-.16-.01-.029-.043-.039-.054-.062-.005-.031.013-.06.006-.088-.016-.044-.062-.057-.083-.095-.013-.034.008-.073-.01-.109-.026-.051-.086-.06-.122-.1-.018-.044-.002-.096-.028-.132-.031-.046-.09-.052-.13-.085a.822.822 0 0 0-.268-.23c-.015-.008-.028.003-.041-.002-.023-.016-.039-.037-.06-.05-.054-.028-.116.003-.172-.012a.834.834 0 0 0-.326-.067c-.012 0-.02.012-.033.012-.023 0-.044-.012-.067-.012-.02 0-.031.018-.05.02-.035-.005-.066-.02-.103-.02-.036 0-.054.033-.09.038-.033.005-.06-.026-.095-.015l-.202.051c-.15.036-.242.15-.343.253-.031.023-.072.02-.1.047-.016.01-.037 0-.052.01-.031.02-.031.057-.055.08-.03.015-.067.003-.095.02-.026.019-.026.052-.047.068-.023.018-.054.01-.072.03l-.152.153-.153.152c-.033.034-.023.078-.049.114-.025.038-.074.046-.098.085l-.049.095-.057.057c-.033.034-.023.078-.049.114-.028.038-.074.046-.098.085l-.1.201-.101.201c-.013.031.003.06-.008.09-.01.03-.044.042-.051.07l-.052.202-.052.2-.051.202c-.01.044.02.08.02.127-.02.07-.044.139-.044.211v.21zm84.518-48.279c.005-.036.02-.067.02-.103 0-.036-.033-.054-.038-.09-.005-.037.026-.065.015-.099l-.051-.2c-.031-.12-.13-.187-.202-.274-.01-.029.006-.06-.007-.088-.018-.036-.062-.041-.083-.072-.008-.008-.005-.021-.013-.029-.01-.01-.028-.005-.039-.015-.005-.008-.015-.01-.02-.018-.031-.039-.057-.075-.09-.109-.003 0-.003-.002-.003-.002h-.003a.87.87 0 0 0-.196-.152c-.036-.016-.07.002-.106-.008-.033-.02-.064-.044-.1-.057-.019-.01-.031-.026-.047-.036-.054-.028-.116 0-.173-.013a.834.834 0 0 0-.325-.067c-.036 0-.057.033-.09.039-.003 0-.006 0-.006.002-.051.005-.09.039-.137.057-.054.005-.11-.026-.162-.008-.029.008-.039.042-.062.054-.031.006-.06-.012-.088-.002-.028.008-.039.041-.062.054-.03.005-.06-.013-.088-.003-.07.024-.098.096-.157.135-.034.01-.065-.008-.098.007l-.202.101c-.054.028-.07.095-.116.137-.051.038-.116.038-.157.093l-.153.2c-.015.019-.005.045-.015.065-.005.003-.01.003-.013.006l-.152.152c-.034.03-.023.08-.05.113-.025.037-.074.044-.097.086l-.101.2-.1.202-.101.201c-.013.029.002.06-.008.09s-.044.04-.052.07l-.051.202-.052.2-.052.202c-.01.044.021.083.021.127-.02.07-.044.139-.044.214v.201c0 .093.067.152.098.235.005.054-.026.108-.01.16.01.03.041.044.054.072.005.026-.013.054-.005.077.018.05.06.073.085.114.01.028-.005.062.008.09.054.104.137.17.22.238.015.018.01.049.028.064.02.02.051.013.07.029.038.049.077.074.126.11.002.003.002.008.005.01.023.024.062.016.088.037a.036.036 0 0 1 .01.008c.01.002.016.002.026.005.07.049.15.072.23.095l.06.026c.048.008.084.054.133.054.018 0 .031-.018.05-.02.036.005.066.02.103.02.013 0 .02-.012.033-.012.023.002.044.012.067.012.021 0 .031-.018.05-.02.033.005.061.018.092.018l.01.002c.06 0 .127-.007.186-.023l.202-.051c.09-.024.137-.106.206-.155.062-.023.135-.018.186-.054.026-.016.026-.052.05-.07.033-.016.072-.01.103-.031.025-.016.025-.052.049-.07.033-.015.072-.01.103-.03.026-.016.026-.05.046-.068.024-.018.055-.01.073-.03l.152-.153c.008-.008.005-.023.013-.034.02-.018.046-.028.06-.049l.151-.2c.016-.019.006-.045.016-.065.005-.003.01-.003.013-.006l.152-.152c.029-.028.018-.067.042-.098.043-.054.103-.093.131-.16l.1-.253c.009-.02-.007-.044-.002-.064.01-.01.02-.016.029-.029l.1-.2c.016-.032-.002-.065.008-.099.013-.039.052-.057.057-.098l.052-.25c.007-.042-.024-.072-.024-.111.016-.062.039-.127.039-.191v-.201c0-.018-.018-.031-.02-.05.005-.036.02-.067.02-.103.003-.013-.016-.023-.018-.041zM186.473 75.85c0-.093-.067-.153-.098-.235-.005-.054.026-.109.01-.16-.036-.098-.124-.14-.186-.214-.01-.029.006-.062-.007-.09-.018-.037-.062-.042-.083-.073-.008-.008-.005-.02-.013-.028-.01-.01-.028-.006-.038-.016-.006-.008-.016-.01-.021-.018-.026-.03-.044-.062-.07-.09-.005-.005-.008-.016-.015-.023-.006-.008-.021-.003-.026-.01-.057-.052-.114-.107-.18-.14-.006-.003-.014 0-.019 0-.018-.016-.033-.036-.054-.052-.052-.033-.109-.01-.16-.033a.837.837 0 0 0-.37-.098c-.015 0-.025.015-.04.015h-.019c-.033-.002-.062-.018-.093-.018-.02 0-.03.018-.049.02-.036-.004-.067-.02-.103-.02-.18 0-.336.088-.47.194-.026.005-.054-.013-.077-.003-.083.026-.114.108-.178.157-.052.021-.111.006-.158.037-.008.002-.008.012-.013.018-.007.005-.018 0-.023.005l-.201.152c-.044.031-.042.088-.075.126-.034.024-.08.019-.109.05l-.152.152c-.013.013-.008.036-.023.051-.013.016-.039.013-.052.031l-.152.202c-.016.02-.005.049-.018.07-.013.02-.044.022-.054.048l-.101.202-.1.2-.101.202c-.013.028.002.06-.008.088-.01.028-.044.041-.052.07l-.051.2-.052.202c-.01.044.02.083.02.126-.005.01-.017.013-.02.026l-.052.202c-.015.067.029.12.029.188 0 .067-.044.121-.029.188l.036.134c-.002.01-.007.021-.007.031 0 .109.075.186.116.282.015.054-.01.113.015.165.003.005.008.005.01.01.003.013-.004.026-.002.039.034.095.106.152.165.224.018.037.005.08.026.111.085.13.21.215.343.269.021.013.037.033.055.044.018.007.036.005.054.012.018.01.03.029.049.04a.803.803 0 0 0 .348.082c.024 0 .042-.016.065-.018.031.002.054.015.085.015.02 0 .031-.018.05-.02.035.005.066.02.102.02.05 0 .075-.044.122-.051h.18a.757.757 0 0 0 .499-.207c.026-.013.057-.008.08-.023.026-.016.026-.052.049-.07.033-.015.072-.01.103-.03.026-.016.026-.05.047-.068.023-.018.054-.01.072-.03l.14-.138.004-.005c.013-.005.031-.002.042-.01.02-.01.018-.036.036-.05.054-.04.113-.071.157-.128l.153-.201c.02-.026.005-.06.02-.086.026-.025.06-.036.08-.064l.153-.201c.02-.029.007-.067.025-.098.031-.034.075-.055.101-.09.026-.042.005-.088.026-.13.026-.054.075-.087.088-.15l.023-.11.015-.013c.021-.034.006-.075.021-.111.026-.05.07-.075.085-.13l.052-.2c.01-.034-.02-.062-.016-.098.006-.034.04-.055.04-.09v-.254c0-.018-.019-.03-.022-.049.006-.036.021-.067.021-.103v-.201c0-.018-.018-.031-.02-.05.007-.033.02-.066.02-.102" fill="#EB0029"/><path d="M140.95 53.41c-.052-.232-.206-.412-.413-.541l-11.152-6.425v1.548l9.81 5.65-3.02 1.73.929.542 2.71-1.574 1.033 3.741 1.678.98-1.575-5.65zm2.117 17.496l-3.526 2.005-.142-.89s-.669-1.391-.669-1.417l-.953-.893c-.025-.026-1.445-.322-1.497-.322l-1.458.183s-1.513.627-1.539.627c0 0-1.43 1.045-1.456 1.07l-1.216 1.417-.991 1.58-.831 1.78-.527 1.922v1.417l-23.081 13.4-.09-.831-.67-1.386-.931-.851-1.286-.475-1.479-.02-1.557.415s-1.665 1.174-1.69 1.174c0 .026-1.379 1.285-1.379 1.285l-1.043 1.801c-.026 0-.748 1.79-.748 1.79s-.548 1.97-.548 1.996l-.06 1.697-6.69 3.897.059-8.41 16.398-12.117.129-.13 2.659-8.902 29.506-17.03 1.343-.774 2.71-1.574 1.033 3.741.516 1.858 1.704 6.116v4.85zm-4.698 4.386l-.465 1.6-.775 1.6-.98 1.368-1.136 1.213-1.214.903-1.161.464-1.033.13-.852-.285-.62-.567-.438-.955-.155-1.29.155-1.445.49-1.626.723-1.574.981-1.368 1.162-1.238 1.213-.878 1.162-.541 1.032-.078.852.284.646.593.413.904.154 1.264-.154 1.522zm-34.386 19.844l-.49 1.6-.75 1.548-.98 1.47-1.162 1.162-1.213.929-1.162.464-1.007.103-.851-.283-.646-.568-.413-.93-.155-1.315.155-1.445.439-1.626.8-1.522.981-1.471 1.11-1.213 1.188-.851 1.187-.516 1.059-.104.852.233.62.645.438.929.155 1.29-.155 1.47zM86.22 93.714L63.76 80.729l3.05-2.237 11.177-8.257 1.446-1.058.206.129 1.55.877L102.002 82.2 86.22 93.714zm30.05-53.283l6.687 3.87 1.575.878 3.485 2.013 1.368.8 9.27 5.349-33.182 19.247-14.268-8.159-1.575-.903-6.66-3.845 33.3-19.25zm26.771 20.463l-.516-1.832-1.575-5.651c-.052-.233-.206-.413-.413-.542l-11.152-6.425-1.368-.8-2.143-1.239-1.549-.903-7.615-4.387a.849.849 0 0 0-.44-.103c-.154 0-.335.026-.464.103L81.601 58.881c-.206.13-.361.31-.413.542l-2.555 8.67-11.1 8.18-5.629 4.154c-.232.155-.36.44-.36.723v1.835l1.367.8v-1.86l22.924 13.262v8.232l-8.57-4.955v1.549l8.57 4.954c.13.103.284.129.439.129a.8.8 0 0 0 .465-.129l7.228-4.18c0 .155.026.232.077.31l.465 1.109a.972.972 0 0 0 .232.335l.826.671c.078.078.181.13.284.18l1.033.336c.103.026.18.052.284.052l1.265-.129c.077-.026.155-.026.232-.077l1.265-.49c.077-.052.155-.078.232-.13l1.265-.98 1.317-1.265c.034-.034.421-.593 1.162-1.677l.826-1.755c.017-.017.206-.61.568-1.78.017-.034.068-.465.154-1.29l22.898-13.263c0 .154.026.232.078.335l.516 1.11c.052.103.13.206.207.283l.774.697c.078.077.207.13.31.18l1.032.336a.927.927 0 0 0 .284.052l1.291-.13c.078-.025.155-.05.233-.077l1.29-.516c.052-.017.551-.378 1.498-1.084l1.29-1.341c.018-.018.388-.534 1.11-1.549.018-.034.31-.636.878-1.806.017-.017.198-.62.542-1.806 0-.035.052-.473.155-1.316l4.105-2.374a.901.901 0 0 0 .464-.774v-5.161c0-.103 0-.18-.025-.258l-1.343-4.851zm-2.09-7.483c-.053-.233-.207-.413-.414-.542l-11.152-6.425v1.548l9.81 5.65-3.02 1.73.929.542 2.71-1.574 1.033 3.741 1.678.98-1.575-5.65z" fill="#FFF"/><path d="M207.424 14.722c-.052-.232-.207-.413-.413-.542l-11.152-6.425v1.548l9.81 5.651-3.02 1.73.928.541 2.711-1.574 1.033 3.742 1.678.98-1.575-5.65zm2.117 17.495l-3.527 2.005-.142-.89s-.668-1.39-.668-1.417l-.953-.893c-.026-.025-1.445-.322-1.497-.322l-1.459.183s-1.512.627-1.538.627c0 0-1.43 1.045-1.456 1.071l-1.216 1.417-.991 1.579-.832 1.78-.526 1.923v1.416l-23.081 13.4-.09-.83-.67-1.386-.931-.852-1.286-.475-1.48-.02-1.556.415s-1.665 1.174-1.69 1.174c0 .026-1.38 1.285-1.38 1.285l-1.042 1.801c-.026 0-.749 1.791-.749 1.791s-.547 1.97-.547 1.995l-.06 1.698-6.69 3.896.059-8.41 16.397-12.117.13-.129v-.077h.025v-.026l2.633-8.8L202.235 18l1.342-.774 2.711-1.574 1.033 3.742.516 1.858 1.704 6.115v4.851zm-4.699 4.387l-.464 1.6-.775 1.6-.98 1.367-1.137 1.213-1.213.903-1.162.465-1.032.129-.852-.284-.62-.568-.439-.955-.154-1.29.154-1.445.491-1.626.723-1.574.98-1.367 1.162-1.239 1.214-.877 1.161-.542 1.033-.077.852.283.645.594.413.903.155 1.264-.155 1.523zm-34.385 19.843l-.49 1.6-.75 1.548-.98 1.471-1.162 1.161-1.213.93-1.162.464-1.007.103-.852-.284-.645-.568-.413-.929-.155-1.316.155-1.445.439-1.625.8-1.523.98-1.47 1.111-1.213 1.187-.852 1.188-.516 1.058-.103.852.232.62.645.439.929.155 1.29-.155 1.471zm-17.764-1.422l-22.459-12.984 3.049-2.237 11.178-8.258 1.446-1.058.206.13 1.549.877 20.815 12.017-15.784 11.513zm30.052-53.282l6.686 3.87 1.574.878 3.486 2.012 1.368.8 9.27 5.35L171.946 33.9l-14.268-8.16-1.574-.903-6.66-3.845 33.3-19.25zm28.112 25.313l-1.342-4.85-.516-1.833-1.575-5.65c-.052-.233-.207-.414-.413-.543l-11.152-6.425-1.368-.8-2.143-1.238-1.549-.904-7.615-4.386a.849.849 0 0 0-.44-.103c-.154 0-.335.025-.464.103l-34.205 19.766c-.206.129-.361.31-.413.541l-2.556 8.67-11.1 8.18-5.628 4.155c-.232.155-.361.438-.361.722v3.613l1.368.8v-3.639L152.309 56.5v8.231l-8.57-4.954-1.55-.903v1.548l1.55.903 8.57 4.954c.129.104.284.13.439.13a.79.79 0 0 0 .464-.13l7.228-4.18v.052c0 .103.026.18.078.258l.465 1.11a.982.982 0 0 0 .232.335l.826.67c.077.078.18.13.284.181l1.033.336c.103.026.18.051.284.051h.103l1.161-.129c.078-.025.155-.025.233-.077l1.265-.49c.077-.052.155-.078.232-.13l1.265-.98.077-.077 1.24-1.187a.684.684 0 0 0 .129-.155l1.032-1.523c.026-.051.052-.077.052-.129l.774-1.625a.196.196 0 0 0 .052-.103l.516-1.678c.026-.051.026-.103.026-.155l.13-1.135 22.897-13.263v.052c0 .103.026.18.078.283l.516 1.11c.051.103.129.206.206.284l.775.696c.077.078.206.13.31.181l1.032.336c.078.025.18.051.284.051h.103l1.188-.129.232-.077 1.291-.516a.519.519 0 0 0 .207-.104l1.29-.98c.026-.026.052-.078.104-.103l1.187-1.239c.026-.026.052-.077.077-.103l1.033-1.445c.026-.052.052-.078.078-.13l.8-1.676a.564.564 0 0 0 .077-.13l.465-1.677c0-.051.026-.103.026-.155l.129-1.16 4.104-2.375a.901.901 0 0 0 .465-.774v-5.16c0-.104 0-.181-.026-.259zm-3.433-12.334c-.052-.232-.207-.413-.413-.542l-11.152-6.425v1.548l9.81 5.651-3.02 1.73.928.541 2.711-1.574 1.033 3.742 1.678.98-1.575-5.65z" fill="#FFF"/><path d="M209.54 32.2l-3.717 2.116-.103-.697v-.052c-.026-.025-.026-.051-.026-.051l-.464-1.084c-.026-.026-.052-.051-.052-.077-.026-.026-.052-.052-.052-.078h-.026l-.8-.722a.564.564 0 0 0-.129-.078h-.026l-1.032-.36h-.052c-.052 0-.077-.027-.129-.027l-1.162.104h-.025c-.026 0-.052 0-.078.025h-.077l-1.291.594c0 .026 0 .026-.026.026-.026.025-.026.025-.052.025l-1.264.955c-.026 0-.026 0-.026.026-.026 0-.026 0-.052.026l-1.187 1.264c0 .026 0 .026-.026.026v.026l-1.033 1.445c0 .026-.026.026-.026.051l-.025.026-.775 1.626v.026c0 .025 0 .025-.026.025l-.49 1.73v.025c-.026.026-.026.026-.026.052l-.155 1.29-23.672 13.728-.078-.723c0-.026-.026-.051-.026-.077 0-.026 0-.052-.025-.078l-.517-1.058c0-.025-.026-.051-.026-.051-.025-.026-.025-.052-.051-.078l-.775-.774h-.025c-.026-.026-.052-.026-.078-.051-.026-.026-.026-.026-.077-.052l-1.033-.31h-.181l-1.239.13h-.051c-.026.025-.052.025-.078.025l-1.265.568c-.026 0-.026 0-.051.026h-.026l-1.29.903c-.027 0-.027.026-.053.026 0 .025-.025.025-.025.051l-1.162 1.265c0 .025 0 .025-.026.025v.026l-1.032 1.548v.026c-.026 0-.026 0-.026.026l-.826 1.574v.052l-.026.025-.465 1.704v.051l-.026.026-.129 1.316-7.538 4.36v-8.256l16.728-12.412.13-.13v-.077h.025v-.025l2.633-8.8 27.88-16.101 1.575-.903 4.105-2.374 1.575 5.625.593 2.193 1.085 3.897v4.85zm-4.698 4.387l-.464 1.6-.775 1.6-.98 1.367-1.137 1.213-1.213.903-1.162.464-1.032.13-.852-.285-.62-.567-.439-.955-.154-1.29.154-1.445.491-1.626.723-1.574.98-1.368 1.162-1.238 1.214-.877 1.161-.542 1.033-.078.852.284.645.594.413.903.155 1.264-.155 1.523zM170.457 56.43l-.49 1.6-.75 1.548-.98 1.47-1.162 1.162-1.213.929-1.162.464-1.007.103-.852-.283-.645-.568-.413-.929-.155-1.316.155-1.445.439-1.626.8-1.522.98-1.47 1.111-1.214 1.187-.851 1.188-.516 1.058-.104.852.233.62.645.439.929.155 1.29-.155 1.47zm-17.735-.749l-22.976-13.289 1.317-.98 11.23-8.283 3.614-2.658.49.284 1.575.903 20.884 12.076-16.134 11.947zm30.023-53.956l22.923 13.212-4.388 2.529-1.6.929-27.313 15.792-14.405-8.283-1.549-.903-6.97-4.026 33.302-19.25zm28.112 25.314l-.723-2.632-.62-2.167-2.09-7.535c-.052-.232-.207-.413-.413-.542L183.184.409a.849.849 0 0 0-.44-.103c-.154 0-.335.026-.464.103l-34.205 19.766c-.206.13-.361.31-.413.542l-2.556 8.67-13.269 9.78-3.459 2.555c-.232.154-.361.438-.361.722v4.748l1.368.8v-4.774l22.924 13.263v8.232l-9.784-5.651-1.678-.98.516 1.857 1.678.955 9.268 5.367c.129.103.284.13.439.13.154 0 .31-.027.464-.13l7.228-4.18v.051a.43.43 0 0 0 .078.258l.465 1.11c.051.13.129.232.232.336l.826.67c.077.078.18.13.284.181l1.033.335c.103.026.18.052.284.052h.103l1.161-.129c.078-.026.155-.026.233-.077l1.265-.49c.077-.052.155-.078.232-.13l1.265-.98.077-.078 1.24-1.187a.703.703 0 0 0 .129-.154l1.032-1.523c.026-.051.052-.077.052-.129l.774-1.625a.196.196 0 0 0 .052-.104l.516-1.677c.026-.052.026-.103.026-.155l.13-1.135 22.897-13.263v.051c0 .103.026.18.078.284l.516 1.11c.051.103.129.206.206.283l.775.697c.077.078.206.13.31.18l1.032.336c.078.026.18.052.284.052h.103l1.188-.13c.077-.025.155-.05.232-.077l1.291-.516a.519.519 0 0 0 .207-.103l1.29-.98c.026-.026.052-.078.104-.104l1.187-1.238c.026-.026.052-.078.077-.103l1.033-1.445c.026-.052.052-.078.078-.13l.8-1.677a.564.564 0 0 0 .077-.129l.465-1.677c0-.052.026-.103.026-.155l.129-1.161 4.104-2.374a.901.901 0 0 0 .465-.774v-5.16c0-.104 0-.181-.026-.259zm-74.683 28.333l-1.342.8.93.516 1.342-.774-.93-.542z" fill="#FFF"/></g></svg>