<svg width="98" height="102" viewBox="0 0 98 102" xmlns="http://www.w3.org/2000/svg"><title>Icon_1</title><g fill="#EB0029" fill-rule="evenodd"><path d="M27.267 23.05H25v36a16 16 0 0 0 7.032 13.251L47.84 83h2.578l15.808-10.698a16 16 0 0 0 7.032-13.25V23.048H64.59V15H33.671v8.05h-6.404zm2.266 35.634V27.538H38.6v-7.902h21.167v7.902h8.96v31.146a12 12 0 0 1-5.222 9.902L49.13 78.425l-14.375-9.839a12 12 0 0 1-5.222-9.902z"/><path d="M56.806 59.968H41.452v-24.13h15.023v4.275H45.912v5.138h8.179v4.274h-8.18v6.169h10.895z"/></g></svg>