<svg width="98" height="102" viewBox="0 0 98 102" xmlns="http://www.w3.org/2000/svg"><title>Icon_3</title><g fill="#EB0029" fill-rule="evenodd"><path d="M31.623 61.723l3.625 3.625 38.36-38.36-3.625-3.624z"/><path d="M66.358 31.23l10.518 10.518 3.624-3.624-10.517-10.517zm-7.778 7.78l8.554 8.552 3.624-3.624-8.553-8.553zm-8.485 8.484l10.79 10.79 3.624-3.624-10.79-10.79zM33.501 63.428a6.414 6.414 0 0 0-9.061 0 6.414 6.414 0 0 0 0 9.06 6.414 6.414 0 0 0 9.061 0 6.414 6.414 0 0 0 0-9.06M20.816 76.113c-4.498-4.497-4.498-11.813 0-16.31 4.497-4.497 11.812-4.497 16.31 0 4.497 4.497 4.497 11.813 0 16.31-4.498 4.497-11.813 4.497-16.31 0"/></g></svg>