<svg width="98" height="102" viewBox="0 0 98 102" xmlns="http://www.w3.org/2000/svg"><title>Icon_2</title><g fill="#EB0029"><path d="M49.282 58.482c-.723 0-1.41.132-2.075.32L39.41 44 36 45.817l7.857 14.918a7.751 7.751 0 0 0-2.294 5.508c0 4.277 3.463 7.757 7.719 7.757C53.537 74 57 70.52 57 66.243c0-4.278-3.463-7.761-7.718-7.761zm0 11.638c-2.13 0-3.858-1.74-3.858-3.877 0-2.138 1.731-3.878 3.858-3.878 2.126 0 3.857 1.74 3.857 3.878 0 2.137-1.728 3.877-3.857 3.877z"/><path d="M49.002 21C29.702 21 14 36.564 14 55.692a34.406 34.406 0 0 0 4.694 17.347 1.955 1.955 0 0 0 2.654.703l8.416-4.82-1.945-3.34-6.681 3.828C19.296 65.743 18.26 61.723 18 57.617h5.72v-3.854h-5.733a30.346 30.346 0 0 1 3.182-11.771l4.965 2.843 1.946-3.34-4.982-2.852a31.193 31.193 0 0 1 8.704-8.624l2.878 4.94 3.367-1.928-2.868-4.925a31.045 31.045 0 0 1 11.876-3.153v5.685h3.888v-5.685a31.045 31.045 0 0 1 11.876 3.153l-2.864 4.925 3.37 1.928 2.877-4.94a31.225 31.225 0 0 1 8.701 8.624l-4.982 2.852 1.946 3.34 4.965-2.843a30.346 30.346 0 0 1 3.182 11.771H74.28v3.854H80c-.259 4.106-1.295 8.126-3.137 11.793l-6.68-3.827-1.946 3.34 8.416 4.819c.304.176.64.256.971.256.67 0 1.324-.343 1.683-.96A34.382 34.382 0 0 0 84 55.693C84.003 36.564 68.3 21 49.002 21z"/></g></svg>