<svg width="98" height="102" viewBox="0 0 98 102" xmlns="http://www.w3.org/2000/svg"><title>Icon_5</title><g fill="#EB0029" fill-rule="evenodd"><path d="M57.88 42.556v20.935h31.117V42.556H57.88zm3.5 3.503h24.117v13.929H61.38V46.059z"/><path d="M68.477 49.761a3.273 3.273 0 0 0-3.256 3.256 3.273 3.273 0 0 0 3.256 3.255c1.783 0 3.25-1.471 3.25-3.255 0-1.785-1.467-3.256-3.25-3.256z"/><path d="M16.044 28.901h61.168l.027-4.127h-16v-.014l-45.195-.107V28.9zm45.195-8.326v-.034h19.5v8.36h5.068v15.014h-3.838L82 32.405H16.044v42.752H82l.037-12.462h3.755v16.57H12.003v-58.69H61.24z"/></g></svg>