<svg width="98" height="102" viewBox="0 0 98 102" xmlns="http://www.w3.org/2000/svg"><title>Icon_4</title><g fill="#EB0029"><path d="M47.288 59.136h4.563v4.486h-4.563zm0 7.743h4.563v4.486h-4.563zm0 7.742h4.563v4.486h-4.563z"/><path d="M68.456 62.133a1 1 0 0 1-1.415 1.302L49.5 52.698 31.96 63.435a1 1 0 0 1-1.416-1.302l18.063-35.929a1 1 0 0 1 1.786 0l18.063 35.93zM49.5 34.585L40.234 53.02l9.266-5.673 9.266 5.673L49.5 34.585zM32.39 16H13v19.128h4.563V20.562H32.39zm49.048 68.438h-14.83V89H86V69.872h-4.563z"/></g></svg>