<svg width="86" height="86" viewBox="0 0 86 86" xmlns="http://www.w3.org/2000/svg"><title>noun_1043035_cc</title><g fill="#A9A9A9"><path d="M43 .448C19.53.448.448 19.529.448 43 .448 66.47 19.529 85.552 43 85.552c23.47 0 42.552-19.081 42.552-42.552C85.552 19.53 66.471.448 43 .448zm0 81.49C21.524 81.937 4.063 64.475 4.063 43 4.063 21.524 21.523 4.063 43 4.063c21.476 0 38.937 17.46 38.937 38.937 0 21.476-17.46 38.937-38.937 38.937z"/><path d="M37.625 50.883l-12.81-12.81-4.57 4.569 17.38 17.379 29.742-29.742-4.659-4.569z"/></g></svg>